<svg xmlns="http://www.w3.org/2000/svg" width="63.142" height="107.301" viewBox="0 0 63.142 107.301">
  <g id="logo_bl" transform="translate(-0.004)">
    <path id="Path_40" data-name="Path 40" d="M62.306,57.613,43.746,31.686h8.088c2.068,0,2.76-1.375,1.548-3.068L33.793,1.269a2.553,2.553,0,0,0-4.414,0L9.771,28.58c-1.212,1.693-.519,3.077,1.548,3.077h8.116L.846,57.565C-.865,59.949.116,61.9,3.02,61.9l22.907.019c2.635-5.549,4.462-11.665,3.347-16.146C28.1,41.053,21.339,37.1,21.339,29.254c0-6.357,3.568-8.443,7.424-18.069a37.107,37.107,0,0,0,2.173-8.443s1.529-4.077,2.279,6.645c.625,8.828-4.779,12.29-2.337,20.56C33.3,38.12,41.7,39.187,45.842,50.977A31.624,31.624,0,0,1,47.535,61.93H60.123c2.9.01,3.895-1.943,2.183-4.327Z" fill="#fff"/>
    <path id="Path_41" data-name="Path 41" d="M1.78,73.9A.207.207,0,0,1,2,73.68h5.52c3.145,0,4.626,1.6,4.626,4a3.364,3.364,0,0,1-1.721,3.183v.048A3.557,3.557,0,0,1,12.406,84.3c0,2.981-1.856,4.424-5.106,4.424H2A.207.207,0,0,1,1.78,88.5V73.9ZM7.454,79.94a1.985,1.985,0,1,0,0-3.962H4.482a.122.122,0,0,0-.135.135v3.693a.122.122,0,0,0,.135.135H7.454ZM4.482,86.422h3.1a2.093,2.093,0,1,0,0-4.174h-3.1a.122.122,0,0,0-.135.135V86.3a.122.122,0,0,0,.135.135Z" transform="translate(-0.068 -2.825)" fill="#fff"/>
    <path id="Path_42" data-name="Path 42" d="M15.5,73.711a.207.207,0,0,1,.221-.221h9.3a.207.207,0,0,1,.221.221v1.9a.207.207,0,0,1-.221.221H18.212a.122.122,0,0,0-.135.135v3.674a.122.122,0,0,0,.135.135h5.741a.207.207,0,0,1,.221.221v1.9a.207.207,0,0,1-.221.221H18.212a.122.122,0,0,0-.135.135v3.808a.122.122,0,0,0,.135.135H25.02a.207.207,0,0,1,.221.221v1.9a.207.207,0,0,1-.221.221h-9.3a.207.207,0,0,1-.221-.221V73.73Zm4.193-1.789A.449.449,0,0,1,19.3,71.7l-2.135-2.77c-.087-.106-.048-.221.087-.221h1.375a.57.57,0,0,1,.462.221l1.241,1.308h.048l1.241-1.308a.547.547,0,0,1,.462-.221h1.375c.135,0,.173.115.087.221L21.4,71.7a.439.439,0,0,1-.394.221H19.7Z" transform="translate(-0.594 -2.635)" fill="#fff"/>
    <path id="Path_43" data-name="Path 43" d="M28.27,73.9a.207.207,0,0,1,.221-.221h2.135a.207.207,0,0,1,.221.221v5.924a.122.122,0,0,0,.135.135h5.655a.122.122,0,0,0,.135-.135V73.9a.207.207,0,0,1,.221-.221h2.135a.207.207,0,0,1,.221.221V88.5a.207.207,0,0,1-.221.221H36.992a.207.207,0,0,1-.221-.221V82.441a.122.122,0,0,0-.135-.135H30.982a.122.122,0,0,0-.135.135V88.5a.207.207,0,0,1-.221.221H28.491a.207.207,0,0,1-.221-.221V73.9Z" transform="translate(-1.084 -2.825)" fill="#fff"/>
    <path id="Path_44" data-name="Path 44" d="M43.05,73.9a.207.207,0,0,1,.221-.221h9.3a.207.207,0,0,1,.221.221v1.9a.207.207,0,0,1-.221.221H45.762a.122.122,0,0,0-.135.135v3.674a.122.122,0,0,0,.135.135H51.5a.207.207,0,0,1,.221.221v1.9a.207.207,0,0,1-.221.221H45.762a.122.122,0,0,0-.135.135v3.808a.122.122,0,0,0,.135.135H52.57a.207.207,0,0,1,.221.221v1.9a.207.207,0,0,1-.221.221h-9.3a.207.207,0,0,1-.221-.221V73.92Z" transform="translate(-1.651 -2.825)" fill="#fff"/>
    <path id="Path_45" data-name="Path 45" d="M55.226,86.835l1.6-1.221a.224.224,0,0,1,.327.067,2.719,2.719,0,0,0,1.981.933c1.567,0,2.462-1,2.462-2.962V73.9a.207.207,0,0,1,.221-.221h2.135a.207.207,0,0,1,.221.221v9.751c0,3.4-1.981,5.308-5.126,5.308a4.764,4.764,0,0,1-3.866-1.818.216.216,0,0,1,.038-.308Z" transform="translate(-2.114 -2.825)" fill="#fff"/>
    <path id="Path_46" data-name="Path 46" d="M9.29,95.9a.207.207,0,0,1,.221-.221h2.135a.207.207,0,0,1,.221.221v12.338a.122.122,0,0,0,.135.135H18.81a.207.207,0,0,1,.221.221v1.9a.207.207,0,0,1-.221.221h-9.3a.207.207,0,0,1-.221-.221V95.9Z" transform="translate(-0.356 -3.669)" fill="#fff"/>
    <path id="Path_47" data-name="Path 47" d="M21.69,95.9a.207.207,0,0,1,.221-.221h9.3a.207.207,0,0,1,.221.221v1.9a.207.207,0,0,1-.221.221H24.4a.122.122,0,0,0-.135.135v3.674a.122.122,0,0,0,.135.135h5.741a.207.207,0,0,1,.221.221v1.9a.207.207,0,0,1-.221.221H24.4a.122.122,0,0,0-.135.135v3.808a.122.122,0,0,0,.135.135H31.21a.207.207,0,0,1,.221.221v1.9a.207.207,0,0,1-.221.221h-9.3a.207.207,0,0,1-.221-.221V95.92Z" transform="translate(-0.832 -3.669)" fill="#fff"/>
    <path id="Path_48" data-name="Path 48" d="M34.016,108.961a.242.242,0,0,1-.048-.327l1.356-1.6a.19.19,0,0,1,.308-.019,6.616,6.616,0,0,0,4.039,1.6c1.769,0,2.789-.9,2.789-2.164,0-1.087-.654-1.789-2.7-2.077l-.789-.115c-2.856-.394-4.472-1.789-4.472-4.289,0-2.721,1.962-4.529,5.02-4.529a8.076,8.076,0,0,1,4.8,1.5.194.194,0,0,1,.038.308l-1.048,1.635A.214.214,0,0,1,43,98.95a6.21,6.21,0,0,0-3.558-1.173c-1.51,0-2.337.837-2.337,2.01,0,1.039.721,1.75,2.731,2.039l.789.115c2.856.394,4.433,1.769,4.433,4.356s-1.894,4.664-5.587,4.664a8.287,8.287,0,0,1-5.453-1.991Z" transform="translate(-1.301 -3.66)" fill="#fff"/>
    <path id="Path_49" data-name="Path 49" d="M51.269,110.721a.207.207,0,0,1-.221-.221v-5.924l-4.3-8.665c-.038-.115.019-.221.173-.221h2.2a.321.321,0,0,1,.308.221l2.9,5.837H52.4l2.923-5.837a.305.305,0,0,1,.308-.221h2.116c.173,0,.221.115.173.221l-4.3,8.665V110.5a.207.207,0,0,1-.221.221Z" transform="translate(-1.792 -3.669)" fill="#fff"/>
  </g>
</svg>
