<svg xmlns="http://www.w3.org/2000/svg" width="62.669" height="50.5" viewBox="0 0 62.669 50.5">
  <g id="icon" transform="translate(1.25 1.25)">
    <path id="Path_126" data-name="Path 126" d="M57.69-188.481H63.6a4.88,4.88,0,0,0,4-2.126,20.09,20.09,0,0,1,12.635-8.269,19.992,19.992,0,0,1,3.879-.376,20.025,20.025,0,0,1,3.879.376,20.018,20.018,0,0,1,9.976,5.168,20.067,20.067,0,0,1,3.759,4.884,19.976,19.976,0,0,1,2.471,9.957,20.153,20.153,0,0,1-19.937,19.79,20.015,20.015,0,0,1-13.753-5.308,4.94,4.94,0,0,0-3.345-1.307H58.619" transform="translate(-46.35 207.077)" fill="none" stroke="#fff" stroke-linecap="round" stroke-linejoin="round" stroke-width="2.5"/>
    <path id="Path_127" data-name="Path 127" d="M175.6-217.545v4.121a20.024,20.024,0,0,0-3.879-.376,19.991,19.991,0,0,0-3.879.376v-4.121c.065.006.133.01.2.01h7.351C175.463-217.535,175.531-217.539,175.6-217.545Z" transform="translate(-134.002 221.878)" fill="none" stroke="#fff" stroke-linecap="round" stroke-linejoin="round" stroke-width="2.5"/>
    <path id="Path_128" data-name="Path 128" d="M169.921-236.537a2.16,2.16,0,0,1-.635,1.535,2.174,2.174,0,0,1-1.331.626c-.068.006-.135.01-.2.01H160.4c-.07,0-.137,0-.2-.01a2.17,2.17,0,0,1-1.967-2.161,2.158,2.158,0,0,1,.637-1.536,2.156,2.156,0,0,1,1.533-.636h7.351A2.17,2.17,0,0,1,169.921-236.537Z" transform="translate(-126.357 238.709)" fill="none" stroke="#fff" stroke-linecap="round" stroke-linejoin="round" stroke-width="2.5"/>
    <path id="Path_129" data-name="Path 129" d="M262.392-187.2l-4.164,4.163a20.068,20.068,0,0,0-3.759-4.884l3.6-3.6a1.552,1.552,0,0,1,2.2,0l2.123,2.122A1.555,1.555,0,0,1,262.392-187.2Z" transform="translate(-202.847 201.484)" fill="none" stroke="#fff" stroke-linecap="round" stroke-linejoin="round" stroke-width="2.5"/>
    <path id="Path_130" data-name="Path 130" d="M182.848-148.906l-5.331,7.857a4.6,4.6,0,0,0-.768,2.526,4.814,4.814,0,0,1-1.413,3.331,4.821,4.821,0,0,1-7.054-.256,4.839,4.839,0,0,1,.121-6.441,4.8,4.8,0,0,1,3.548-1.535,4.318,4.318,0,0,0,2.426-.766l7.857-5.33A.442.442,0,0,1,182.848-148.906Z" transform="translate(-133.408 167.699)" fill="none" stroke="#fff" stroke-linecap="round" stroke-linejoin="round" stroke-width="2.5"/>
    <path id="Path_131" data-name="Path 131" d="M27.67-74.979H3" transform="translate(-3 108.322)" fill="none" stroke="#fff" stroke-linecap="round" stroke-linejoin="round" stroke-width="2.5"/>
    <path id="Path_132" data-name="Path 132" d="M111.064-109.278H106.38" transform="translate(-85.162 135.635)" fill="none" stroke="#fff" stroke-linecap="round" stroke-linejoin="round" stroke-width="2.5"/>
    <path id="Path_133" data-name="Path 133" d="M35.058-109.278H24.27" transform="translate(-19.916 135.635)" fill="none" stroke="#fff" stroke-linecap="round" stroke-linejoin="round" stroke-width="2.5"/>
  </g>
</svg>
