<svg xmlns="http://www.w3.org/2000/svg" width="50" height="44.234" viewBox="0 0 50 44.234">
  <g id="icon" transform="translate(1 1)">
    <path id="Path_138" data-name="Path 138" d="M20.638-263.243a8.811,8.811,0,0,1-4.17,7.519,5.484,5.484,0,0,0-2.027,2.233l-1.724,3.506a1,1,0,0,1-1.8,0L9.2-253.492a5.414,5.414,0,0,0-2.01-2.222A8.814,8.814,0,0,1,3-263.218a8.819,8.819,0,0,1,9.032-8.816A8.852,8.852,0,0,1,20.638-263.243Z" transform="translate(-3 272.036)" fill="none" stroke="#c21b17" stroke-linecap="round" stroke-linejoin="round" stroke-width="2"/>
    <path id="Path_139" data-name="Path 139" d="M38.8-240.907a4.664,4.664,0,0,1-4.663,4.663,4.664,4.664,0,0,1-4.663-4.663,4.664,4.664,0,0,1,4.663-4.663A4.664,4.664,0,0,1,38.8-240.907Z" transform="translate(-25.314 249.725)" fill="none" stroke="#c21b17" stroke-linecap="round" stroke-linejoin="round" stroke-width="2"/>
    <path id="Path_140" data-name="Path 140" d="M214.058-156.453a8.815,8.815,0,0,1-4.17,7.52,5.467,5.467,0,0,0-2.028,2.233l-1.722,3.5a1,1,0,0,1-1.8,0l-1.722-3.5a5.429,5.429,0,0,0-2.01-2.223,8.81,8.81,0,0,1-4.187-7.5,8.819,8.819,0,0,1,9.034-8.816A8.854,8.854,0,0,1,214.058-156.453Z" transform="translate(-166.058 182.007)" fill="none" stroke="#c21b17" stroke-linecap="round" stroke-linejoin="round" stroke-width="2"/>
    <path id="Path_141" data-name="Path 141" d="M232.216-134.117a4.663,4.663,0,0,1-4.663,4.663,4.663,4.663,0,0,1-4.663-4.663,4.663,4.663,0,0,1,4.663-4.663A4.663,4.663,0,0,1,232.216-134.117Z" transform="translate(-188.373 159.698)" fill="none" stroke="#c21b17" stroke-linecap="round" stroke-linejoin="round" stroke-width="2"/>
    <path id="Path_142" data-name="Path 142" d="M59.17-110.61H72.3a4.077,4.077,0,0,1,4.075,4.077,4.077,4.077,0,0,1-4.075,4.076H68.2a4.37,4.37,0,0,0-4.37,4.371,4.371,4.371,0,0,0,4.37,4.371H89.531" transform="translate(-50.351 135.949)" fill="none" stroke="#c21b17" stroke-linecap="round" stroke-linejoin="round" stroke-width="2"/>
  </g>
</svg>
