<svg xmlns="http://www.w3.org/2000/svg" xmlns:xlink="http://www.w3.org/1999/xlink" width="110.165" height="107.301" viewBox="0 0 110.165 107.301">
  <defs>
    <clipPath id="clip-path">
      <path id="Path_17" data-name="Path 17" d="M.031,36.449V59.431H3.7l9.366-2.441,9.367,2.441h3.663V36.449l-13.03-3.383Z" transform="translate(-0.031 -33.066)" fill="none"/>
    </clipPath>
  </defs>
  <g id="logo_generali" transform="translate(0 0)">
    <path id="Path_9" data-name="Path 9" d="M83.155,55.344a1.627,1.627,0,0,1,1.26-1.054l6.09-1.36-.55-5.43-.021-.116a3.531,3.531,0,0,0-3.429-3.111c-10.882-.878-13.407-2.492-16.052-4.2a.051.051,0,0,1-.008-.023l-.018.008-.171-.112a11.353,11.353,0,0,0-5.909-1.836,28.889,28.889,0,0,0-7.3,1.323c-.94.277-1.82.56-2.673.831a29.635,29.635,0,0,1-11.3,1.9l-.9-.029-.233.873c-.176.673-1.562,6.139-.225,9.652a2.761,2.761,0,0,0-1.19,2.179c.047,1.2-.235,1.5-.329,1.593-.573.592-2.466.67-4.065.67h-.6l-.343.472A4.5,4.5,0,0,1,30.719,58.9c-.6-1.824-.613-3.215-.039-4.047A3.389,3.389,0,0,1,33.4,53.766h.344a2.634,2.634,0,0,0,2.621-2.637V41.343A11.039,11.039,0,0,0,37.462,39a4.956,4.956,0,0,0,4.217-4.843,4.8,4.8,0,0,0-.775-2.611,6.864,6.864,0,0,0,4.1-6.08,5.4,5.4,0,0,0-2.793-5,45.661,45.661,0,0,0,1.446-4.948l1.909-6.844a6.018,6.018,0,0,1,5.694-4.416H84.915A7.075,7.075,0,0,1,78.664,7.2H58.3L57.232,9.482H75.483a7.046,7.046,0,0,1-6.515,3.358H55.737l-1.064,2.276H66.482a7.049,7.049,0,0,1-6.434,3.233H52.833l-1.064,2.279h7.564a2.431,2.431,0,0,1,.256,1.362,2.7,2.7,0,0,1-2.742,2.653,4.367,4.367,0,0,1-1.742-.435c-.334-.142-.668-.282-1-.424l-1.756,1.574c.329.14.655.28.984.417a8.349,8.349,0,0,0,3.516,1,4.912,4.912,0,0,0,3.538-1.495c1.3.083,3.388.256,5.411.419,2.418.2,4.7.388,5.886.451.59.031,1.145.06,1.676.086,1,.049,1.922.093,2.842.16,4.59,7.458,6.944,8.437,15.842,9.5.64,1.147,1.215,2.362,1.767,3.585V54.012l0,.084c.052.668.052.893-.039,1.015a7.759,7.759,0,0,1-2.161,1.174l-7.5,2.829a4.167,4.167,0,0,1-.956-3.769m-1.621,3.942H66.71l6.352-6.7A4.253,4.253,0,0,0,74.217,48.1c-.311-.9-1.15-2.634-2.02-4.408,2.52,1.171,6.344,2.224,14.124,2.852.935.078,1.184.4,1.368,1.249l.342,3.357-4.067.907a3.9,3.9,0,0,0-2.934,2.463,5.722,5.722,0,0,0,.5,4.769m-26.737,0a4.014,4.014,0,0,1,.489-3.74,2.954,2.954,0,0,1,2.552-.941l4.33.8.11.02h.6l3.062-3.3.028-.029a3.66,3.66,0,0,0,.49-4.81l-4.09-6.745a14.753,14.753,0,0,1,1.984-.155l.029,0a9.124,9.124,0,0,1,4.269,1.252c.3.639.715,1.479,1.173,2.414.86,1.744,1.933,3.909,2.228,4.787a1.951,1.951,0,0,1-.64,2.171L63.57,59.286H54.8Zm-1.231-5.238a5.857,5.857,0,0,0-1.108,5.238H38.5a5.084,5.084,0,0,0,3.342-1.28,4.257,4.257,0,0,0,.963-3.178c.031-.081.181-.394.865-.7l1.2-.55-.723-1.108c-1.191-1.834-.67-5.839-.209-8.017h.109a32.439,32.439,0,0,0,11.022-2.018c.842-.272,1.71-.552,2.63-.818l.028-.01c.016-.006.961-.306,2.246-.606l4.55,7.5.039.062c.454.648.511,1.075-.316,2.036l-2.279,2.461-3.738-.7-.034,0a5.239,5.239,0,0,0-4.634,1.692m-24.758-.495c-.972,1.4-1.091,3.321-.36,5.732H26.091V40.877a10.125,10.125,0,0,0,2.6-.757A18.391,18.391,0,0,1,28.38,42.4c-.034.2-.07.4-.106.624l-.226,1.326H29.4a10.1,10.1,0,0,0,4.681-.911v7.685a.35.35,0,0,1-.34.357H33.4a5.416,5.416,0,0,0-4.587,2.067m-5,3.738-10.747-2.8-10.748,2.8V38.069l10.748-2.79,10.747,2.79ZM3.692,59.286l9.367-2.435,9.369,2.435H3.693ZM7.44,30.99A2.719,2.719,0,0,1,10.2,29.932l.974.169.3-.936a1.351,1.351,0,0,1,.348-.582,1.644,1.644,0,0,1,1.2-.365,7.161,7.161,0,0,1,4.489,2.5,12.418,12.418,0,0,1,1.363,1.813c.075.137.165.28.246.407.112.178.207.326.225.359a8.329,8.329,0,0,1,.694,1.192q.708-.995,1.417-1.989c.011-.018-.007-.081-.049-.165-.107-.228-.357-.622-.5-.855l-.11-.171a.036.036,0,0,0-.008-.013c-.015-.023-.075-.123-.16-.251-.158-.249-.383-.6-.484-.8l2.973-4.753a8.4,8.4,0,0,0,1.679.175h.073c4.191,0,8.529-2.417,8.529-6.465v-.1a20.515,20.515,0,0,0-.424-3,9.678,9.678,0,0,1-.213-1.344c0-.446.624-.938,1.518-.938h1.354l-.613-3.515a7.307,7.307,0,0,0,3.023-5.878,10.448,10.448,0,0,1,3.771,7.222,11.713,11.713,0,0,1-.362,3.269l-.144.521.023.008a45.912,45.912,0,0,1-1.583,5.1l-.351.911.854.485c1.528.867,2.471,1.5,2.471,3.515,0,2.31-2.08,4.082-4.09,4.458l-2.748.513,2.324,1.551a2.612,2.612,0,0,1,1.189,2.169,2.694,2.694,0,0,1-2.749,2.632h-.877l-.247.8c-.854,2.78-1.779,4.139-4.76,4.43a15.954,15.954,0,0,0,.233-2.808c0-.27-.023-1.026-.031-1.267l-.134-2.591L29.008,37.2a5.828,5.828,0,0,1-2.916,1.362V36.308L13.059,32.924,8.422,34.131A3.5,3.5,0,0,1,7.44,30.99m14.069-8.369a.334.334,0,0,1,.295-.28l1.964.065c2.394-.086,4.831-1.07,5.1-3.56a3.161,3.161,0,0,0-2.886-3.329A6.4,6.4,0,0,0,22.92,16.9a4.185,4.185,0,0,1-1.774.883c-.306,0-.546-.2-.546-.367a.3.3,0,0,1,.013-.084l1.254-1.678-1.083-.728c-.23-.15-.59-.435-.629-.648-.018-.1.127-.28.171-.334a19.583,19.583,0,0,0,1.484-1.949c.319-.448.506-.694,1.045-.694a.956.956,0,0,1,.961.946c0,.345.378.616.849.616s.681-.332.972-.616c0,0,1.119-1.026.526-1.511-.676-.554-3.383.576-2.629-1.909l.188-.354c.288-.383,1.583-1.342,4.259-1.342a13.084,13.084,0,0,1,1.59.1l.4.052,5.678-3.5a1.287,1.287,0,0,1,.068.2l0,.034A4.921,4.921,0,0,1,33.2,8.78l-.694.4.448,2.562a3.253,3.253,0,0,0-2.474,3.023,10.086,10.086,0,0,0,.257,1.782,18.639,18.639,0,0,1,.38,2.645c0,2.663-3.675,4.424-6.786,4.325l-.081,0a7.825,7.825,0,0,1-2.6-.544.391.391,0,0,1-.144-.347M26.215,4.838a6.973,6.973,0,0,1,1.638-1.425A7.386,7.386,0,0,1,29.8,2.532a7.893,7.893,0,0,1,3.673-.085L29.448,4.929c-.5-.05-.995-.078-1.469-.078A11.693,11.693,0,0,0,26.093,5c.039-.055.081-.109.121-.16m61.363-.585h15.185A7.075,7.075,0,0,1,96.511,7.2H85.3a10.154,10.154,0,0,0,2.277-2.952m-.762,8.587H75.608a10.406,10.406,0,0,0,2.473-3.358H93.333a7.052,7.052,0,0,1-6.517,3.358M77.9,18.349H66.686A10.4,10.4,0,0,0,69.1,15.116H84.33A7.054,7.054,0,0,1,77.9,18.349M80.472,26.9a14,14,0,0,1,8.642,4.748c.466.55.917,1.135,1.359,1.766-5.97-.785-8.05-1.655-11.392-6.724.448.06.9.126,1.391.21m23.834,24.582c.22.352.407.684.59,1,.22.4.44.78.694,1.181-1.728-.109-3.038-1.066-4.248-2.878a2.591,2.591,0,0,1,2.963.694m-14.2,7.8,2.329-.878.033-.013c3.309-1.37,3.78-2.225,3.621-4.424v-8.89c2.518,6.39,4.9,10.881,9.774,10.881A9.764,9.764,0,0,0,108,55.709l1.9-.432-1.311-1.443a12.126,12.126,0,0,1-1.707-2.466c-.192-.339-.391-.689-.629-1.077A4.868,4.868,0,0,0,100.2,48.8c-1-1.981-2-4.564-3.21-7.753l-.264-.606c-.21-.474-.417-.956-.632-1.435v-.078h-.033a45.1,45.1,0,0,0-2.5-4.956,28.747,28.747,0,0,0-2.7-3.792,16.229,16.229,0,0,0-10.012-5.522,58.844,58.844,0,0,0-7.377-.692c-.523-.023-1.074-.052-1.663-.083-1.147-.063-3.523-.259-5.82-.448-1.549-.124-3.138-.254-4.386-.35a4.678,4.678,0,0,0,.132-1.091,6.325,6.325,0,0,0-.132-1.362H77.9a9.4,9.4,0,0,0,9.053-5.514,9.388,9.388,0,0,0,8.98-5.632h.583a9.437,9.437,0,0,0,9.24-5.9l.736-1.611H51.258A8.259,8.259,0,0,0,43.384,8l-.034.126a11.711,11.711,0,0,0-4.862-6.152A12.242,12.242,0,0,0,29.165.343a9.733,9.733,0,0,0-2.572,1.168,9.416,9.416,0,0,0-2.178,1.925,17.961,17.961,0,0,0-1.889,3.026,3.6,3.6,0,0,0-.736.79l-.66,1.241-.037.071a15.6,15.6,0,0,1-2.5,3.9,2.6,2.6,0,0,0-.683,2.23,2.912,2.912,0,0,0,.762,1.432l-.016.037a2.5,2.5,0,0,0-.337,1.254,2.675,2.675,0,0,0,2.828,2.559A5.5,5.5,0,0,0,24.185,18.8a8.264,8.264,0,0,1,1.8-1,.867.867,0,0,1,.834.831c0,1.194-1.541,1.839-2.645,1.917l-2.241.241c-1.616.15-2.383,1.008-2.383,1.772a1.946,1.946,0,0,0,.629,1.458l.166.168.57.508-2.381,3.832a8.857,8.857,0,0,0-5.44-2.578,3.842,3.842,0,0,0-2.844.99,3.391,3.391,0,0,0-.55.673H9.661a4.98,4.98,0,0,0-4.132,2.138c-.806,1.236-.515,3.373.508,5L.03,36.308v28.7H110.153V59.286H90.106Z" transform="translate(0)" fill="#fff"/>
    <path id="Path_10" data-name="Path 10" d="M21.487,41.189l-7.18-1.862v2.352l7.18,1.865Z" transform="translate(-0.061 -0.168)" fill="#b1b2b3"/>
    <path id="Path_11" data-name="Path 11" d="M4.715,43.543l7.178-1.865V39.323L4.715,41.188Z" transform="translate(-0.02 -0.168)" fill="#b1b2b3"/>
    <path id="Path_12" data-name="Path 12" d="M4.715,48.293l7.178-1.862V44.076L4.715,45.939Z" transform="translate(-0.02 -0.188)" fill="#b1b2b3"/>
    <path id="Path_13" data-name="Path 13" d="M21.487,45.938l-7.18-1.862V46.43l7.18,1.863Z" transform="translate(-0.061 -0.188)" fill="#b1b2b3"/>
    <path id="Path_14" data-name="Path 14" d="M21.487,50.693l-7.18-1.868v2.358l7.18,1.862Z" transform="translate(-0.061 -0.209)" fill="#b1b2b3"/>
    <path id="Path_15" data-name="Path 15" d="M4.715,53.045l7.178-1.865V48.826L4.715,50.694Z" transform="translate(-0.02 -0.209)" fill="#b1b2b3"/>
    <g id="Group_3" data-name="Group 3" transform="translate(0.031 32.925)" clip-path="url(#clip-path)">
      <path id="Path_16" data-name="Path 16" d="M83.155,55.344a1.627,1.627,0,0,1,1.26-1.054l6.09-1.36-.55-5.43-.021-.116a3.531,3.531,0,0,0-3.429-3.111c-10.882-.878-13.407-2.492-16.052-4.2a.06.06,0,0,1-.008-.024l-.018.008-.171-.112a11.353,11.353,0,0,0-5.909-1.836,28.889,28.889,0,0,0-7.3,1.323c-.94.277-1.82.56-2.673.831a29.635,29.635,0,0,1-11.3,1.9l-.9-.029-.233.873c-.176.673-1.562,6.139-.225,9.652a2.761,2.761,0,0,0-1.19,2.179c.047,1.2-.235,1.5-.329,1.593-.573.592-2.466.67-4.065.67h-.6l-.343.472A4.5,4.5,0,0,1,30.719,58.9c-.6-1.824-.613-3.215-.039-4.047A3.389,3.389,0,0,1,33.4,53.766h.344a2.634,2.634,0,0,0,2.621-2.637V41.343A11.039,11.039,0,0,0,37.462,39a4.956,4.956,0,0,0,4.217-4.843,4.8,4.8,0,0,0-.775-2.611,6.864,6.864,0,0,0,4.1-6.08,5.4,5.4,0,0,0-2.793-5,45.661,45.661,0,0,0,1.446-4.948l1.909-6.844a6.018,6.018,0,0,1,5.694-4.416H84.915A7.075,7.075,0,0,1,78.664,7.2H58.3L57.232,9.482H75.483a7.046,7.046,0,0,1-6.515,3.358H55.737l-1.064,2.276H66.482a7.049,7.049,0,0,1-6.434,3.233H52.833l-1.064,2.279h7.564a2.431,2.431,0,0,1,.256,1.362,2.7,2.7,0,0,1-2.742,2.653,4.367,4.367,0,0,1-1.742-.435c-.334-.142-.668-.282-1-.424l-1.756,1.574c.329.14.655.28.984.417a8.349,8.349,0,0,0,3.516,1,4.912,4.912,0,0,0,3.538-1.495c1.3.083,3.388.256,5.411.419,2.418.2,4.7.389,5.886.451.59.031,1.145.06,1.676.086,1,.049,1.922.093,2.842.16,4.59,7.458,6.944,8.437,15.842,9.5.64,1.147,1.215,2.362,1.767,3.585V54.013l0,.083c.052.668.052.893-.039,1.016a7.783,7.783,0,0,1-2.161,1.173l-7.5,2.829a4.167,4.167,0,0,1-.956-3.769m-1.621,3.942H66.71l6.352-6.7A4.253,4.253,0,0,0,74.217,48.1c-.311-.9-1.15-2.634-2.02-4.408,2.52,1.171,6.344,2.224,14.124,2.852.935.078,1.184.4,1.368,1.249l.342,3.357-4.067.907a3.9,3.9,0,0,0-2.934,2.463,5.722,5.722,0,0,0,.5,4.769m-26.737,0a4.014,4.014,0,0,1,.489-3.74,2.954,2.954,0,0,1,2.552-.941l4.33.8.11.02h.6l3.062-3.3.028-.029a3.66,3.66,0,0,0,.49-4.81l-4.09-6.745a14.753,14.753,0,0,1,1.984-.155l.029,0a9.124,9.124,0,0,1,4.269,1.252c.3.639.715,1.479,1.173,2.414.86,1.744,1.933,3.909,2.228,4.787a1.951,1.951,0,0,1-.64,2.171L63.57,59.286H54.8Zm-1.231-5.238a5.857,5.857,0,0,0-1.108,5.238H38.5a5.079,5.079,0,0,0,3.342-1.28,4.257,4.257,0,0,0,.963-3.178c.031-.081.181-.393.865-.7l1.2-.55-.723-1.108c-1.191-1.834-.67-5.839-.209-8.017h.109a32.439,32.439,0,0,0,11.022-2.018c.842-.272,1.71-.552,2.63-.818l.028-.01c.016-.006.961-.306,2.246-.606l4.55,7.5.039.062c.454.648.511,1.075-.316,2.036l-2.279,2.461-3.738-.7-.034,0a5.239,5.239,0,0,0-4.634,1.692m-24.758-.495c-.972,1.4-1.091,3.321-.36,5.732H26.091V40.877a10.085,10.085,0,0,0,2.6-.757A18.391,18.391,0,0,1,28.38,42.4c-.034.2-.07.4-.106.624l-.226,1.326H29.4a10.1,10.1,0,0,0,4.681-.911v7.685a.35.35,0,0,1-.34.357H33.4a5.416,5.416,0,0,0-4.587,2.067m-5,3.738-10.747-2.8-10.748,2.8V38.069l10.748-2.79,10.747,2.79ZM3.692,59.286l9.367-2.435,9.369,2.435H3.693ZM7.44,30.99A2.721,2.721,0,0,1,10.2,29.932l.974.169.3-.936a1.351,1.351,0,0,1,.348-.582,1.644,1.644,0,0,1,1.2-.365,7.161,7.161,0,0,1,4.489,2.5,12.418,12.418,0,0,1,1.363,1.813c.075.137.165.28.246.407.112.178.207.327.225.359a8.329,8.329,0,0,1,.694,1.192q.708-.995,1.417-1.989c.011-.018-.007-.081-.049-.165-.107-.228-.357-.622-.5-.855l-.11-.171a.036.036,0,0,0-.008-.013c-.015-.023-.075-.123-.16-.251-.158-.249-.383-.6-.484-.8l2.973-4.753a8.4,8.4,0,0,0,1.679.175h.073c4.191,0,8.529-2.417,8.529-6.465v-.1a20.515,20.515,0,0,0-.424-3,9.678,9.678,0,0,1-.213-1.344c0-.446.624-.938,1.518-.938h1.354l-.613-3.515a7.307,7.307,0,0,0,3.023-5.878,10.448,10.448,0,0,1,3.771,7.222,11.709,11.709,0,0,1-.362,3.269l-.144.521.023.008a45.912,45.912,0,0,1-1.583,5.1l-.351.911.854.485c1.528.867,2.471,1.5,2.471,3.515,0,2.31-2.08,4.082-4.09,4.458l-2.748.513,2.324,1.551a2.612,2.612,0,0,1,1.189,2.169,2.694,2.694,0,0,1-2.749,2.632h-.877l-.247.8c-.854,2.78-1.779,4.139-4.76,4.43a15.954,15.954,0,0,0,.233-2.808c0-.27-.023-1.026-.031-1.267l-.134-2.591L29.008,37.2a5.828,5.828,0,0,1-2.916,1.362V36.308L13.059,32.924,8.422,34.131A3.5,3.5,0,0,1,7.44,30.99m14.069-8.369a.334.334,0,0,1,.295-.28l1.964.065c2.394-.086,4.831-1.07,5.1-3.56a3.161,3.161,0,0,0-2.886-3.329A6.4,6.4,0,0,0,22.92,16.9a4.185,4.185,0,0,1-1.774.883c-.306,0-.546-.2-.546-.367a.292.292,0,0,1,.013-.083l1.254-1.679-1.083-.728c-.23-.15-.59-.435-.629-.648-.018-.1.127-.28.171-.334A19.675,19.675,0,0,0,21.809,12c.319-.449.506-.7,1.045-.7a.956.956,0,0,1,.961.946c0,.345.378.616.849.616s.681-.332.972-.616c0,0,1.119-1.026.526-1.511-.676-.554-3.383.576-2.629-1.909l.188-.354c.288-.383,1.583-1.342,4.259-1.342a13.084,13.084,0,0,1,1.59.1l.4.052,5.678-3.5a1.276,1.276,0,0,1,.068.205l0,.033A4.921,4.921,0,0,1,33.2,8.78l-.694.4.448,2.562a3.253,3.253,0,0,0-2.474,3.023,10.086,10.086,0,0,0,.257,1.782,18.639,18.639,0,0,1,.38,2.645c0,2.663-3.675,4.424-6.786,4.325l-.081,0a7.856,7.856,0,0,1-2.6-.545.391.391,0,0,1-.144-.347M26.215,4.838a6.973,6.973,0,0,1,1.638-1.425A7.386,7.386,0,0,1,29.8,2.532a7.906,7.906,0,0,1,3.673-.085L29.448,4.929c-.5-.05-.995-.078-1.469-.078A11.693,11.693,0,0,0,26.093,5c.039-.055.081-.109.121-.16m61.363-.585h15.185A7.075,7.075,0,0,1,96.511,7.2H85.3a10.153,10.153,0,0,0,2.277-2.952m-.762,8.587H75.608a10.406,10.406,0,0,0,2.473-3.358H93.333a7.052,7.052,0,0,1-6.517,3.358M77.9,18.349H66.686A10.4,10.4,0,0,0,69.1,15.116H84.33A7.054,7.054,0,0,1,77.9,18.349M80.472,26.9a14,14,0,0,1,8.642,4.748c.466.55.917,1.135,1.359,1.766-5.97-.785-8.05-1.655-11.392-6.724.448.06.9.127,1.391.21m23.834,24.582c.22.352.407.684.59,1,.22.4.44.78.694,1.182-1.728-.11-3.038-1.067-4.248-2.879a2.591,2.591,0,0,1,2.963.694m-14.2,7.8,2.329-.878.033-.013c3.309-1.37,3.78-2.225,3.621-4.424v-8.89c2.518,6.39,4.9,10.881,9.774,10.881A9.765,9.765,0,0,0,108,55.709l1.9-.432-1.311-1.443a12.126,12.126,0,0,1-1.707-2.466c-.192-.339-.391-.689-.629-1.077A4.868,4.868,0,0,0,100.2,48.8c-1-1.981-2-4.564-3.21-7.753l-.264-.606c-.21-.474-.417-.956-.632-1.435v-.078h-.033a45,45,0,0,0-2.5-4.955,28.694,28.694,0,0,0-2.7-3.793,16.229,16.229,0,0,0-10.012-5.522,59.032,59.032,0,0,0-7.377-.692c-.523-.023-1.074-.052-1.663-.083-1.147-.062-3.523-.259-5.82-.448-1.549-.124-3.138-.254-4.386-.35a4.678,4.678,0,0,0,.132-1.091,6.325,6.325,0,0,0-.132-1.362H77.9a9.4,9.4,0,0,0,9.053-5.514,9.388,9.388,0,0,0,8.98-5.632h.583a9.437,9.437,0,0,0,9.24-5.9l.736-1.611H51.258A8.259,8.259,0,0,0,43.384,8l-.034.126a11.711,11.711,0,0,0-4.862-6.152A12.242,12.242,0,0,0,29.165.343a9.733,9.733,0,0,0-2.572,1.168,9.416,9.416,0,0,0-2.178,1.925,17.961,17.961,0,0,0-1.889,3.026,3.627,3.627,0,0,0-.736.79l-.66,1.241-.037.071a15.578,15.578,0,0,1-2.5,3.9,2.6,2.6,0,0,0-.683,2.23,2.912,2.912,0,0,0,.762,1.432l-.016.037a2.5,2.5,0,0,0-.337,1.254,2.675,2.675,0,0,0,2.828,2.559A5.5,5.5,0,0,0,24.185,18.8a8.264,8.264,0,0,1,1.8-1,.867.867,0,0,1,.834.831c0,1.194-1.541,1.839-2.645,1.917l-2.241.241c-1.616.15-2.383,1.008-2.383,1.772a1.946,1.946,0,0,0,.629,1.458l.166.168.57.508-2.381,3.832a8.857,8.857,0,0,0-5.44-2.578,3.842,3.842,0,0,0-2.844.99,3.391,3.391,0,0,0-.55.673H9.661a4.98,4.98,0,0,0-4.132,2.138c-.806,1.236-.515,3.373.508,5L.03,36.308v28.7H110.153V59.286H90.106Z" transform="translate(-0.031 -32.925)" fill="#fff"/>
    </g>
    <path id="Path_18" data-name="Path 18" d="M14.307,41.679l7.18,1.865V41.19l-7.18-1.864Z" transform="translate(-0.061 -0.168)" fill="#fff"/>
    <path id="Path_19" data-name="Path 19" d="M4.715,41.188v2.354l7.177-1.865V39.323Z" transform="translate(-0.02 -0.168)" fill="#fff"/>
    <path id="Path_20" data-name="Path 20" d="M4.715,45.939v2.355l7.177-1.863V44.077Z" transform="translate(-0.02 -0.188)" fill="#fff"/>
    <path id="Path_21" data-name="Path 21" d="M14.307,46.431l7.18,1.862V45.939l-7.18-1.863Z" transform="translate(-0.061 -0.188)" fill="#fff"/>
    <path id="Path_22" data-name="Path 22" d="M14.307,51.183l7.18,1.862V50.694l-7.18-1.868Z" transform="translate(-0.061 -0.209)" fill="#fff"/>
    <path id="Path_23" data-name="Path 23" d="M4.715,50.693v2.352l7.177-1.864V48.826Z" transform="translate(-0.02 -0.209)" fill="#fff"/>
    <g id="Group_5" data-name="Group 5" transform="translate(0 70.17)">
      <path id="Path_24" data-name="Path 24" d="M3.421,107.009H4.934v.585H0v-.585H1.6V96.127H0v-.585H4.934v.585H3.421v10.882Z" transform="translate(0 -70.579)" fill="#fff"/>
      <path id="Path_25" data-name="Path 25" d="M44.7,96.188l1.015-.754v3.541h-.327a3.97,3.97,0,0,0-.12-1.031,2.665,2.665,0,0,0-.327-.765,2.4,2.4,0,0,0-.464-.542,3.171,3.171,0,0,0-.534-.378,3.43,3.43,0,0,0-1.444-.4,2.71,2.71,0,0,0-1.445.324,2.324,2.324,0,0,0-.757.722,2.356,2.356,0,0,0-.344,1.049,1.222,1.222,0,0,0,.258.8,2.6,2.6,0,0,0,1.342.9l2.287.585a3.891,3.891,0,0,1,1.563.738,3.453,3.453,0,0,1,.842,1,2.825,2.825,0,0,1,.335.954,5.159,5.159,0,0,1,.061.61v.085a4.654,4.654,0,0,1-.258,1.661,3.814,3.814,0,0,1-.643,1.134,3.061,3.061,0,0,1-.861.714,4.691,4.691,0,0,1-.91.387,3.831,3.831,0,0,1-.775.153c-.224.019-.381.026-.472.026h-.07a5.062,5.062,0,0,1-.928-.12,4.562,4.562,0,0,1-.877-.3,3.308,3.308,0,0,1-.895-.592l-1.185.86v-4.4H39.1a7.11,7.11,0,0,0,.448,2.271,3.98,3.98,0,0,0,.43.68,2.775,2.775,0,0,0,.627.593,3.31,3.31,0,0,0,.877.422,3.872,3.872,0,0,0,1.177.162h.053c.067,0,.186-.005.352-.017a3.9,3.9,0,0,0,.576-.093,3.979,3.979,0,0,0,.679-.233,2.329,2.329,0,0,0,.644-.42,2.077,2.077,0,0,0,.481-.688,2.41,2.41,0,0,0,.19-1.006v-.034c0-.069-.012-.2-.034-.4a2.017,2.017,0,0,0-.216-.654,2.528,2.528,0,0,0-.533-.7,2.29,2.29,0,0,0-1-.507l-2.528-.584a3.254,3.254,0,0,1-1.135-.551,3.462,3.462,0,0,1-.791-.885,2.646,2.646,0,0,1-.361-1.452,3.541,3.541,0,0,1,1.16-2.709,3.568,3.568,0,0,1,1.127-.688,3.392,3.392,0,0,1,1.186-.231,3.84,3.84,0,0,1,.808.084,6.3,6.3,0,0,1,.722.232,1.942,1.942,0,0,1,.67.438Z" transform="translate(-0.166 -70.578)" fill="#fff"/>
      <path id="Path_26" data-name="Path 26" d="M108.661,96.188l1.015-.754v3.541h-.327a3.952,3.952,0,0,0-.12-1.031,2.611,2.611,0,0,0-.327-.765,2.458,2.458,0,0,0-.462-.542,3.264,3.264,0,0,0-.535-.378,3.43,3.43,0,0,0-1.444-.4,2.7,2.7,0,0,0-1.443.324,2.2,2.2,0,0,0-1.1,1.771,1.228,1.228,0,0,0,.257.8,2.592,2.592,0,0,0,1.342.9l2.285.585a3.912,3.912,0,0,1,1.566.738,3.506,3.506,0,0,1,.841,1,2.914,2.914,0,0,1,.335.954,4.908,4.908,0,0,1,.061.61v.085a4.653,4.653,0,0,1-.259,1.661,3.827,3.827,0,0,1-.642,1.134,3.072,3.072,0,0,1-.863.714,4.585,4.585,0,0,1-.91.387,3.816,3.816,0,0,1-.774.153c-.223.019-.38.026-.474.026h-.065a5.064,5.064,0,0,1-.931-.12,4.556,4.556,0,0,1-.876-.3,3.3,3.3,0,0,1-.894-.592l-1.186.86v-4.4h.325a7.112,7.112,0,0,0,.448,2.271,4.049,4.049,0,0,0,.43.68,2.783,2.783,0,0,0,.629.593,3.28,3.28,0,0,0,.875.422,3.888,3.888,0,0,0,1.179.162h.05c.069,0,.185-.005.352-.017a3.87,3.87,0,0,0,.576-.093,3.957,3.957,0,0,0,.677-.233,2.343,2.343,0,0,0,.646-.42,2.026,2.026,0,0,0,.482-.688,2.478,2.478,0,0,0,.19-1.006v-.034a3.679,3.679,0,0,0-.037-.4,2.023,2.023,0,0,0-.215-.654,2.516,2.516,0,0,0-.534-.7,2.279,2.279,0,0,0-1-.507l-2.527-.584a3.272,3.272,0,0,1-1.136-.551,3.414,3.414,0,0,1-.79-.885,2.645,2.645,0,0,1-.361-1.452,3.541,3.541,0,0,1,1.16-2.709,3.563,3.563,0,0,1,1.127-.688,3.383,3.383,0,0,1,1.186-.231,3.826,3.826,0,0,1,.808.084,6.364,6.364,0,0,1,.722.232,1.936,1.936,0,0,1,.67.438Z" transform="translate(-0.439 -70.578)" fill="#fff"/>
      <path id="Path_27" data-name="Path 27" d="M56.358,95.567V99.81h-.344a6.188,6.188,0,0,0-.292-2.148,3.215,3.215,0,0,0-.636-1.1,1.5,1.5,0,0,0-.928-.464H52.834v10.953h1.495v.584H49.377v-.584h1.515V96.1h-1.6a1.586,1.586,0,0,0-.962.464,3.146,3.146,0,0,0-.67,1.1,5.857,5.857,0,0,0-.31,2.148h-.258V95.567h9.267Z" transform="translate(-0.201 -70.579)" fill="#fff"/>
      <path id="Path_28" data-name="Path 28" d="M101.947,95.54v4.24H101.6a6.211,6.211,0,0,0-.293-2.147,3.211,3.211,0,0,0-.635-1.1,1.5,1.5,0,0,0-.929-.464H98.423V107.02h1.5v.584H94.966v-.584h1.515V96.068h-1.6a1.581,1.581,0,0,0-.962.464,3.153,3.153,0,0,0-.671,1.1,5.856,5.856,0,0,0-.31,2.147h-.257V95.54h9.266Z" transform="translate(-0.396 -70.579)" fill="#fff"/>
      <path id="Path_29" data-name="Path 29" d="M68.982,107.035h1.495v.56H65.56v-.56h1.582V96.815L63.29,107.6h-.584L59.37,96.728v9.612a.606.606,0,0,0,.182.36.91.91,0,0,0,.344.207,1.487,1.487,0,0,0,.386.086c.125.01.229.017.31.017h.12v.585H57.446v-.585h.1c.067,0,.161-.007.282-.017a1.283,1.283,0,0,0,.361-.086,1.232,1.232,0,0,0,.353-.207.719.719,0,0,0,.239-.36V96.728a.385.385,0,0,0-.222-.318,1.843,1.843,0,0,0-.464-.172,3.063,3.063,0,0,0-.516-.078c-.172-.01-.309-.019-.415-.019h-.136V95.56h3.835l2.854,9.282L66.97,95.56h3.507v.582H68.982v10.892Z" transform="translate(-0.244 -70.579)" fill="#fff"/>
      <path id="Path_30" data-name="Path 30" d="M32.04,101.083l.007-4.956c3.107,0,4.247-.157,4.788,3.654h.328V95.54H28.7v.587h1.466v10.908H28.553v.558h8.72v-4.441h-.439c-.434,3.372-1.287,3.885-3.684,3.885H32.04v-5.3h.644c1.074.026,1.686.654,1.906,2.5h.394l0-5.481c-.007.01-.39,0-.39,0,0,.028-.075,2.357-1.956,2.324h-.6Z" transform="translate(-0.122 -70.579)" fill="#fff"/>
      <path id="Path_31" data-name="Path 31" d="M74.716,101.083l.007-4.956c3.107,0,4.248-.157,4.789,3.654h.328V95.54H71.377v.587h1.466v10.908H71.229v.558h8.72v-4.441h-.438c-.436,3.372-1.288,3.885-3.685,3.885h-1.11v-5.3h.644c1.074.026,1.686.654,1.906,2.5h.394l0-5.481c-.008.01-.39,0-.39,0,0,.028-.076,2.357-1.956,2.324h-.6Z" transform="translate(-0.304 -70.579)" fill="#fff"/>
      <path id="Path_32" data-name="Path 32" d="M91.893,96.144v-.577H87.76v.577h.322c.432,0,1.462.033,1.521.938h0v6.93l-5.746-8.445H80.726v.577h.521c.615,0,1.48.028,1.519.938v8.878c0,.866-1.294,1.2-1.838,1.2h-.007v.431h4.234v-.431c-.542,0-1.848-.33-1.848-1.2l.016-7.815c2.275,3.251,6.57,9.447,6.608,9.442h.215v-10.5c.061-.905,1.089-.938,1.521-.938h.226Z" transform="translate(-0.345 -70.579)" fill="#fff"/>
      <path id="Path_33" data-name="Path 33" d="M16.814,96.12v-.579H12.671v.579h.323c.434,0,1.464.033,1.525.941h0v6.945l-5.76-8.465H5.618v.579h.521c.618,0,1.486.028,1.525.941v8.9c0,.867-1.3,1.2-1.844,1.2H5.813v.432h4.246v-.432c-.543,0-1.852-.331-1.852-1.2l.016-7.835c2.28,3.258,6.586,9.471,6.625,9.466h.215V97.062c.061-.908,1.091-.941,1.524-.941h.227Z" transform="translate(-0.024 -70.579)" fill="#fff"/>
      <path id="Path_34" data-name="Path 34" d="M24.518,95.54v.58h1.5l-2.436,8.473L20.876,96.12h1.587v-.58H17.487v.569h.381v.011h1.157l3.609,11.514h.432L26.433,96.12h1.539v-.58Z" transform="translate(-0.075 -70.579)" fill="#fff"/>
      <g id="Group_4" data-name="Group 4">
        <path id="Path_35" data-name="Path 35" d="M20.992,79.457,21,71.879c4.75,0,6.493-.24,7.321,5.585h.5V70.981l-12.938.006v.892h2.24v16.68H15.66v.879H28.994V82.622h-.67c-.664,5.154-1.969,5.939-5.635,5.939h-1.7v-8.1h.985c1.644.039,2.58,1,2.914,3.828H25.5l0-8.378c-.012.014-.6,0-.6,0,0,.042-.117,3.6-2.992,3.551h-.912Z" transform="translate(-0.067 -70.474)" fill="#fff"/>
        <path id="Path_36" data-name="Path 36" d="M15.638,79.789h-7.3v.828h2.5v6c-.422,1.523-2.666,2.159-3.335,2.159-4.663,0-4.329-6.822-4.329-8.647,0-1.67-.167-8.652,4.329-8.652,3.168,0,4.834,3.154,5.5,5.987h.506c0-1.167.019-6.72.007-6.706.012-.044-2.171,1.565-2.179,1.541.048-.01-1-1.492-3.836-1.492C2,70.805-.017,76.3,0,80.128c.025,3.5,1.641,9.477,7.5,9.477a4.478,4.478,0,0,0,3.836-2c.008-.023,2.324,1.827,2.332,1.835v-8.82h1.967v-.828Z" transform="translate(0 -70.473)" fill="#fff"/>
        <path id="Path_37" data-name="Path 37" d="M101.193,82.62c-.663,5.154-1.971,5.926-5.635,5.926h-.223V71.868h2.332v-.9H90v.9h2.332V88.546H90.48L83.67,70.471h-1c.022-.01-5.66,16.4-5.67,16.447.01-.049-.43,1.409-1.363,1.589-.862.042-.8-.409-.8-.567v-3.16c0-.83-.063-2.714-.926-3.579a4.919,4.919,0,0,0-2.58-1.081s4.188-.865,4.188-4.847c0-2.791-1.939-4.177-5.183-4.3H61.129v.9h2.356V88.55H61.129v.885H68.68V88.55H66.325V80.53h3.141c5.449.449-.935,8.913,6.2,8.905h4.5v-.89c-.25,0-1.9.047-2-1.1a17.533,17.533,0,0,1,1.085-3.814h6.127c0-.012,1.906,4.919,1.923,4.919H85.168v.885h16.693V82.619h-.668ZM69.333,79.6H66.339v-7.73h3.828c2.249.34,2.339,2.938,2.339,3.763,0,2-.835,3.967-3.174,3.967ZM79.67,82.779,82.331,74.8l2.836,7.975h-5.5Z" transform="translate(-0.261 -70.471)" fill="#fff"/>
        <path id="Path_38" data-name="Path 38" d="M51.918,71.868c4.752,0,6.506-.228,7.334,5.6h.5V70.981H40.889v.887h.493c.666,0,2.246.049,2.337,1.44h0V83.948L34.893,70.981H30.087v.887h.8c.946,0,2.276.042,2.336,1.44V86.94c0,1.331-1.992,1.836-2.824,1.836h-.009v.662h6.5v-.662c-.832,0-2.836-.5-2.836-1.836l.022-12c3.495,4.992,10.087,14.508,10.147,14.5h.331V73.308c.091-1.391,1.67-1.44,2.336-1.44h2.167V88.559h-2.47v.879H59.921V82.622h-.669c-.664,5.154-1.969,5.939-5.636,5.939h-1.7v-8.1H52.9c1.645.039,2.58,1,2.914,3.828h.606l-.005-8.378c-.01.014-.6,0-.6,0,0,.042-.117,3.6-2.993,3.551h-.912V71.868Z" transform="translate(-0.129 -70.474)" fill="#fff"/>
        <path id="Path_39" data-name="Path 39" d="M110.425,71.869v-.9H102.9v.9h2.363l.009,16.669H102.9v.9h7.527v-.9h-2.364V71.869Z" transform="translate(-0.44 -70.474)" fill="#fff"/>
      </g>
    </g>
  </g>
</svg>
