<?xml version="1.0" encoding="UTF-8"?><svg id="Vrstva_2" xmlns="http://www.w3.org/2000/svg" viewBox="0 0 457.38 96.36"><defs><style>.cls-1{fill:#fff;}</style></defs><g id="Layer_1"><g><g><path class="cls-1" d="M188.88,94.6h3.81v1.47h-12.41v-1.47h4.02v-27.37h-4.02v-1.47h12.41v1.47h-3.81v27.37Z"/><path class="cls-1" d="M292.3,67.38l2.55-1.9v8.91h-.82c0-.98-.1-1.84-.3-2.59-.2-.75-.48-1.39-.82-1.92-.34-.54-.73-.99-1.17-1.36-.43-.38-.88-.69-1.34-.95-1.06-.58-2.27-.91-3.63-.99-1.56,0-2.77,.27-3.63,.82-.87,.55-1.5,1.16-1.9,1.82-.49,.78-.78,1.66-.87,2.64,0,.81,.21,1.48,.65,2.01,.43,.53,.9,.97,1.38,1.32,.58,.4,1.24,.72,1.99,.95l5.75,1.47c1.67,.43,2.98,1.05,3.93,1.86,.96,.81,1.66,1.64,2.12,2.51,.46,.87,.75,1.67,.84,2.4,.1,.73,.15,1.24,.15,1.54v.21c0,1.64-.21,3.04-.65,4.18-.43,1.14-.97,2.09-1.62,2.85-.65,.76-1.37,1.36-2.16,1.8-.79,.43-1.56,.76-2.29,.97-.74,.21-1.39,.34-1.95,.38-.56,.05-.96,.07-1.19,.07h-.18c-.78-.03-1.55-.13-2.33-.3-.66-.15-1.4-.4-2.21-.76-.81-.36-1.56-.86-2.25-1.49l-2.98,2.16v-11.08h.82c.1,1.9,.5,4.42,1.13,5.71,.29,.58,.65,1.15,1.08,1.71,.43,.56,.95,1.06,1.58,1.49,.62,.43,1.36,.79,2.21,1.06,.85,.27,1.84,.41,2.96,.41h.13c.17,0,.47-.01,.88-.04,.42-.03,.9-.11,1.45-.24,.55-.13,1.12-.33,1.71-.59,.59-.26,1.13-.61,1.62-1.06,.49-.45,.89-1.02,1.21-1.73,.32-.71,.48-1.55,.48-2.53v-.09c0-.17-.03-.51-.09-1-.06-.49-.24-1.04-.54-1.64-.3-.6-.75-1.19-1.34-1.75-.59-.56-1.44-.99-2.53-1.28l-6.36-1.47c-1.06-.29-2.02-.75-2.85-1.39-.72-.55-1.38-1.29-1.99-2.23-.6-.94-.91-2.16-.91-3.65s.28-2.82,.82-3.96c.55-1.14,1.25-2.09,2.1-2.85,.85-.76,1.8-1.34,2.83-1.73,1.04-.39,2.04-.58,2.98-.58,.69,0,1.37,.07,2.03,.21,.58,.15,1.18,.34,1.82,.58,.63,.25,1.2,.62,1.68,1.1Z"/><path class="cls-1" d="M452.5,67.38l2.55-1.9v8.91h-.82c0-.98-.1-1.84-.3-2.59-.2-.75-.48-1.39-.82-1.92-.34-.54-.74-.99-1.16-1.36-.44-.38-.88-.69-1.35-.95-1.06-.58-2.27-.91-3.63-.99-1.56,0-2.77,.27-3.63,.82-.87,.55-1.5,1.16-1.91,1.82-.49,.78-.78,1.66-.86,2.64,0,.81,.21,1.48,.65,2.01,.43,.53,.89,.97,1.38,1.32,.58,.4,1.24,.72,1.99,.95l5.75,1.47c1.67,.43,2.98,1.05,3.94,1.86,.95,.81,1.65,1.64,2.12,2.51,.46,.87,.74,1.67,.84,2.4,.11,.73,.15,1.24,.15,1.54v.21c0,1.64-.21,3.04-.65,4.18-.43,1.14-.97,2.09-1.61,2.85-.65,.76-1.38,1.36-2.17,1.8-.79,.43-1.55,.76-2.29,.97-.73,.21-1.39,.34-1.95,.38-.56,.05-.96,.07-1.19,.07h-.16c-.79-.03-1.56-.13-2.34-.3-.66-.15-1.4-.4-2.2-.76-.81-.36-1.56-.86-2.25-1.49l-2.98,2.16v-11.08h.82c.1,1.9,.5,4.42,1.13,5.71,.29,.58,.65,1.15,1.08,1.71,.43,.56,.96,1.06,1.58,1.49,.62,.43,1.35,.79,2.2,1.06,.85,.27,1.84,.41,2.97,.41h.13c.17,0,.46-.01,.89-.04,.42-.03,.9-.11,1.45-.24,.54-.13,1.12-.33,1.7-.59,.59-.26,1.13-.61,1.62-1.06,.49-.45,.9-1.02,1.21-1.73,.31-.71,.48-1.55,.48-2.53v-.09c0-.17-.03-.51-.09-1-.06-.49-.24-1.04-.54-1.64-.3-.6-.75-1.19-1.34-1.75-.59-.56-1.43-.99-2.53-1.28l-6.36-1.47c-1.07-.29-2.02-.75-2.86-1.39-.72-.55-1.39-1.29-1.99-2.23-.6-.94-.91-2.16-.91-3.65s.28-2.82,.82-3.96c.54-1.14,1.25-2.09,2.1-2.85,.85-.76,1.8-1.34,2.83-1.73,1.04-.39,2.03-.58,2.98-.58,.69,0,1.37,.07,2.03,.21,.57,.15,1.18,.34,1.82,.58,.63,.25,1.2,.62,1.68,1.1Z"/><path class="cls-1" d="M321.53,65.82v10.67h-.87c0-2.33-.25-4.14-.74-5.4-.49-1.27-1.03-2.2-1.6-2.77-.7-.69-1.47-1.08-2.33-1.17h-3.33v27.55h3.76v1.47h-12.46v-1.47h3.81v-27.55h-4.03c-.89,.09-1.7,.47-2.42,1.17-.61,.58-1.17,1.5-1.68,2.77-.52,1.26-.78,3.07-.78,5.4h-.65v-10.67h23.31Z"/><path class="cls-1" d="M435.72,65.75v10.67h-.86c0-2.33-.25-4.13-.74-5.4-.49-1.27-1.02-2.19-1.6-2.77-.69-.69-1.47-1.08-2.34-1.17h-3.33v27.55h3.77v1.47h-12.46v-1.47h3.81v-27.55h-4.02c-.9,.09-1.7,.47-2.42,1.17-.61,.58-1.17,1.5-1.69,2.77-.52,1.27-.78,3.07-.78,5.4h-.65v-10.67h23.31Z"/><path class="cls-1" d="M353.18,94.67h3.76v1.41h-12.37v-1.41h3.98v-25.71l-9.69,27.12h-1.47l-8.39-27.34v24.18c.06,.37,.21,.68,.46,.91,.25,.24,.53,.41,.87,.52,.33,.12,.65,.19,.97,.22,.31,.03,.58,.04,.78,.04h.3v1.47h-8.22v-1.47h.26c.17,0,.4-.02,.71-.04,.3-.03,.6-.1,.91-.22,.31-.11,.6-.29,.89-.52,.29-.23,.49-.53,.6-.91v-24.18c-.03-.34-.21-.61-.56-.8-.35-.19-.74-.33-1.17-.43-.43-.1-.87-.17-1.3-.2-.43-.03-.78-.05-1.04-.05h-.34v-1.46h9.65l7.18,23.35,8.17-23.35h8.82v1.46h-3.76v27.4Z"/><path class="cls-1" d="M260.56,79.7l.02-12.47c7.82,0,10.68-.39,12.04,9.19h.83v-10.67h-21.28v1.48h3.69v27.44h-4.06v1.4h21.93v-11.17h-1.1c-1.09,8.48-3.24,9.77-9.27,9.77h-2.79v-13.33h1.62c2.7,.07,4.24,1.64,4.79,6.3h.99v-13.79s-.99,0-.99,0c0,.07-.19,5.93-4.92,5.85h-1.5Z"/><path class="cls-1" d="M367.45,79.7l.02-12.47c7.82,0,10.69-.39,12.05,9.19h.83v-10.67h-21.29v1.48h3.69v27.44h-4.06v1.4h21.93v-11.17h-1.1c-1.1,8.48-3.24,9.77-9.27,9.77h-2.79v-13.33h1.62c2.7,.07,4.24,1.64,4.79,6.3h.99v-13.79s-.99,0-.99,0c0,.07-.19,5.93-4.92,5.85h-1.5Z"/><path class="cls-1" d="M410.55,67.27v-1.45h-10.4v1.45h.81c1.09,0,3.68,.08,3.83,2.36h0v17.43l-14.45-21.24h-7.87v1.45h1.31c1.55,0,3.72,.07,3.82,2.36v22.33c0,2.18-3.26,3.01-4.62,3.01h-.02v1.08h10.65v-1.08c-1.36,0-4.65-.83-4.65-3.01l.04-19.66c5.72,8.18,16.53,23.76,16.62,23.75h.54v-26.42c.15-2.28,2.74-2.36,3.83-2.36h.57Z"/><path class="cls-1" d="M222.5,67.21v-1.46h-10.42v1.46h.81c1.09,0,3.68,.08,3.84,2.37h0v17.47l-14.49-21.29h-7.89v1.46h1.31c1.55,0,3.74,.07,3.84,2.37v22.39c0,2.18-3.27,3.01-4.64,3.01h-.02v1.09h10.68v-1.09c-1.37,0-4.66-.83-4.66-3.01l.04-19.71c5.74,8.2,16.57,23.82,16.67,23.81h.54v-26.49c.15-2.28,2.75-2.37,3.83-2.37h.57Z"/><polygon class="cls-1" points="241.76 65.75 241.76 66.32 241.76 67.18 241.76 67.21 245.54 67.21 239.41 88.53 232.59 67.21 236.59 67.21 236.59 67.18 236.59 66.32 236.59 65.75 224.07 65.75 224.07 67.18 225.03 67.18 225.03 67.21 227.94 67.21 237.02 96.17 238.11 96.17 246.57 67.21 250.45 67.21 250.45 67.18 250.45 66.32 250.45 65.75 241.76 65.75"/><g><path class="cls-1" d="M232.91,25.56l.03-19.06c11.95,0,16.33-.6,18.41,14.05h1.26V4.24l-32.54,.02v2.24h5.63V48.46h-6.21v2.21h33.54v-17.15h-1.68c-1.67,12.96-4.95,14.94-14.17,14.94h-4.27V28.08h2.48c4.13,.1,6.49,2.52,7.33,9.63h1.52V16.63s-1.51,0-1.51,0c0,.1-.29,9.06-7.53,8.93h-2.29Z"/><path class="cls-1" d="M219.61,26.4h-18.36v2.08h6.29v15.09c-1.06,3.83-6.71,5.43-8.39,5.43-11.73,0-10.89-17.16-10.89-21.75,0-4.2-.42-21.76,10.89-21.76,7.97,0,12.16,7.93,13.84,15.06h1.27c0-2.93,.05-16.9,.02-16.87,.03-.11-5.46,3.94-5.48,3.88,.12-.03-2.51-3.75-9.65-3.75-13.84,0-18.92,13.81-18.87,23.45,.06,8.82,4.13,23.84,18.87,23.84,4.64,0,7.9-2.36,9.65-5.04,.02-.06,5.84,4.6,5.87,4.62V28.48h4.95v-2.08Z"/><path class="cls-1" d="M434.16,33.52c-1.67,12.96-4.96,14.91-14.17,14.91h-.56V6.48h5.87v-2.26h-19.29v2.26h5.87V48.43h-4.66L390.08,2.96h-2.52c.06-.03-14.24,41.25-14.26,41.37,.03-.12-1.08,3.54-3.43,4-2.17,.11-2.01-1.03-2.01-1.43v-7.95c0-2.09-.16-6.83-2.33-9-2.43-2.45-6.58-2.63-6.49-2.72,0,0,10.53-2.18,10.53-12.19,0-7.02-4.88-10.51-13.04-10.82h-23.16v2.26h5.93V48.44h-5.93v2.23h19v-2.23h-5.92V28.27s7.48,0,7.9,0c13.71,1.13-2.35,22.42,15.61,22.4h11.32v-2.24c-.63,0-4.78,.12-5.03-2.77-.17-2.09,2.73-9.59,2.73-9.59h15.41s4.79,12.37,4.84,12.37h-5.37v2.23h41.99v-17.15h-1.68Zm-80.14-7.61h-7.53V6.47h9.63c5.66,.86,5.88,7.39,5.88,9.47,0,5.03-2.1,9.98-7.98,9.98Zm26,8.01l6.7-20.06,7.13,20.06h-13.83Z"/><path class="cls-1" d="M310.54,6.47c11.95,0,16.37-.57,18.45,14.08h1.26V4.24h-47.45v2.23h1.24c1.67,0,5.65,.12,5.88,3.62h0v26.77l-22.2-32.62h-12.09v2.23h2.01c2.38,0,5.73,.1,5.87,3.62V44.38c0,3.35-5.01,4.62-7.1,4.62h-.02v1.67h16.35v-1.67c-2.09,0-7.13-1.27-7.13-4.62l.06-30.19c8.79,12.56,25.37,36.49,25.52,36.47h.83V10.09c.23-3.5,4.2-3.62,5.88-3.62h5.45V48.46h-6.21v2.21h33.54v-17.15h-1.68c-1.67,12.96-4.95,14.94-14.18,14.94h-4.27V28.08h2.48c4.14,.1,6.49,2.52,7.33,9.63h1.53V16.63s-1.51,0-1.51,0c0,.1-.29,9.06-7.53,8.93h-2.29V6.47Z"/><polygon class="cls-1" points="456.93 6.47 456.93 4.21 438 4.21 438 6.47 443.94 6.47 443.96 48.4 438 48.4 438 50.67 456.93 50.67 456.93 48.4 450.98 48.4 450.98 6.47 456.93 6.47"/></g></g><g><path class="cls-1" d="M133.51,87.88l3.46-1.3,.05-.02c4.9-2.03,5.6-3.3,5.37-6.56v-13.18c3.73,9.47,7.26,16.13,14.49,16.13,.99,0,2.03-.12,3.16-.38l2.82-.64-1.94-2.14c-1.24-1.37-1.84-2.43-2.53-3.65-.29-.5-.58-1.02-.93-1.6-1.69-2.75-5.72-3.68-8.98-2.22-1.48-2.94-2.96-6.76-4.76-11.49l-.39-.9c-.31-.71-.62-1.42-.94-2.13v-.12h-.05c-1.11-2.49-2.29-5-3.71-7.34-1.29-2.13-2.6-3.97-4-5.62-3.77-4.43-8.76-7.18-14.84-8.18-4.2-.7-7.17-.84-10.94-1.03-.78-.04-1.6-.08-2.46-.12-1.71-.09-5.23-.38-8.63-.66-2.29-.19-4.65-.38-6.5-.52,.12-.52,.2-1.06,.2-1.62,0-.75-.07-1.43-.2-2.02h24.16c6.23,0,10.74-2.75,13.42-8.17,6.2-.06,10.67-2.86,13.32-8.34h.86c6.45,0,11.06-2.94,13.7-8.74l1.09-2.39H75.94c-5.38,0-9.96,3.51-11.67,8.94l-.05,.19c-1.39-3.88-3.94-7.17-7.2-9.12C52.47,.23,47.3-.67,43.19,.51c-1.36,.39-2.71,1.01-3.81,1.73-.95,.62-2.27,1.62-3.23,2.85-1.05,1.34-2.06,2.96-2.8,4.48-.47,.39-.83,.79-1.09,1.17l-.98,1.84-.05,.11c-1.17,2.65-2.6,4.48-3.71,5.78-1.1,1.29-1.16,2.51-1.01,3.3,.16,.88,.63,1.59,1.13,2.13l-.03,.05c-.33,.56-.5,1.21-.5,1.86,0,2.16,1.88,3.79,4.19,3.79,1.68,0,3.05-.78,4.5-1.75,.59-.39,2.16-1.43,2.67-1.49,.65,0,1.24,.59,1.24,1.23,0,1.77-2.28,2.73-3.92,2.84l-3.33,.36c-2.39,.22-3.53,1.49-3.53,2.62s.54,1.78,.92,2.16l.25,.25,.85,.75-3.53,5.68c-2.51-2.33-5.45-3.74-8.06-3.82-1.69-.05-3.14,.45-4.21,1.47-.31,.29-.59,.63-.82,1h-.06c-2.79,0-5.03,1.49-6.13,3.16-1.2,1.83-.76,5,.75,7.42L0,53.82v42.54H163.23v-8.48h-29.72Zm21.05-11.57c.32,.53,.6,1.02,.87,1.49,.33,.58,.65,1.15,1.03,1.74-2.56-.16-4.5-1.58-6.3-4.26,1.66-.58,3.66-.17,4.4,1.03Zm-35.33-36.44c5.26,.87,9.57,3.24,12.81,7.04,.7,.81,1.36,1.68,2.02,2.62-8.85-1.16-11.94-2.45-16.89-9.97,.66,.09,1.34,.19,2.06,.31Zm-3.82-12.68h-16.62c1.42-1.25,2.62-2.85,3.58-4.79h22.57c-2.12,3.25-5.2,4.79-9.54,4.79Zm13.23-8.17h-16.62c1.47-1.29,2.69-2.95,3.67-4.98h22.6c-2.12,3.38-5.24,4.98-9.66,4.98Zm1.13-12.73h22.5c-2.11,2.98-5.11,4.38-9.26,4.38h-16.62c1.32-1.16,2.45-2.62,3.37-4.38Zm-90.96,.87c.53-.68,1.39-1.43,2.43-2.11,.81-.53,1.86-1.01,2.89-1.3,1.63-.47,3.51-.5,5.45-.13l-5.97,3.68c-.74-.08-1.47-.11-2.18-.11-1.01,0-1.94,.08-2.8,.22,.06-.08,.12-.16,.18-.24Zm-6.97,26.36c.05-.23,.24-.42,.44-.41l2.91,.09c3.55-.12,7.16-1.59,7.56-5.28,0-2.5-1.78-4.93-4.28-4.93-1.34,0-2.85,.93-4.54,2.05-1.1,.73-1.97,1.31-2.63,1.31-.45,0-.81-.3-.81-.54,0-.04,0-.08,.02-.12l1.86-2.49-1.61-1.08c-.34-.23-.87-.65-.93-.96-.03-.15,.19-.41,.26-.49,.66-.78,1.43-1.72,2.2-2.89,.48-.66,.75-1.03,1.55-1.03s1.43,.63,1.43,1.4c0,.51,.56,.91,1.26,.91s1.01-.49,1.44-.91c0,0,1.66-1.52,.78-2.24-1-.82-5.01,.85-3.9-2.83l.28-.52c.43-.57,2.35-1.99,6.31-1.99,.75,0,1.54,.05,2.35,.16l.6,.07,8.42-5.19c.07,.18,.1,.3,.1,.3h0v.05c.45,2.55-1.16,5.58-3.73,7.05l-1.03,.59,.66,3.8c-2.16,.66-3.67,2.39-3.67,4.48,0,.71,.16,1.57,.38,2.64,.24,1.19,.5,2.55,.57,3.92,0,3.95-5.45,6.57-10.06,6.41h-.12c-.19,0-3.13-.24-3.85-.81-.14-.1-.25-.34-.21-.51Zm-20.86,12.4c.66-1.01,2.19-1.89,4.09-1.56l1.44,.25,.45-1.39c.12-.37,.29-.65,.51-.86,.41-.38,1.01-.56,1.78-.54,2.04,.06,4.59,1.48,6.66,3.71,.75,.81,1.42,1.74,2.02,2.69,.12,.2,.25,.41,.37,.6,.17,.27,.3,.48,.34,.53,.07,.13,1.1,1.67,1.03,1.76,.7-.98,1.4-1.96,2.1-2.94,.02-.03-.01-.12-.07-.24-.16-.34-.53-.92-.75-1.27-.05-.08-.11-.17-.16-.25,0,0,0-.02-.01-.02-.02-.04-.11-.18-.24-.38-.23-.36-.56-.89-.71-1.18l4.41-7.05c1.1,.23,2.04,.27,2.48,.27h.11c6.21,0,12.65-3.59,12.65-9.59v-.15c-.08-1.63-.38-3.19-.63-4.44-.16-.83-.31-1.61-.31-2,0-.66,.92-1.39,2.25-1.39h2.01l-.91-5.21c2.83-2.08,4.57-5.47,4.48-8.71,3.05,2.34,5.19,6.39,5.59,10.7,.12,1.25-.13,3-.54,4.85l-.22,.77h.04c-.72,3.01-1.78,6.11-2.34,7.58l-.52,1.36,1.27,.71c2.27,1.29,3.66,2.23,3.66,5.21,0,3.43-3.08,6.05-6.06,6.61l-4.07,.76,3.45,2.3c1.11,.74,1.76,1.94,1.76,3.21,0,2.15-1.83,3.9-4.08,3.9h-1.3l-.36,1.19c-1.27,4.12-2.64,6.13-7.06,6.56,.2-1.25,.35-2.46,.35-4.16,0-.4-.04-1.52-.05-1.88l-.2-3.84-2.7,2.74c-.92,.93-2.54,1.67-4.32,2.02v-3.35l-19.32-5.01-6.87,1.79c-1.53-1.53-1.84-4.07-1.46-4.66Zm-5.56,41.95l13.89-3.61,13.88,3.61H5.43Zm29.82-2.96l-15.93-4.15-15.93,4.15v-28.49l15.93-4.14,15.93,4.14v28.49Zm7.41-5.54c-1.44,2.07-1.61,4.92-.53,8.5h-3.49v-27.29c1.25-.19,2.6-.55,3.85-1.12-.07,1.19-.24,2.13-.46,3.39-.05,.29-.1,.6-.16,.92l-.33,1.97h2c2.99,0,5.23-.47,6.94-1.35v11.39c0,.29-.23,.53-.5,.53h-.51c-2.97,0-5.45,1.12-6.8,3.07Zm36.71,.73c-1.23,1.4-2.42,3.85-1.64,7.76h-20.69c2.22-.21,3.84-.74,4.95-1.9,1.35-1.41,1.48-3.34,1.43-4.71,.05-.12,.27-.58,1.28-1.04l1.78-.81-1.07-1.64c-1.77-2.72-1-8.65-.32-11.88h.16c7.02,0,11.55-1.46,16.34-3,1.25-.4,2.54-.81,3.9-1.21h.04s1.42-.47,3.33-.91l6.74,11.12,.06,.09c.67,.96,.75,1.59-.47,3.02l-3.38,3.64-5.54-1.03h-.05c-2.5-.39-5.2,.59-6.87,2.5Zm1.82,7.76c-.61-2.39-.36-4.3,.73-5.54,1.04-1.19,2.64-1.56,3.78-1.39l6.42,1.19,.16,.03h.89l4.54-4.89,.04-.05c.77-.9,3.13-3.64,.73-7.13l-6.07-10c1-.14,2.01-.24,2.94-.24h.04s3.08-.04,6.33,1.85c.44,.95,1.05,2.19,1.74,3.58,1.27,2.58,2.86,5.8,3.31,7.1,.14,.4,.57,1.65-.96,3.22l-11.63,12.27h-13Zm39.63,0h-21.98l9.42-9.94c1.9-1.96,2.51-4.33,1.7-6.65-.45-1.34-1.7-3.91-2.99-6.53,3.74,1.73,9.41,3.29,20.94,4.23,1.39,.11,1.75,.59,2.03,1.85l.5,4.98-6.03,1.34c-2.02,.4-3.6,1.73-4.35,3.65-.82,2.12-.54,4.62,.75,7.07Zm2.4-5.84c.33-.85,.98-1.4,1.87-1.57l9.02-2.01-.82-8.05-.03-.17c-.22-1.06-.89-4.27-5.09-4.61-16.13-1.3-19.87-3.69-23.79-6.23,0-.01-.01-.02-.01-.03h-.02s-.25-.15-.25-.15c-4.19-2.71-8.35-2.73-8.76-2.72-4.57,0-10.35,1.81-10.82,1.96-1.4,.41-2.7,.83-3.97,1.23-5.05,1.63-9.41,3.03-16.74,2.81l-1.34-.04-.34,1.29c-.26,1-2.32,9.1-.34,14.3-1.77,1.4-1.77,3.02-1.76,3.23,.07,1.78-.35,2.22-.49,2.36-.85,.88-3.66,.99-6.02,.99h-.89l-.51,.7c-1.46,2-4.61,2.48-6.63,1.96-.89-2.7-.91-4.76-.06-6,1.01-1.45,3.15-1.61,4.03-1.61h.51c2.14,0,3.88-1.75,3.88-3.91v-14.5c.65-1.01,1.17-2.17,1.63-3.48,3.54-.57,6.25-3.57,6.25-7.18,0-1.39-.41-2.73-1.15-3.87,3.27-1.58,6.07-4.79,6.07-9.01s-2.12-6.15-4.14-7.42c.57-1.62,1.5-4.47,2.14-7.34l2.83-10.14c1.27-3.98,4.58-6.55,8.44-6.55h49.88c-2.11,2.97-5.11,4.38-9.26,4.38h-30.19l-1.58,3.38h27.05c-2.12,3.38-5.23,4.98-9.65,4.98h-19.62l-1.58,3.38h17.51c-2.12,3.25-5.2,4.79-9.54,4.79h-10.69l-1.58,3.38h11.21c.1,.14,.38,.65,.38,2.02,0,2.17-1.82,3.93-4.07,3.93-.77,0-1.43-.17-2.58-.65-.49-.21-.99-.42-1.49-.63l-2.6,2.34c.49,.21,.98,.41,1.46,.62h0c2.25,.98,3.51,1.49,5.21,1.49,2.06,0,3.92-.86,5.24-2.22,1.92,.12,5.02,.38,8.02,.62,3.59,.3,6.97,.58,8.72,.67,.88,.05,1.7,.09,2.48,.13,1.49,.07,2.85,.14,4.21,.24,6.81,11.06,10.3,12.51,23.49,14.09,.95,1.7,1.81,3.5,2.62,5.31v21.65c.08,.99,.08,1.33-.06,1.5-.45,.6-2.49,1.45-3.2,1.74l-11.11,4.2c-1.47-2-2.01-4.08-1.42-5.59Z"/><g><path class="cls-1" d="M7.31,62.83v-.18s-.04,.01-.04,.01c-.16,.04-.28,.06-.33,.04-.05-.01-.09-.04-.11-.08-.02-.03-.03-.11-.03-.37l.02-1.03c.41-.11,.71-.21,.89-.3,.27-.13,.48-.32,.64-.53,.16-.22,.24-.46,.24-.71,0-.3-.12-.53-.35-.67-.24-.14-.63-.14-1.17,0l-1.63,.42h-.03s0,.18,0,.18h.04c.16-.05,.28-.07,.33-.05,.05,.01,.09,.04,.11,.08,.01,.02,.03,.1,.03,.36l-.04,2.47c0,.25-.03,.34-.04,.38-.02,.05-.06,.1-.12,.15-.06,.04-.17,.09-.34,.13h-.02s0,.19,0,.19l1.94-.5h.03Zm-.48-1.89l.03-1.57,.09-.02c.22-.06,.4-.05,.51,.04,.11,.09,.17,.28,.16,.55,0,.27-.07,.49-.18,.66-.12,.16-.29,.27-.5,.33-.02,0-.06,.01-.1,.02Z"/><path class="cls-1" d="M8.26,62.41h-.02s0,.18,0,.18l1.31-.34v-.17s-.04,0-.04,0c-.2,.04-.32,.04-.35,.03-.07-.02-.1-.08-.1-.17,0-.08,.03-.18,.08-.32l.16-.39,1.27-.33,.18,.39c.07,.14,.08,.17,.08,.19,0,.03,.01,.06,.01,.09,0,.05-.02,.09-.05,.12-.05,.05-.15,.1-.29,.13l-.1,.03v.18s1.85-.48,1.85-.48h.03s0-.18,0-.18h-.04c-.1,.03-.18,.02-.24-.02-.05-.04-.15-.15-.3-.47l-1.29-2.78v-.02s-.11,.02-.11,.02l-1.39,3.41c-.13,.32-.24,.54-.33,.65-.08,.11-.19,.19-.32,.25Zm1.17-1.49l.54-1.32,.48,1.06-1.02,.26Z"/><path class="cls-1" d="M14,60.92h-.05c-.11,.04-.19,.06-.23,.06h0c-.07,0-.13-.02-.16-.04-.03-.03-.05-.06-.05-.11,0-.05,.05-.17,.26-.49l.55-.82,.5,.65c.1,.12,.16,.21,.19,.26,0,.02,.01,.04,.01,.07,0,.04-.02,.08-.05,.12-.03,.03-.1,.07-.27,.13h-.02v.18l1.86-.48h.03s0-.18,0-.18h-.04c-.09,.02-.17,.01-.24-.02-.04-.03-.14-.11-.34-.37l-.99-1.28,.71-1.03c.19-.28,.31-.45,.36-.51,.08-.09,.14-.15,.21-.19,.06-.04,.15-.08,.25-.11h.02s0-.18,0-.18l-1.44,.37v.17s.04,0,.04,0c.1-.03,.18-.04,.23-.03,.05,.01,.08,.03,.1,.06,.02,.03,.03,.07,.03,.11,0,.07-.05,.22-.3,.59l-.37,.56-.42-.56-.18-.24s-.01-.05-.01-.08c0-.05,.02-.09,.06-.12,.04-.04,.11-.08,.21-.1l.12-.03v-.17s-1.89,.49-1.89,.49h-.03s0,.17,0,.17h.04c.08,0,.14,0,.18,0,.04,.01,.08,.04,.13,.09,.01,0,.06,.07,.26,.32l.91,1.16-.74,1.09c-.22,.33-.4,.55-.52,.67-.09,.09-.22,.16-.37,.23h-.02s0,.18,0,.18l1.5-.39v-.18Z"/><path class="cls-1" d="M7.81,64.85c.17-.04,.29-.06,.35-.04,.12,.03,.21,.08,.27,.16,.07,.08,.13,.23,.18,.45v.03s.17-.04,.17-.04l.02-1.1-3.4,.88h-.03s-.02,1.11-.02,1.11l.17-.04v-.02c.05-.29,.15-.53,.31-.71,.11-.13,.29-.23,.54-.29l.22-.06-.05,2.9c0,.23-.02,.32-.03,.35-.03,.06-.06,.11-.11,.15-.06,.05-.15,.09-.25,.12l-.15,.04v.18s1.99-.52,1.99-.52h.02s0-.18,0-.18l-.17,.04c-.1,.02-.18,.03-.23,.01-.05-.02-.08-.04-.1-.08,0-.02-.03-.1-.02-.34l.05-2.91,.25-.07Z"/><path class="cls-1" d="M10.64,64.18c.03-.06,.06-.12,.11-.15,.06-.05,.14-.09,.25-.12l.14-.04v-.18s-1.99,.51-1.99,.51h-.03s0,.18,0,.18l.17-.04c.1-.02,.17-.03,.23,0,.05,.02,.08,.04,.1,.08,0,.02,.03,.1,.02,.34l-.04,2.51c0,.23-.02,.31-.03,.35-.03,.07-.06,.12-.1,.15-.06,.05-.14,.09-.25,.12l-.15,.04v.17s1.99-.52,1.99-.52h.02s0-.18,0-.18l-.17,.04c-.1,.02-.18,.03-.23,.01-.05-.02-.09-.05-.1-.08-.01-.02-.03-.1-.02-.34l.04-2.51c0-.23,.02-.32,.03-.35Z"/><path class="cls-1" d="M11.88,67.04c-.02,.05-.06,.1-.12,.15-.06,.05-.17,.09-.34,.13h-.02v.18l1.94-.5c.53-.13,.94-.36,1.23-.66,.23-.25,.35-.53,.36-.82,0-.29-.1-.49-.31-.61-.13-.08-.34-.12-.62-.12,.27-.15,.47-.31,.58-.46,.14-.18,.21-.37,.21-.56,0-.18-.05-.34-.15-.48-.11-.13-.25-.22-.44-.25-.18-.03-.49,0-.92,.12l-1.79,.46h-.03s0,.18,0,.18h.04c.17-.06,.28-.07,.33-.06,.05,.01,.09,.04,.11,.08,.01,.03,.03,.1,.03,.37l-.04,2.47c0,.25-.02,.35-.04,.39Zm1-1.79c.26-.07,.46-.09,.6-.07,.13,.02,.23,.08,.3,.19,.07,.11,.11,.26,.11,.43,0,.15-.04,.29-.11,.43-.06,.14-.16,.26-.28,.35-.12,.1-.25,.16-.4,.2-.08,.02-.15,.02-.19,0-.04-.03-.06-.09-.06-.18l.02-1.34Zm.81-.83c-.07,.12-.16,.23-.28,.32-.11,.08-.29,.16-.53,.22l.03-1.43c.25-.06,.43-.09,.54-.06,.11,.02,.19,.08,.25,.16,.06,.08,.09,.21,.09,.37,0,.16-.04,.31-.1,.43Z"/><path class="cls-1" d="M16.7,62.62c.03-.06,.06-.12,.1-.15,.06-.05,.15-.09,.25-.12l.15-.04v-.18s-1.99,.52-1.99,.52h-.02s0,.18,0,.18l.17-.05c.1-.02,.17-.02,.23,0,.05,.02,.08,.04,.1,.08,.01,.02,.03,.1,.02,.34l-.04,2.51c0,.23-.02,.32-.04,.35-.03,.06-.06,.11-.1,.15-.06,.05-.14,.09-.25,.12l-.15,.04v.17s1.99-.52,1.99-.52h.03s0-.18,0-.18l-.17,.04c-.1,.02-.17,.03-.23,0-.05-.02-.09-.04-.1-.08-.01-.02-.03-.1-.02-.34l.04-2.51c0-.23,.02-.32,.03-.35Z"/><path class="cls-1" d="M18.1,71.33c-.09,.02-.17,0-.24-.02-.03-.02-.1-.07-.24-.24l-.85-1.03c.21-.11,.39-.24,.51-.39,.21-.24,.31-.51,.32-.79,0-.24-.06-.43-.2-.58-.14-.15-.32-.22-.53-.23-.21-.01-.55,.05-1,.16l-1.73,.45h-.03s0,.18,0,.18h.04c.16-.05,.28-.07,.33-.05,.05,.01,.09,.04,.11,.07,.01,.02,.03,.1,.03,.36l-.04,2.47c0,.25-.02,.35-.04,.38-.03,.05-.06,.1-.12,.15-.05,.04-.15,.08-.29,.11-.1,.02-.17,0-.22-.03-.08-.05-.17-.21-.29-.46l-1.29-2.78v-.03s-.11,.03-.11,.03l-1.39,3.4c-.13,.32-.24,.54-.32,.65-.09,.11-.19,.19-.32,.24h-.04c-.1,.04-.18,.04-.23,.02-.05-.02-.09-.04-.1-.08,0-.02-.03-.1-.02-.34l.04-2.52c0-.23,.02-.31,.03-.35,.03-.06,.06-.11,.1-.15,.07-.05,.15-.09,.25-.12l.15-.04v-.18s-1.56,.41-1.56,.41h-.02s-1.03,2.72-1.03,2.72l-.98-2.19-1.55,.4h-.03s0,.18,0,.18l.16-.04c.1-.03,.18-.03,.23-.01,.05,.02,.08,.05,.1,.08,0,.02,.02,.09,.02,.34l-.04,2.41c0,.21,0,.27-.01,.28-.02,.09-.05,.16-.08,.22-.04,.05-.09,.1-.16,.15-.07,.05-.14,.08-.22,.1l-.07,.02v.18s1.32-.34,1.32-.34h.03s0-.18,0-.18h-.04c-.16,.06-.28,.06-.35,.03-.07-.04-.11-.09-.13-.17,0-.03-.01-.11,0-.34l.04-2.53,1.33,2.94v.02s.12-.03,.12-.03l1.42-3.68-.04,2.63c0,.23-.02,.32-.03,.35-.03,.07-.06,.12-.1,.15-.06,.05-.15,.09-.25,.12l-.15,.04v.18l1.88-.49h0l1.29-.33h.03s0-.18,0-.18h-.04c-.2,.04-.32,.04-.35,.03-.07-.02-.1-.08-.1-.17,0-.07,.03-.18,.08-.31l.15-.39,1.27-.33,.18,.39c.07,.16,.07,.18,.07,.19,0,.03,.01,.06,.01,.09,0,.05-.02,.09-.05,.12-.06,.05-.15,.1-.29,.13l-.1,.03v.17s1.74-.45,1.74-.45h0l.13-.03h0l1.82-.47h.03s0-.18,0-.18h-.04c-.12,.04-.22,.06-.28,.06-.02,0-.04,0-.05,0-.06-.01-.09-.04-.11-.08-.01-.02-.03-.1-.02-.37l.02-1.04,.2-.05,1.16,1.41v.02s1.21-.31,1.21-.31h.02s0-.18,0-.18h-.04Zm-1.47-2.23c0,.2-.04,.36-.12,.5-.07,.14-.17,.25-.29,.32-.12,.08-.32,.15-.56,.22l-.11,.03,.02-1.6,.27-.07c.28-.07,.49-.06,.61,.04,.12,.1,.18,.29,.18,.56Zm-4.26,2.53l-1.02,.26,.54-1.32"/><path class="cls-1" d="M8.63,75.75c-.01,.1-.04,.17-.08,.21-.04,.05-.08,.08-.13,.1-.03,0-.14,0-.31-.02-.29-.04-.58-.03-.84,.04-.36,.09-.7,.27-1.02,.54-.32,.27-.58,.59-.78,.96-.19,.38-.29,.76-.3,1.12,0,.35,.07,.67,.24,.93,.17,.27,.41,.45,.73,.53,.14,.04,.29,.06,.45,.06,.19,0,.4-.03,.63-.09,.3-.08,.58-.2,.81-.36,.23-.16,.46-.38,.67-.66h0s0-.46,0-.46l-.06,.09c-.22,.31-.43,.54-.62,.7-.2,.15-.41,.26-.64,.32-.28,.07-.5,.06-.67-.03-.16-.09-.29-.26-.37-.51-.08-.25-.11-.55-.11-.89,0-.34,.07-.67,.19-.98,.09-.24,.23-.45,.43-.63,.19-.18,.4-.31,.63-.36,.27-.07,.51-.04,.72,.08,.21,.12,.35,.34,.42,.66v.04s.17-.04,.17-.04l.03-1.4-.18,.05v.02Z"/><path class="cls-1" d="M12.44,77.44c-.09,.35-.25,.64-.45,.85-.21,.21-.49,.37-.83,.45l-.22,.06c-.1,.03-.17,.03-.21,.01-.04-.01-.06-.04-.08-.07,0-.02-.02-.1-.02-.37l.02-1.05c.16-.04,.28-.05,.37-.03,.08,.02,.15,.09,.22,.2,.07,.12,.11,.28,.12,.49v.04s.17-.05,.17-.05l.04-2.07-.17,.05v.03c-.04,.29-.11,.54-.21,.71-.1,.17-.27,.29-.5,.35h-.03s.02-1.47,.02-1.47l.36-.09c.27-.07,.46-.1,.57-.1,.17,0,.29,.06,.38,.15,.09,.09,.16,.26,.2,.52v.04s.17-.04,.17-.04l.02-1.2-3.17,.82h-.02s0,.18,0,.18l.17-.04c.11-.03,.2-.03,.26,0,.04,.01,.06,.05,.08,.1,0,.02,0,.09,0,.3l-.04,2.51c0,.23-.02,.32-.03,.35-.03,.06-.06,.11-.1,.15-.06,.05-.15,.09-.25,.12l-.15,.04v.17s3.27-.85,3.27-.85h.02s.2-1.34,.2-1.34l-.17,.05v.02Z"/><path class="cls-1" d="M17.62,76.1c-.1,.36-.25,.65-.46,.86-.21,.21-.48,.37-.83,.46l-.22,.06c-.1,.02-.17,.03-.21,.02-.04-.02-.06-.04-.08-.07,0-.02-.02-.1-.01-.37l.02-1.05c.16-.04,.28-.05,.36-.03,.08,.02,.16,.09,.22,.2,.06,.12,.11,.28,.13,.49v.04s.17-.04,.17-.04l.03-2.07-.17,.05v.02c-.04,.3-.11,.54-.21,.71-.1,.17-.27,.29-.5,.34h-.03s.02-1.47,.02-1.47l.36-.09c.28-.07,.46-.11,.57-.1,.16,.01,.29,.06,.38,.15,.09,.09,.16,.26,.2,.51v.04s.17-.04,.17-.04l.02-1.2-3.17,.82h-.02s0,.18,0,.18l.17-.04c.11-.03,.2-.03,.26,0,.04,.02,.06,.05,.08,.1,0,.02,.01,.09,0,.31l-.04,2.51c0,.23-.02,.32-.03,.35-.02,.07-.06,.12-.1,.15-.06,.05-.15,.09-.25,.12l-.15,.04v.17s3.27-.84,3.27-.84h.02s.2-1.33,.2-1.33l-.18,.04v.02Z"/></g><g><path class="cls-1" d="M22.28,60.63l.13,.03,1.22-2.6c.15-.3,.25-.49,.32-.56,.09-.09,.2-.13,.33-.12h.04s0-.17,0-.17l-1.3-.33v.17s.03,0,.03,0c.13,.03,.23,.08,.31,.12,.05,.03,.09,.08,.12,.12,.03,.05,.04,.09,.05,.14,0,.05,0,.1-.03,.16-.02,.06-.07,.18-.15,.36l-.66,1.43-.82-2.03c-.09-.23-.14-.36-.16-.41-.01-.04-.02-.09-.02-.11,0-.05,.02-.07,.04-.07,.05-.02,.16-.02,.31,.02l.1,.03v-.17s-1.86-.48-1.86-.48v.17s.02,0,.02,0c.14,.05,.24,.12,.29,.19,.05,.07,.16,.32,.32,.71l1.37,3.38Z"/><path class="cls-1" d="M23.88,60.78h-.04s0,.17,0,.17l1.31,.34v-.18s-.03,0-.03,0c-.24-.08-.32-.13-.36-.16-.08-.07-.12-.15-.12-.24,0-.08,.02-.17,.07-.27l.13-.3,1.27,.33,.2,.51c.07,.18,.08,.22,.09,.23,.01,.04,.02,.07,.02,.1,0,.05-.02,.07-.04,.08-.02,0-.05,.01-.08,.01-.05,0-.12-.01-.21-.03l-.12-.03v.17s1.88,.48,1.88,.48v-.17s-.03,0-.03,0c-.11-.04-.19-.09-.25-.16-.08-.09-.19-.31-.32-.63l-1.43-3.47v-.02s-.1-.02-.1-.02l-1.27,2.72c-.11,.25-.21,.41-.29,.48-.08,.06-.18,.09-.3,.07Zm1.1-.9l.49-1.06,.54,1.32-1.02-.27Z"/><path class="cls-1" d="M28.06,58.36c.11,.03,.19,.07,.25,.12,.06,.04,.13,.13,.21,.25l.08,.12,.07,2.68c0,.19-.03,.31-.1,.37-.07,.06-.2,.06-.4,.01h-.04s0,.16,0,.16l1.4,.36v-.17s-.12-.03-.12-.03c-.12-.03-.23-.09-.33-.19-.09-.09-.14-.25-.15-.46l-.06-2.31,2.54,3.73h0s.15,.05,.15,.05l-.08-3.22c0-.17,0-.29,.03-.36,.02-.06,.06-.09,.1-.11,.04-.02,.15-.02,.3,0h.04s0-.16,0-.16l-1.3-.34v.18s.03,0,.03,0c.2,.05,.34,.13,.43,.26,.06,.09,.1,.25,.1,.47l.04,1.52-1.84-2.75h0s-1.38-.37-1.38-.37v.17s.03,0,.03,0Z"/><path class="cls-1" d="M21.27,65.55c.17,.21,.37,.39,.6,.55,.22,.15,.51,.28,.84,.37,.26,.07,.52,.1,.76,.11h.09c.21,0,.42-.02,.61-.07h.03s-.02-.83-.02-.83c0-.18,0-.23,.01-.24,.02-.05,.05-.09,.09-.09,.04-.01,.13,0,.25,.01h.04s0-.16,0-.16l-1.77-.46v.18s.12,.03,.12,.03c.08,.02,.15,.05,.21,.1,.05,.05,.09,.09,.11,.14,.01,.03,.03,.11,.03,.29l.02,.76c-.08,.01-.16,.01-.24,.01-.08,0-.17-.02-.25-.04-.24-.06-.45-.18-.62-.35-.18-.17-.31-.4-.39-.69-.08-.29-.13-.62-.14-.98,0-.3,.02-.58,.09-.85,.06-.26,.17-.44,.34-.55,.16-.11,.37-.13,.62-.07,.27,.07,.52,.23,.75,.48,.23,.25,.41,.57,.54,.96v.02s.16,.04,.16,.04l-.04-1.39v-.03l-.15-.04v.03c-.05,.11-.08,.15-.11,.17-.03,.02-.07,.03-.1,.02-.01,0-.07-.04-.29-.18-.17-.11-.3-.19-.38-.22-.14-.07-.3-.12-.48-.17-.57-.15-1.05-.07-1.41,.24-.37,.3-.55,.75-.53,1.34,0,.32,.08,.64,.21,.93,.1,.23,.24,.45,.41,.65Z"/><path class="cls-1" d="M27.72,67.67l.14-1.24-.16-.04v.03c-.09,.3-.23,.51-.43,.61-.2,.11-.47,.12-.81,.03l-.22-.06c-.1-.03-.18-.06-.22-.1-.04-.04-.07-.08-.09-.13-.01-.03-.03-.12-.03-.38l-.03-1.03c.15,.04,.27,.1,.35,.16,.09,.07,.17,.18,.25,.33,.07,.15,.12,.34,.15,.56v.02s.18,.05,.18,.05l-.06-2.04v-.03l-.17-.04v.04c-.02,.28-.08,.48-.18,.6-.09,.11-.25,.14-.47,.08h-.05s-.04-1.5-.04-1.5l.34,.09c.28,.07,.47,.14,.57,.2,.17,.1,.31,.22,.41,.36,.1,.14,.17,.35,.24,.64v.02s.17,.04,.17,.04l-.03-1.17v-.03s-3.2-.83-3.2-.83v.17s.15,.04,.15,.04c.12,.03,.21,.08,.28,.14,.04,.05,.08,.1,.1,.16,0,.03,.01,.1,.02,.32l.06,2.5c0,.25,0,.32-.02,.34-.02,.05-.04,.08-.08,.08-.06,.02-.14,.02-.24,0l-.17-.04v.17s3.26,.84,3.26,.84h.04Z"/><path class="cls-1" d="M31.4,67.22l-.17-.05v.03c-.09,.27-.17,.47-.26,.6-.09,.12-.19,.2-.31,.23-.13,.04-.29,.03-.47-.02l-.31-.08c-.21-.06-.29-.09-.32-.11-.06-.04-.1-.09-.12-.14-.01-.04-.03-.13-.04-.37l-.06-2.43c0-.24,0-.31,.02-.33,.02-.05,.05-.08,.09-.09,.06-.02,.14-.02,.24,0l.2,.06v-.18s-2.07-.53-2.07-.53v.18s.15,.04,.15,.04c.1,.02,.18,.06,.24,.11,.06,.05,.1,.1,.12,.15,.01,.03,.03,.12,.04,.36l.07,2.51c0,.24,0,.31-.02,.33-.02,.05-.04,.08-.08,.09-.06,.02-.14,.02-.24,0l-.17-.04v.17s3.35,.87,3.35,.87h.04s.11-1.33,.11-1.33v-.03Z"/><path class="cls-1" d="M31.33,64.92l.15,.04c.1,.02,.18,.06,.24,.11,.06,.05,.1,.1,.12,.15,.01,.03,.03,.12,.04,.36l.07,2.51c0,.24-.01,.31-.02,.33-.02,.05-.05,.08-.08,.09-.06,.02-.14,.02-.24,0l-.17-.05v.18s1.98,.51,1.98,.51h.05s0-.16,0-.16l-.15-.04c-.1-.02-.18-.06-.24-.11-.06-.05-.1-.1-.12-.14-.02-.04-.04-.13-.04-.37l-.07-2.51c0-.24,.01-.31,.02-.33,.02-.05,.05-.08,.09-.09,.06-.02,.14-.02,.24,0l.17,.04v-.18s-2.03-.52-2.03-.52v.17Z"/><path class="cls-1" d="M22.28,71.8c-.26-.07-.51-.24-.74-.5-.23-.27-.39-.62-.48-1.03v-.02s-.17-.04-.17-.04l.04,1.49v.03l.15,.04,.02-.02c.03-.06,.06-.1,.11-.12,.04-.02,.09-.02,.13-.01,.05,.01,.12,.05,.21,.11,.16,.11,.3,.19,.4,.24,.11,.05,.22,.09,.34,.12,.14,.04,.27,.06,.39,.06,.21,0,.4-.06,.55-.16,.24-.17,.37-.43,.36-.76,0-.25-.09-.51-.25-.74-.16-.24-.46-.53-.91-.86-.32-.24-.52-.4-.6-.48-.12-.11-.2-.22-.26-.32-.04-.07-.06-.15-.06-.22,0-.12,.04-.22,.14-.28,.1-.07,.24-.07,.41-.03,.24,.06,.46,.22,.67,.46,.21,.24,.34,.53,.41,.85v.02s.18,.04,.18,.04l-.06-1.32v-.02s-.15-.04-.15-.04v.04c-.03,.13-.06,.17-.07,.18-.02,.01-.05,.02-.08,0-.03,0-.1-.04-.25-.15-.13-.1-.24-.16-.33-.21-.11-.06-.24-.11-.36-.14-.34-.09-.63-.05-.85,.11-.22,.16-.33,.41-.32,.72,0,.18,.05,.36,.14,.53,.08,.17,.21,.34,.36,.5,.15,.16,.4,.37,.75,.63,.25,.19,.42,.33,.51,.42,.1,.1,.17,.2,.21,.29,.05,.09,.07,.18,.08,.27,0,.14-.05,.24-.16,.32-.11,.08-.26,.09-.46,.04Z"/><path class="cls-1" d="M26.59,69.58c.12,.09,.22,.2,.29,.31,.07,.12,.14,.31,.21,.56v.02s.17,.04,.17,.04l-.03-1.08v-.03s-3.39-.88-3.39-.88h-.04s.03,1.07,.03,1.07v.03l.17,.04v-.04c.04-.26,.13-.45,.28-.55,.1-.07,.28-.08,.52-.01l.25,.06,.08,2.92c0,.24,0,.31-.02,.33-.02,.05-.05,.07-.09,.09-.06,.02-.14,.01-.24-.01l-.17-.04v.18s1.99,.51,1.99,.51h.05s0-.16,0-.16l-.15-.04c-.1-.02-.18-.06-.24-.11-.06-.05-.1-.1-.12-.15-.02-.03-.03-.12-.04-.36l-.07-2.89,.23,.06c.17,.04,.29,.09,.36,.14Z"/><path class="cls-1" d="M29.85,73.71c-.05,.02-.15,.01-.28-.02l-.12-.03v.17s1.84,.47,1.84,.47h.04s0-.16,0-.16h-.02c-.11-.04-.19-.1-.25-.17-.08-.1-.19-.31-.33-.63l-1.44-3.49-.1-.02-1.27,2.72c-.12,.25-.22,.41-.3,.48-.08,.07-.18,.09-.3,.08h-.04s0,.17,0,.17l1.27,.33h.04s0-.16,0-.16h-.02c-.19-.07-.31-.13-.36-.16-.08-.07-.12-.15-.12-.25,0-.07,.02-.16,.07-.27l.13-.3,1.28,.33,.2,.51c.07,.17,.09,.22,.09,.22,0,.04,.01,.07,.02,.1,0,.05-.02,.07-.04,.08Zm-.4-1.23l-1.02-.27,.48-1.06,.54,1.32Z"/><path class="cls-1" d="M31.55,76.41v-.17s-1.12-.29-1.12-.29h-.04s0,.16,0,.16h.02c.11,.04,.2,.07,.27,.12,.05,.03,.08,.07,.11,.11,.03,.05,.04,.09,.04,.14,0,.05,0,.1-.02,.16-.02,.06-.06,.19-.13,.37l-.58,1.44-.73-2c-.07-.2-.13-.35-.14-.4-.01-.05-.02-.09-.02-.12,0-.05,.02-.07,.04-.08,.04-.02,.13-.02,.27,.02l.1,.03v-.17s-1.6-.42-1.6-.42h-.03s-.04-.02-.04-.02h0l-2.74-.71h-.04s-1.17-.32-1.17-.32l-.82,2.22-.96-2.67v-.02s-1.38-.36-1.38-.36h-.04s0,.17,0,.17l.13,.03c.09,.02,.16,.06,.21,.1,.05,.05,.09,.09,.1,.14,.01,.04,.03,.12,.04,.36l.06,2.41c0,.21,0,.27,0,.28-.01,.08-.04,.13-.06,.17-.02,.03-.06,.06-.12,.06-.06,.01-.12,0-.19-.01l-.08-.02v.18s1.17,.3,1.17,.3h.04s0-.16,0-.16h-.03c-.14-.04-.25-.1-.32-.17-.07-.07-.11-.16-.13-.25,0-.04-.02-.15-.02-.34l-.07-2.47,1.32,3.61,.11,.03,1.13-3.01,.07,2.65c0,.24,0,.31-.02,.33-.02,.05-.04,.08-.07,.09-.05,.02-.12,.02-.21,0l-.16-.04v.18s1.58,.4,1.58,.4h0s2.93,.76,2.93,.76l.12-1.21v-.03l-.15-.04v.03c-.08,.31-.2,.52-.38,.63-.17,.11-.41,.12-.71,.05l-.2-.05c-.09-.02-.15-.05-.19-.09-.04-.04-.07-.08-.08-.12-.02-.05-.03-.18-.03-.38l-.03-1.03c.13,.04,.24,.09,.31,.15,.08,.07,.15,.17,.21,.32,.07,.15,.11,.34,.13,.56v.02s.17,.04,.17,.04l-.05-2.04v-.03s-.16-.04-.16-.04v.04c-.02,.28-.07,.49-.16,.61-.08,.12-.22,.15-.42,.1h-.04s-.04-1.49-.04-1.49l.3,.08c.25,.06,.42,.12,.51,.18,.15,.09,.28,.21,.36,.35,.09,.13,.16,.35,.21,.63v.02s.16,.04,.16,.04l-.02-1.01c.09,.04,.16,.09,.2,.15,.03,.05,.11,.22,.29,.71l1.22,3.34,.13,.03,1.08-2.64c.13-.31,.22-.5,.29-.57,.08-.09,.18-.13,.29-.13h.04Zm-6.19,1.91c-.09-.02-.16-.05-.21-.1-.05-.04-.09-.09-.1-.14-.01-.03-.03-.12-.03-.36l-.07-2.51c0-.24,0-.31,.02-.33,.02-.05,.04-.08,.08-.09,.05-.02,.12-.02,.21,0h.04s.02,.01,.02,.01c.1,.03,.18,.07,.24,.14,.04,.04,.07,.1,.09,.16,0,.04,.02,.14,.02,.31l.07,2.51c0,.24,0,.31-.01,.33-.02,.05-.04,.08-.08,.09-.05,.02-.12,.02-.21,0h-.02s-.03-.02-.03-.02Z"/><path class="cls-1" d="M33.47,78.8c-.15-.23-.42-.51-.81-.83-.29-.23-.46-.38-.54-.46-.1-.11-.18-.22-.23-.31-.03-.07-.05-.14-.05-.22,0-.12,.04-.21,.12-.29,.08-.07,.2-.08,.36-.04,.21,.05,.41,.2,.59,.44,.18,.24,.31,.52,.36,.84v.02s.17,.04,.17,.04l-.06-1.32v-.03l-.13-.03v.04c-.03,.14-.06,.17-.06,.18-.01,.01-.04,.02-.06,0-.03,0-.09-.04-.22-.14-.11-.09-.21-.16-.29-.2-.1-.06-.21-.1-.32-.13-.3-.08-.56-.03-.76,.14-.2,.17-.29,.41-.29,.72,0,.18,.05,.36,.12,.53,.08,.17,.18,.34,.32,.49,.14,.15,.36,.36,.67,.61,.22,.18,.37,.32,.45,.41,.08,.09,.15,.19,.19,.28,.04,.09,.06,.18,.06,.26,0,.14-.04,.25-.14,.33-.1,.08-.23,.1-.4,.05-.23-.06-.45-.22-.65-.48-.21-.26-.35-.6-.43-1.02v-.02s-.16-.04-.16-.04l.04,1.49v.03l.15,.04v-.03c.03-.06,.07-.1,.11-.13,.04-.02,.08-.03,.11-.02,.04,.01,.11,.04,.18,.1,.14,.1,.26,.18,.36,.23,.09,.05,.2,.09,.3,.11,.11,.03,.22,.05,.32,.05,.2,0,.37-.07,.52-.18,.22-.18,.33-.44,.32-.77,0-.26-.08-.5-.22-.74Z"/></g></g></g></g></svg>