<?xml version="1.0" encoding="UTF-8"?><svg id="Vrstva_1" xmlns="http://www.w3.org/2000/svg" viewBox="0 0 1538.652565 371.214961"><defs><style>.cls-1{stroke-width:3.702781px;}.cls-1,.cls-2,.cls-3,.cls-4{stroke-linecap:round;}.cls-1,.cls-2,.cls-3,.cls-4,.cls-5{stroke-miterlimit:10;}.cls-1,.cls-2,.cls-5{fill:none;}.cls-1,.cls-3,.cls-4{stroke:#d1050c;}.cls-2{stroke-width:.973363px;}.cls-2,.cls-5{stroke:#ccc;}.cls-6{fill:#ccc;}.cls-3{fill:#fff;}.cls-3,.cls-4{stroke-width:1.851391px;}.cls-4{fill:#da373d;}.cls-5{stroke-width:.89009px;}</style></defs><line class="cls-5" x1="273.813227" y1=".486682" x2="273.813227" y2="347.808426"/><line class="cls-5" x1="80.811292" y1=".486682" x2="80.811292" y2="347.808426"/><line class="cls-5" x1="667.689792" y1=".486682" x2="667.689792" y2="347.808426"/><line class="cls-5" x1="864.628075" y1=".486682" x2="864.628075" y2="347.808426"/><line class="cls-5" x1="1061.566357" y1=".486682" x2="1061.566357" y2="347.808426"/><line class="cls-5" x1="1258.50464" y1=".486682" x2="1258.50464" y2="347.808426"/><line class="cls-5" x1="1455.442922" y1=".486682" x2="1455.442922" y2="347.808426"/><line class="cls-5" x1="1538.20752" y1=".486682" x2="1538.20752" y2="347.808426"/><line class="cls-5" x1="470.75151" y1=".486682" x2="470.75151" y2="347.808426"/><line class="cls-2" x1="81.867473" y1=".486682" x2="1537.999958" y2=".486682"/><line class="cls-2" x1="81.809057" y1="27.209597" x2="1537.987441" y2="27.209597"/><line class="cls-2" x1="81.75064" y1="53.932512" x2="1537.974925" y2="53.932512"/><line class="cls-2" x1="81.692224" y1="80.655426" x2="1537.962408" y2="80.655426"/><line class="cls-2" x1="81.633807" y1="107.37834" x2="1537.949891" y2="107.37834"/><line class="cls-2" x1="81.575391" y1="134.101255" x2="1537.937375" y2="134.101255"/><line class="cls-2" x1="81.516974" y1="160.824169" x2="1537.924858" y2="160.824169"/><line class="cls-2" x1="81.458558" y1="187.547084" x2="1537.912341" y2="187.547084"/><line class="cls-2" x1="81.400142" y1="214.269998" x2="1537.899825" y2="214.269998"/><line class="cls-2" x1="81.341725" y1="240.992912" x2="1537.887308" y2="240.992912"/><line class="cls-2" x1="81.283309" y1="267.715827" x2="1537.874791" y2="267.715827"/><line class="cls-2" x1="81.224892" y1="294.438741" x2="1537.862275" y2="294.438741"/><line class="cls-2" x1="81.166476" y1="321.161656" x2="1537.849758" y2="321.161656"/><line class="cls-2" x1="81.108059" y1="347.884571" x2="1537.837241" y2="347.884571"/><path class="cls-1" d="M1468.281473,234.297703c-7.907667.147267-14.286612,1.026624-18.596544,1.786089-11.745316,2.070013-18.369564,4.018647-18.369887,4.018647-7.619792,2.24147-10.015804,3.688251-14.74122,2.679027-4.402837-.940259-4.64663-2.692396-10.43215-4.465116l-12.748209-3.44823c-4.717063-.455169-8.482504-1.681898-10.977265-2.672237-4.341898-1.72349-5.277988-2.907142-10.977423-5.344261-3.886375-1.661739-6.826198-2.554678-10.145783-3.562841-3.48585-1.058667-7.121322-2.162744-11.975328-3.117432-5.232341-1.028959-6.159238-.759252-8.815191-2.226828-2.920804-1.613994-3.174084-2.700035-7.484441-5.789457-4.765247-3.415361-5.108237-2.555951-8.981615-5.344261-4.946727-3.560931-5.055298-5.443783-9.97936-9.35251-1.21679-.965935-5.248349-4.056418-10.478471-5.789669-6.481148-2.147678-6.93572.395753-12.973232-2.226828-2.918109-1.267684-2.970731-1.930809-8.149816-4.453445-4.712625-2.295369-4.701372-1.76211-8.149975-3.562841-4.201152-2.193725-4.591057-3.180032-10.478313-6.680273-3.828523-2.276271-5.742863-3.4143-7.650864-4.008249-3.116549-.970179-4.771428-.582277-10.977423,0-9.494673.891028-7.91825.198832-12.308015.890604-6.64551,1.04742-7.976261,2.274149-13.305919,2.226828-2.882606-.025464-4.980012-.069389-7.817129-1.336012-3.372682-1.50556-4.493264-3.267246-8.981615-6.680273-4.37439-3.32645-7.742793-5.024051-10.145625-6.235077-2.130215-1.073521-2.973584-1.329646-12.308015-4.453445-10.355476-3.465441-11.156051-3.765492-13.139576-4.008249-4.103596-.502278-5.808799.153633-11.809063.890816-6.251642.768165-10.59893.808907-19.293504.890604-9.977855.093792-9.643661-.735486-20.125223-.890604-11.592634-.171458-11.4041.851771-25.114903.890604-8.338905.023554-8.168915-.355647-21.289471-.445408-8.949994-.061326-8.826207.116498-16.299712,0-10.042918-.156604-11.483349-.496761-19.293583-.445196-4.576.030132-7.904144.172094-14.303903.445196-8.775646.374321-9.117923.566787-16.63232.890816-3.343756.144084-10.147289.246577-23.618047.445408-7.807143.115225-10.536402.14175-14.636511,0-8.07659-.279043-12.129071-.887845-14.636511-1.336224-1.177879-.210715-4.78284-.881055-9.480408-2.226616-5.026531-1.439778-4.624025-1.739192-10.478392-3.562841-7.320237-2.280303-8.00273-1.828741-10.312127-4.008249-3.768056-3.556262-3.598146-6.312742-6.985568-8.907101-3.528723-2.702581-4.57069-.367955-9.646831-1.336012-2.172296-.414215-5.107286-2.206033-10.977344-5.789669-5.194381-3.171119-7.791531-4.756679-10.478392-7.125681-1.279239-1.127844-1.854111-1.743861-10.644736-11.579338-7.253034-8.115171-7.805796-8.752195-9.314144-10.243114-3.812831-3.768887-4.073482-3.447404-9.646831-8.461693-1.563346-1.406463-1.711146-1.583225-11.975248-11.579338-8.108924-7.897241-8.772238-8.522595-10.312127-10.68831-4.699629-6.609186-4.531224-9.234526-7.650864-12.024746-2.274448-2.034151-5.317217-1.680625-11.310032-.890604-6.065645.799782-9.152634,1.255801-11.808984,4.008249-.795106.823973-2.747724,3.815147-6.65296,9.797706-5.727251,8.77384-5.898509,9.519087-8.149895,12.469942-3.674383,4.815883-6.720401,7.420639-8.482504,8.907101-4.136247,3.489419-4.631633,2.729106-9.813096,6.680273-3.091506,2.357544-5.499648,4.193924-8.482583,7.571089-5.482451,6.207067-5.358268,9.073254-9.97936,13.805954-1.821619,1.865452-4.540893,3.470534-9.97944,6.680273-4.368209,2.57802-6.584251,3.869894-8.149895,4.008249-2.85154.251882-3.318793-1.047844-10.145783-4.008249-6.256397-2.712979-6.28247-1.802853-10.145704-4.008037-4.513472-2.576322-4.38818-3.767402-9.147879-6.680485-3.289471-2.013143-6.018412-2.975046-11.476296-4.898853-4.235784-1.49304-6.353715-2.23956-9.1478-2.672024-.923331-.143023-4.812004-.705141-10.145783,0-3.230668.427159-5.979184,1.323917-11.476375,3.117432-4.965034,1.619936-8.633632,3.065019-12.141592,4.453445-4.832609,1.912772-7.248913,2.869158-9.314144,4.008249-4.851628,2.675844-5.248745,3.859496-8.981535,5.344261-3.213471,1.278082-3.531893.644664-8.149816,2.226828-2.839415.972726-4.750031,1.627363-7.151991,3.117432-3.820122,2.369639-4.489539,4.126869-9.1478,8.016497-1.154501.964025-4.937455,4.048991-9.314144,6.234865-3.178126,1.587257-3.643476,1.18917-10.977344,3.117432-7.158173,1.882215-10.737219,2.823323-14.470168,4.899065-1.011931.562755-3.66844,2.304918-8.981535,5.789457-4.123171,2.704067-6.184756,4.056206-7.318256,4.898853-5.959451,4.430527-6.730069,6.327596-11.143688,9.35251-3.880035,2.65908-6.895145,3.667455-9.314144,4.453657-5.341784,1.736009-7.092554.917129-13.305919,1.78142-3.794446.527742-7.075833,1.539512-13.638528,3.562841-8.235762,2.539187-12.353623,3.808781-16.299751,6.234865-5.945979,3.655572-5.810463,5.305004-10.81104,7.571089-4.362503,1.977069-5.417546,1.153096-12.141632,3.562841-4.139139,1.483279-7.296423,3.070324-9.147839,4.008249-7.795612,3.949257-7.761139,5.330256-12.973271,7.570877-6.571214,2.824808-6.861702.73103-12.806928,4.008249-3.701843,2.040517-3.915261,3.032128-8.815152,5.789669-3.917995,2.204972-7.028006,3.398173-9.813135,4.453445-6.394964,2.423114-6.494739,1.61739-10.478392,3.562841-4.464021,2.180144-4.462476,3.252392-9.480448,5.789669-3.687063,1.864391-6.529331,2.722316-9.314144,3.562841-3.955321,1.193838-6.966826,1.715638-9.97944,2.226828-4.882971.828642-5.354028.56806-9.97944,1.336012-5.564553.923919-5.91947,1.473093-10.312088,2.226828-5.092427.87384-5.577431.300688-13.638567.890604-6.6656.487636-9.99842.731666-14.303824,1.78142-6.461732,1.575586-6.697696,2.801891-13.472263,4.453657-4.621766,1.126995-7.960411,1.405189-12.47428,1.78142-7.7231.643603-11.584669.965511-15.80076-.445408-.277293-.092731-.219441-.078514-9.646792-4.898853-6.877869-3.516793-10.366571-5.276357-12.806928-5.344261-4.293279-.119256-4.07891,1.864815-9.480487,2.226616-6.444654.431615-6.699202-2.396164-11.476336-1.336012-1.836875.407636-4.994594,2.646985-11.310032,7.125681-4.625293,3.28019-6.9379,4.920073-9.480448,7.125681-5.783043,5.016624-6.443623,6.909025-9.646792,8.461693-.988394.479148-2.803713,1.209329-9.1478.445408-4.567005-.550023-7.51198-1.396277-15.468151-3.562841-6.862078-1.868635-10.32342-2.809106-11.808984-3.117432-4.428577-.919039-5.080698-.756918-13.3059-2.226828-7.125601-1.273413-8.686273-1.761473-9.97944-2.226828-4.841167-1.741951-5.549476-3.02555-9.480468-4.453445-4.986253-1.811128-5.79384-.452835-12.141632-1.336012-1.838262-.255701-7.981115-1.233732-15.468131-4.899065-5.825619-2.85197-7.305081-4.804848-12.765837-6.355182-3.107792-.882328-5.731115-1.116173-7.937587-1.339407-4.611702-.466628-8.435767-.274799-11.112602,0"/><path class="cls-6" d="M255.618652,369.126094c0-.088867.014648-.133789.059082-.192383l3.71875-4.875c.503906-.652344.82959-1.289062.82959-1.970703,0-1.09668-.785156-1.881836-1.925781-1.881836-1.111328,0-1.748535.681641-1.92627,1.733398-.014648.088867-.074219.133789-.177734.119141l-.459473-.119141c-.088867-.014648-.133301-.073242-.118164-.162109.162598-1.230469,1.081543-2.341797,2.696289-2.341797,1.629883,0,2.711426,1.111328,2.711426,2.652344,0,.888672-.385254,1.629883-1.022461,2.459961l-3.318848,4.326172v.014648h4.193359c.088867,0,.147949.05957.147949.148438v.473633c0,.088867-.059082.148438-.147949.148438h-5.111816c-.088867,0-.147949-.05957-.147949-.148438v-.384766Z"/><path class="cls-6" d="M262.786621,368.370235h.637207c.088867,0,.147949.05957.147949.148438v1.111328c0,.147461-.014648.207031-.07373.325195l-.578125,1.141602c-.044434.088867-.103516.118164-.177734.118164s-.103516-.043945-.103516-.133789v-2.5625c0-.088867.059082-.148438.147949-.148438Z"/><path class="cls-6" d="M265.394043,367.496211l.474121-.118164c.103516-.030273.162598.029297.192383.118164.148438.888672.800293,1.541016,1.92627,1.541016.82959,0,1.496582-.385742,1.763184-1.15625.103516-.325195.147949-.785156.147949-1.451172,0-.697266-.059082-1.141602-.177734-1.482422-.236816-.754883-.859375-1.125977-1.703613-1.125977-.948242,0-1.585449.563477-1.77832,1.200195-.029297.103516-.059082.148438-.147949.148438h-.489258c-.088867,0-.147949-.05957-.147949-.148438v-5.289062c0-.088867.059082-.148438.147949-.148438h4.756348c.088867,0,.147949.05957.147949.148438v.473633c0,.088867-.059082.148438-.147949.148438h-4.044922c-.059082,0-.088867.029297-.088867.088867v3.481445h.029785c.251465-.429688.918457-.874023,1.836914-.874023,1.185547,0,2.029785.548828,2.370605,1.600586.133301.415039.237305.962891.237305,1.77832,0,.754883-.074219,1.288086-.20752,1.688477-.355469,1.082031-1.289062,1.689453-2.489258,1.689453-1.555664,0-2.54834-.904297-2.711426-2.133789-.014648-.074219.015137-.148438.104004-.177734Z"/><path class="cls-6" d="M280.132324,369.659297c-.104004,0-.148438-.029297-.222656-.148438l-2.251953-3.65918-1.51123,1.777344v1.881836c0,.088867-.059082.148438-.147949.148438h-.503906c-.088867,0-.147949-.05957-.147949-.148438v-9.77832c0-.088867.059082-.148438.147949-.148438h.503906c.088867,0,.147949.05957.147949.148438v6.786133l3.200195-3.77832c.089355-.103516.133789-.148438.251953-.148438h.607422c.088867,0,.133301.088867.074219.148438l-2.088867,2.473633,2.637207,4.296875c.044434.074219,0,.148438-.088867.148438h-.607422Z"/><path class="cls-6" d="M291.315918,369.659297c-.088867,0-.147949-.05957-.147949-.148438v-4.177734c0-1.408203-.637207-2.119141-1.866699-2.119141-1.081543,0-1.911621.741211-1.911621,1.970703v4.326172c0,.088867-.059082.148438-.147949.148438h-.503906c-.088867,0-.147949-.05957-.147949-.148438v-4.177734c0-1.408203-.622559-2.119141-1.852051-2.119141-1.081543,0-1.92627.741211-1.92627,1.970703v4.326172c0,.088867-.059082.148438-.147949.148438h-.503906c-.088867,0-.147949-.05957-.147949-.148438v-6.770508c0-.088867.059082-.148438.147949-.148438h.503906c.088867,0,.147949.05957.147949.148438v.844727h.015137c.355469-.697266,1.096191-1.141602,2.088867-1.141602,1.096191,0,1.837402.459961,2.192871,1.319336h.014648c.415039-.81543,1.17041-1.319336,2.326172-1.319336,1.600098,0,2.519043.978516,2.519043,2.697266v4.370117c0,.088867-.05957.148438-.148438.148438h-.503906Z"/><path class="cls-6" d="M7.938965,240.154414v-.030273c-.785156-.384766-1.348145-1.200195-1.348145-2.251953,0-1.496094,1.066895-2.652344,2.696289-2.652344,1.629883,0,2.696777,1.15625,2.696777,2.652344,0,1.051758-.562988,1.867188-1.348145,2.251953v.030273c.948242.399414,1.614746,1.318359,1.614746,2.5625,0,1.689453-1.229492,2.875-2.963379,2.875-1.733398,0-2.962891-1.185547-2.962891-2.875,0-1.244141.666504-2.163086,1.614746-2.5625ZM9.287109,244.821406c1.318848,0,2.163574-.904297,2.163574-2.133789,0-1.244141-.859375-2.163086-2.163574-2.163086-1.303711,0-2.163086.918945-2.163086,2.163086,0,1.229492.844727,2.133789,2.163086,2.133789ZM11.183594,237.872188c0-1.081055-.77002-1.881836-1.896484-1.881836-1.125977,0-1.896484.800781-1.896484,1.881836,0,1.067383.741211,1.881836,1.896484,1.881836,1.141113,0,1.896484-.814453,1.896484-1.881836Z"/><path class="cls-6" d="M13.61084,240.406367c0-2.415039.104004-3.022461.222168-3.378906.385254-1.169922,1.318848-1.807617,2.592773-1.807617,1.274414,0,2.208008.637695,2.593262,1.807617.118164.356445.222168.963867.222168,3.378906s-.104004,3.022461-.222168,3.37793c-.385254,1.169922-1.318848,1.807617-2.593262,1.807617-1.273926,0-2.20752-.637695-2.592773-1.807617-.118164-.355469-.222168-.962891-.222168-3.37793ZM16.425781,244.836055c.88916,0,1.526367-.385742,1.807617-1.229492.104004-.326172.20752-.874023.20752-3.200195s-.103516-2.875-.20752-3.201172c-.28125-.84375-.918457-1.229492-1.807617-1.229492-.888672,0-1.525879.385742-1.807129,1.229492-.104004.326172-.20752.875-.20752,3.201172s.103516,2.874023.20752,3.200195c.28125.84375.918457,1.229492,1.807129,1.229492Z"/><path class="cls-6" d="M20.75,240.406367c0-2.415039.104004-3.022461.222168-3.378906.385254-1.169922,1.318848-1.807617,2.592773-1.807617,1.274414,0,2.208008.637695,2.593262,1.807617.118164.356445.222168.963867.222168,3.378906s-.104004,3.022461-.222168,3.37793c-.385254,1.169922-1.318848,1.807617-2.593262,1.807617-1.273926,0-2.20752-.637695-2.592773-1.807617-.118164-.355469-.222168-.962891-.222168-3.37793ZM23.564941,244.836055c.88916,0,1.526367-.385742,1.807617-1.229492.104004-.326172.20752-.874023.20752-3.200195s-.103516-2.875-.20752-3.201172c-.28125-.84375-.918457-1.229492-1.807617-1.229492-.888672,0-1.525879.385742-1.807617,1.229492-.103516.326172-.207031.875-.207031,3.201172s.103516,2.874023.207031,3.200195c.281738.84375.918945,1.229492,1.807617,1.229492Z"/><path class="cls-6" d="M7.005371,293.727656l2.504395-4.81543c.044434-.074219.088867-.103516.192383-.103516h.54834c.103516,0,.118652.074219.088867.133789l-2.26709,4.370117.029785.015625c.251953-.208008.726074-.356445,1.303711-.356445,1.629883,0,2.830078,1.185547,2.830078,2.993164,0,1.881836-1.22998,3.067383-2.933594,3.067383-1.71875,0-2.94873-1.185547-2.94873-3.038086,0-.799805.281738-1.570312.651855-2.266602ZM9.302246,298.261836c1.259277,0,2.133301-.918945,2.133301-2.251953,0-1.333984-.874023-2.267578-2.133301-2.267578-1.274414,0-2.148438.933594-2.148438,2.267578,0,1.333008.874023,2.251953,2.148438,2.251953Z"/><path class="cls-6" d="M13.61084,293.846797c0-2.415039.104004-3.023438.222168-3.378906.385254-1.169922,1.318848-1.807617,2.592773-1.807617,1.274414,0,2.208008.637695,2.593262,1.807617.118164.355469.222168.963867.222168,3.378906s-.104004,3.022461-.222168,3.37793c-.385254,1.169922-1.318848,1.807617-2.593262,1.807617-1.273926,0-2.20752-.637695-2.592773-1.807617-.118164-.355469-.222168-.962891-.222168-3.37793ZM16.425781,298.276485c.88916,0,1.526367-.385742,1.807617-1.229492.104004-.326172.20752-.874023.20752-3.200195s-.103516-2.875-.20752-3.201172c-.28125-.84375-.918457-1.229492-1.807617-1.229492-.888672,0-1.525879.385742-1.807129,1.229492-.104004.326172-.20752.875-.20752,3.201172s.103516,2.874023.20752,3.200195c.28125.84375.918457,1.229492,1.807129,1.229492Z"/><path class="cls-6" d="M20.75,293.846797c0-2.415039.104004-3.023438.222168-3.378906.385254-1.169922,1.318848-1.807617,2.592773-1.807617,1.274414,0,2.208008.637695,2.593262,1.807617.118164.355469.222168.963867.222168,3.378906s-.104004,3.022461-.222168,3.37793c-.385254,1.169922-1.318848,1.807617-2.593262,1.807617-1.273926,0-2.20752-.637695-2.592773-1.807617-.118164-.355469-.222168-.962891-.222168-3.37793ZM23.564941,298.276485c.88916,0,1.526367-.385742,1.807617-1.229492.104004-.326172.20752-.874023.20752-3.200195s-.103516-2.875-.20752-3.201172c-.28125-.84375-.918457-1.229492-1.807617-1.229492-.888672,0-1.525879.385742-1.807617,1.229492-.103516.326172-.207031.875-.207031,3.201172s.103516,2.874023.207031,3.200195c.281738.84375.918945,1.229492,1.807617,1.229492Z"/><path class="cls-6" d="M10.502441,187.499141l-.029785-.015137c-.251953.20752-.726074.355469-1.303711.355469-1.629883,0-2.830078-1.185059-2.830078-2.992676,0-1.881836,1.22998-3.066895,2.933594-3.066895,1.71875,0,2.94873,1.185059,2.94873,3.037109,0,.800293-.281738,1.570801-.652344,2.26709l-2.503906,4.81543c-.044434.074219-.088867.103516-.192383.103516h-.54834c-.103516,0-.118652-.074219-.088867-.133789l2.26709-4.370117ZM11.420898,184.802363c0-1.333496-.874023-2.251953-2.148438-2.251953-1.259277,0-2.133301.918457-2.133301,2.251953s.874023,2.26709,2.133301,2.26709c1.274414,0,2.148438-.933594,2.148438-2.26709Z"/><path class="cls-6" d="M13.61084,186.965449c0-2.415039.104004-3.022461.222168-3.37793.385254-1.17041,1.318848-1.807617,2.592773-1.807617,1.274414,0,2.208008.637207,2.593262,1.807617.118164.355469.222168.962891.222168,3.37793,0,2.415527-.104004,3.022949-.222168,3.378418-.385254,1.169922-1.318848,1.807617-2.593262,1.807617-1.273926,0-2.20752-.637695-2.592773-1.807617-.118164-.355469-.222168-.962891-.222168-3.378418ZM16.425781,191.395625c.88916,0,1.526367-.385742,1.807617-1.229492.104004-.326172.20752-.874023.20752-3.200684,0-2.326172-.103516-2.874512-.20752-3.200195-.28125-.844727-.918457-1.22998-1.807617-1.22998-.888672,0-1.525879.385254-1.807129,1.22998-.104004.325684-.20752.874023-.20752,3.200195,0,2.32666.103516,2.874512.20752,3.200684.28125.84375.918457,1.229492,1.807129,1.229492Z"/><path class="cls-6" d="M20.75,186.965449c0-2.415039.104004-3.022461.222168-3.37793.385254-1.17041,1.318848-1.807617,2.592773-1.807617,1.274414,0,2.208008.637207,2.593262,1.807617.118164.355469.222168.962891.222168,3.37793,0,2.415527-.104004,3.022949-.222168,3.378418-.385254,1.169922-1.318848,1.807617-2.593262,1.807617-1.273926,0-2.20752-.637695-2.592773-1.807617-.118164-.355469-.222168-.962891-.222168-3.378418ZM23.564941,191.395625c.88916,0,1.526367-.385742,1.807617-1.229492.104004-.326172.20752-.874023.20752-3.200684,0-2.326172-.103516-2.874512-.20752-3.200195-.28125-.844727-.918457-1.22998-1.807617-1.22998-.888672,0-1.525879.385254-1.807617,1.22998-.103516.325684-.207031.874023-.207031,3.200195,0,2.32666.103516,2.874512.207031,3.200684.281738.84375.918945,1.229492,1.807617,1.229492Z"/><path class="cls-6" d="M2.014648,129.569942h-.029297l-1.822754,1.289062c-.07373.05957-.162598.029785-.162598-.088867v-.62207c0-.104004.029297-.163086.103516-.222168l1.866699-1.348633c.074219-.059082.133301-.088867.222168-.088867h.474121c.089355,0,.148438.05957.148438.148438v9.778809c0,.088867-.059082.147949-.148438.147949h-.503418c-.088867,0-.148438-.059082-.148438-.147949v-8.845703Z"/><path class="cls-6" d="M6.47168,133.525996c0-2.415039.104004-3.022461.222168-3.37793.385254-1.17041,1.318848-1.807617,2.592773-1.807617,1.274414,0,2.208008.637207,2.593262,1.807617.118164.355469.222168.962891.222168,3.37793s-.104004,3.022461-.222168,3.378418c-.385254,1.17041-1.318848,1.807129-2.593262,1.807129-1.273926,0-2.20752-.636719-2.592773-1.807129-.118164-.355957-.222168-.963379-.222168-3.378418ZM9.286621,137.956172c.88916,0,1.526367-.385254,1.807617-1.22998.104004-.325684.20752-.874023.20752-3.200195s-.103516-2.874512-.20752-3.200195c-.28125-.844727-.918457-1.22998-1.807617-1.22998-.888672,0-1.525879.385254-1.807617,1.22998-.103516.325684-.207031.874023-.207031,3.200195s.103516,2.874512.207031,3.200195c.281738.844727.918945,1.22998,1.807617,1.22998Z"/><path class="cls-6" d="M13.61084,133.525996c0-2.415039.104004-3.022461.222168-3.37793.385254-1.17041,1.318848-1.807617,2.592773-1.807617,1.274414,0,2.208008.637207,2.593262,1.807617.118164.355469.222168.962891.222168,3.37793s-.104004,3.022461-.222168,3.378418c-.385254,1.17041-1.318848,1.807129-2.593262,1.807129-1.273926,0-2.20752-.636719-2.592773-1.807129-.118164-.355957-.222168-.963379-.222168-3.378418ZM16.425781,137.956172c.88916,0,1.526367-.385254,1.807617-1.22998.104004-.325684.20752-.874023.20752-3.200195s-.103516-2.874512-.20752-3.200195c-.28125-.844727-.918457-1.22998-1.807617-1.22998-.888672,0-1.525879.385254-1.807129,1.22998-.104004.325684-.20752.874023-.20752,3.200195s.103516,2.874512.20752,3.200195c.28125.844727.918457,1.22998,1.807129,1.22998Z"/><path class="cls-6" d="M20.749512,133.525996c0-2.415039.104004-3.022461.222168-3.37793.385254-1.17041,1.318848-1.807617,2.592773-1.807617,1.274414,0,2.208008.637207,2.593262,1.807617.118164.355469.222168.962891.222168,3.37793s-.104004,3.022461-.222168,3.378418c-.385254,1.17041-1.318848,1.807129-2.593262,1.807129-1.273926,0-2.20752-.636719-2.592773-1.807129-.118164-.355957-.222168-.963379-.222168-3.378418ZM23.564453,137.956172c.88916,0,1.526367-.385254,1.807617-1.22998.104004-.325684.20752-.874023.20752-3.200195s-.103516-2.874512-.20752-3.200195c-.28125-.844727-.918457-1.22998-1.807617-1.22998-.888672,0-1.525879.385254-1.807129,1.22998-.104004.325684-.20752.874023-.20752,3.200195s.103516,2.874512.20752,3.200195c.28125.844727.918457,1.22998,1.807129,1.22998Z"/><path class="cls-6" d="M2.014648,76.129512h-.029297l-1.822754,1.289062c-.07373.05957-.162598.029785-.162598-.088867v-.62207c0-.104004.029297-.163086.103516-.222168l1.866699-1.348633c.074219-.059082.133301-.088867.222168-.088867h.474121c.089355,0,.148438.05957.148438.148438v9.778809c0,.088867-.059082.147949-.148438.147949h-.503418c-.088867,0-.148438-.059082-.148438-.147949v-8.845703Z"/><path class="cls-6" d="M9.15332,76.129512h-.029297l-1.822754,1.289062c-.07373.05957-.162598.029785-.162598-.088867v-.62207c0-.104004.029297-.163086.103516-.222168l1.866699-1.348633c.074219-.059082.133301-.088867.222168-.088867h.474121c.089355,0,.148438.05957.148438.148438v9.778809c0,.088867-.059082.147949-.148438.147949h-.503418c-.088867,0-.148438-.059082-.148438-.147949v-8.845703Z"/><path class="cls-6" d="M13.61084,80.085567c0-2.415039.104004-3.022461.222168-3.37793.385254-1.17041,1.318848-1.807617,2.592773-1.807617,1.274414,0,2.208008.637207,2.593262,1.807617.118164.355469.222168.962891.222168,3.37793s-.104004,3.022461-.222168,3.378418c-.385254,1.17041-1.318848,1.807129-2.593262,1.807129-1.273926,0-2.20752-.636719-2.592773-1.807129-.118164-.355957-.222168-.963379-.222168-3.378418ZM16.425781,84.515742c.88916,0,1.526367-.385254,1.807617-1.22998.104004-.325684.20752-.874023.20752-3.200195s-.103516-2.874512-.20752-3.200195c-.28125-.844727-.918457-1.22998-1.807617-1.22998-.888672,0-1.525879.385254-1.807129,1.22998-.104004.325684-.20752.874023-.20752,3.200195s.103516,2.874512.20752,3.200195c.28125.844727.918457,1.22998,1.807129,1.22998Z"/><path class="cls-6" d="M20.749512,80.085567c0-2.415039.104004-3.022461.222168-3.37793.385254-1.17041,1.318848-1.807617,2.592773-1.807617,1.274414,0,2.208008.637207,2.593262,1.807617.118164.355469.222168.962891.222168,3.37793s-.104004,3.022461-.222168,3.378418c-.385254,1.17041-1.318848,1.807129-2.593262,1.807129-1.273926,0-2.20752-.636719-2.592773-1.807129-.118164-.355957-.222168-.963379-.222168-3.378418ZM23.564453,84.515742c.88916,0,1.526367-.385254,1.807617-1.22998.104004-.325684.20752-.874023.20752-3.200195s-.103516-2.874512-.20752-3.200195c-.28125-.844727-.918457-1.22998-1.807617-1.22998-.888672,0-1.525879.385254-1.807129,1.22998-.104004.325684-.20752.874023-.20752,3.200195s.103516,2.874512.20752,3.200195c.28125.844727.918457,1.22998,1.807129,1.22998Z"/><path class="cls-6" d="M2.014648,22.690059h-.029297l-1.822754,1.289062c-.07373.05957-.162598.029785-.162598-.088867v-.62207c0-.104004.029297-.163086.103516-.222168l1.866699-1.348633c.074219-.059082.133301-.088867.222168-.088867h.474121c.089355,0,.148438.05957.148438.148438v9.778809c0,.088867-.059082.147949-.148438.147949h-.503418c-.088867,0-.148438-.059082-.148438-.147949v-8.845703Z"/><path class="cls-6" d="M6.575684,31.150508c0-.088867.014648-.133301.059082-.192871l3.71875-4.874512c.503906-.651855.82959-1.289062.82959-1.970703,0-1.096191-.785156-1.881348-1.925781-1.881348-1.111328,0-1.748535.681152-1.92627,1.733398-.014648.088867-.074219.133301-.177734.118652l-.459473-.118652c-.088867-.014648-.133301-.074219-.118164-.163086.162598-1.229492,1.081543-2.34082,2.696289-2.34082,1.629883,0,2.711426,1.111328,2.711426,2.651855,0,.88916-.385254,1.629883-1.022461,2.459473l-3.318848,4.32666v.014648h4.193359c.088867,0,.147949.05957.147949.148438v.474121c0,.088867-.059082.147949-.147949.147949h-5.111816c-.088867,0-.147949-.059082-.147949-.147949v-.385254Z"/><path class="cls-6" d="M13.61084,26.646113c0-2.415039.104004-3.022461.222168-3.37793.385254-1.17041,1.318848-1.807617,2.592773-1.807617,1.274414,0,2.208008.637207,2.593262,1.807617.118164.355469.222168.962891.222168,3.37793s-.104004,3.022461-.222168,3.378418c-.385254,1.17041-1.318848,1.807129-2.593262,1.807129-1.273926,0-2.20752-.636719-2.592773-1.807129-.118164-.355957-.222168-.963379-.222168-3.378418ZM16.425781,31.076289c.88916,0,1.526367-.385254,1.807617-1.22998.104004-.325684.20752-.874023.20752-3.200195s-.103516-2.874512-.20752-3.200195c-.28125-.844727-.918457-1.22998-1.807617-1.22998-.888672,0-1.525879.385254-1.807129,1.22998-.104004.325684-.20752.874023-.20752,3.200195s.103516,2.874512.20752,3.200195c.28125.844727.918457,1.22998,1.807129,1.22998Z"/><path class="cls-6" d="M20.749512,26.646113c0-2.415039.104004-3.022461.222168-3.37793.385254-1.17041,1.318848-1.807617,2.592773-1.807617,1.274414,0,2.208008.637207,2.593262,1.807617.118164.355469.222168.962891.222168,3.37793s-.104004,3.022461-.222168,3.378418c-.385254,1.17041-1.318848,1.807129-2.593262,1.807129-1.273926,0-2.20752-.636719-2.592773-1.807129-.118164-.355957-.222168-.963379-.222168-3.378418ZM23.564453,31.076289c.88916,0,1.526367-.385254,1.807617-1.22998.104004-.325684.20752-.874023.20752-3.200195s-.103516-2.874512-.20752-3.200195c-.28125-.844727-.918457-1.22998-1.807617-1.22998-.888672,0-1.525879.385254-1.807129,1.22998-.104004.325684-.20752.874023-.20752,3.200195s.103516,2.874512.20752,3.200195c.28125.844727.918457,1.22998,1.807129,1.22998Z"/><path class="cls-6" d="M459.493164,367.496211l.474121-.118164c.103516-.030273.162598.029297.192383.118164.148438.888672.800293,1.541016,1.92627,1.541016.82959,0,1.496582-.385742,1.763184-1.15625.103516-.325195.147949-.785156.147949-1.451172,0-.697266-.059082-1.141602-.177734-1.482422-.236816-.754883-.859375-1.125977-1.703613-1.125977-.948242,0-1.585449.563477-1.77832,1.200195-.029297.103516-.059082.148438-.147949.148438h-.48877c-.089355,0-.148438-.05957-.148438-.148438v-5.289062c0-.088867.059082-.148438.148438-.148438h4.755859c.088867,0,.147949.05957.147949.148438v.473633c0,.088867-.059082.148438-.147949.148438h-4.044922c-.059082,0-.088867.029297-.088867.088867v3.481445h.029785c.251465-.429688.918457-.874023,1.836914-.874023,1.185547,0,2.029785.548828,2.370605,1.600586.133301.415039.237305.962891.237305,1.77832,0,.754883-.074219,1.288086-.20752,1.688477-.355469,1.082031-1.289062,1.689453-2.489258,1.689453-1.555664,0-2.54834-.904297-2.711426-2.133789-.014648-.074219.015137-.148438.104004-.177734Z"/><path class="cls-6" d="M474.231445,369.659297c-.104004,0-.148438-.029297-.222168-.148438l-2.252441-3.65918-1.51123,1.777344v1.881836c0,.088867-.059082.148438-.147949.148438h-.503906c-.088867,0-.147949-.05957-.147949-.148438v-9.77832c0-.088867.059082-.148438.147949-.148438h.503906c.088867,0,.147949.05957.147949.148438v6.786133l3.200195-3.77832c.088867-.103516.133789-.148438.251953-.148438h.607422c.088867,0,.133301.088867.074219.148438l-2.088867,2.473633,2.637207,4.296875c.044434.074219,0,.148438-.088867.148438h-.607422Z"/><path class="cls-6" d="M485.415527,369.659297c-.089355,0-.148438-.05957-.148438-.148438v-4.177734c0-1.408203-.637207-2.119141-1.866699-2.119141-1.081543,0-1.911621.741211-1.911621,1.970703v4.326172c0,.088867-.059082.148438-.147949.148438h-.503906c-.088867,0-.147949-.05957-.147949-.148438v-4.177734c0-1.408203-.622559-2.119141-1.852051-2.119141-1.081543,0-1.92627.741211-1.92627,1.970703v4.326172c0,.088867-.059082.148438-.147949.148438h-.503906c-.088867,0-.147949-.05957-.147949-.148438v-6.770508c0-.088867.059082-.148438.147949-.148438h.503906c.088867,0,.147949.05957.147949.148438v.844727h.015137c.355469-.697266,1.096191-1.141602,2.088867-1.141602,1.096191,0,1.837402.459961,2.192871,1.319336h.014648c.415039-.81543,1.17041-1.319336,2.326172-1.319336,1.600098,0,2.519043.978516,2.519043,2.697266v4.370117c0,.088867-.05957.148438-.148438.148438h-.503418Z"/><path class="cls-6" d="M654.189941,360.399531v-.044922h-3.644531c-.059082,0-.088867.029297-.088867.088867v1.37793c0,.088867-.05957.148438-.148438.148438h-.503418c-.088867,0-.148438-.05957-.148438-.148438v-2.088867c0-.088867.05957-.148438.148438-.148438h5.09668c.088867,0,.147949.05957.147949.148438v.547852c0,.05957-.014648.103516-.029297.148438l-3.615234,9.09668c-.044434.104492-.074219.133789-.192871.133789h-.547852c-.088867,0-.118652-.05957-.074219-.163086l3.600098-9.09668Z"/><path class="cls-6" d="M656.661621,368.370235h.637207c.088867,0,.147949.05957.147949.148438v1.111328c0,.147461-.014648.207031-.07373.325195l-.578125,1.141602c-.044434.088867-.103516.118164-.177734.118164s-.103516-.043945-.103516-.133789v-2.5625c0-.088867.059082-.148438.147949-.148438Z"/><path class="cls-6" d="M659.269043,367.496211l.474121-.118164c.103516-.030273.162598.029297.192383.118164.148438.888672.800293,1.541016,1.92627,1.541016.82959,0,1.496582-.385742,1.763184-1.15625.103516-.325195.147949-.785156.147949-1.451172,0-.697266-.059082-1.141602-.177734-1.482422-.236816-.754883-.859375-1.125977-1.703613-1.125977-.948242,0-1.585449.563477-1.77832,1.200195-.029297.103516-.059082.148438-.147949.148438h-.489258c-.088867,0-.147949-.05957-.147949-.148438v-5.289062c0-.088867.059082-.148438.147949-.148438h4.756348c.088867,0,.147949.05957.147949.148438v.473633c0,.088867-.059082.148438-.147949.148438h-4.044922c-.059082,0-.088867.029297-.088867.088867v3.481445h.029785c.251465-.429688.918457-.874023,1.836914-.874023,1.185547,0,2.029785.548828,2.370605,1.600586.133301.415039.237305.962891.237305,1.77832,0,.754883-.074219,1.288086-.20752,1.688477-.355469,1.082031-1.289062,1.689453-2.489258,1.689453-1.555664,0-2.54834-.904297-2.711426-2.133789-.014648-.074219.015137-.148438.104004-.177734Z"/><path class="cls-6" d="M674.007324,369.659297c-.104004,0-.148438-.029297-.222656-.148438l-2.251953-3.65918-1.51123,1.777344v1.881836c0,.088867-.059082.148438-.147949.148438h-.503906c-.088867,0-.147949-.05957-.147949-.148438v-9.77832c0-.088867.059082-.148438.147949-.148438h.503906c.088867,0,.147949.05957.147949.148438v6.786133l3.200195-3.77832c.089355-.103516.133789-.148438.251953-.148438h.607422c.088867,0,.133301.088867.074219.148438l-2.088867,2.473633,2.637207,4.296875c.044434.074219,0,.148438-.088867.148438h-.607422Z"/><path class="cls-6" d="M685.190918,369.659297c-.088867,0-.147949-.05957-.147949-.148438v-4.177734c0-1.408203-.637207-2.119141-1.866699-2.119141-1.081543,0-1.911621.741211-1.911621,1.970703v4.326172c0,.088867-.059082.148438-.147949.148438h-.503906c-.088867,0-.147949-.05957-.147949-.148438v-4.177734c0-1.408203-.622559-2.119141-1.852051-2.119141-1.081543,0-1.92627.741211-1.92627,1.970703v4.326172c0,.088867-.059082.148438-.147949.148438h-.503906c-.088867,0-.147949-.05957-.147949-.148438v-6.770508c0-.088867.059082-.148438.147949-.148438h.503906c.088867,0,.147949.05957.147949.148438v.844727h.015137c.355469-.697266,1.096191-1.141602,2.088867-1.141602,1.096191,0,1.837402.459961,2.192871,1.319336h.014648c.415039-.81543,1.17041-1.319336,2.326172-1.319336,1.600098,0,2.519043.978516,2.519043,2.697266v4.370117c0,.088867-.05957.148438-.148438.148438h-.503906Z"/><path class="cls-6" d="M850.217285,360.666133h-.029297l-1.822266,1.289062c-.074219.058594-.163086.029297-.163086-.088867v-.623047c0-.103516.029297-.163086.103516-.22168l1.867188-1.348633c.074219-.05957.132812-.088867.22168-.088867h.474609c.088867,0,.147461.05957.147461.148438v9.77832c0,.088867-.058594.148438-.147461.148438h-.503906c-.088867,0-.148438-.05957-.148438-.148438v-8.844727Z"/><path class="cls-6" d="M854.674316,364.622188c0-2.415039.103516-3.023438.222656-3.378906.384766-1.169922,1.318359-1.807617,2.592773-1.807617s2.207031.637695,2.592773,1.807617c.118164.355469.22168.963867.22168,3.378906s-.103516,3.022461-.22168,3.37793c-.385742,1.169922-1.318359,1.807617-2.592773,1.807617s-2.208008-.637695-2.592773-1.807617c-.119141-.355469-.222656-.962891-.222656-3.37793ZM857.489746,369.051875c.888672,0,1.525391-.385742,1.807617-1.229492.103516-.326172.207031-.874023.207031-3.200195s-.103516-2.875-.207031-3.201172c-.282227-.84375-.918945-1.229492-1.807617-1.229492-.889648,0-1.526367.385742-1.807617,1.229492-.103516.326172-.208008.875-.208008,3.201172s.104492,2.874023.208008,3.200195c.28125.84375.917969,1.229492,1.807617,1.229492Z"/><path class="cls-6" d="M869.73877,369.659297c-.103516,0-.147461-.029297-.22168-.148438l-2.251953-3.65918-1.511719,1.777344v1.881836c0,.088867-.05957.148438-.148438.148438h-.50293c-.089844,0-.148438-.05957-.148438-.148438v-9.77832c0-.088867.058594-.148438.148438-.148438h.50293c.088867,0,.148438.05957.148438.148438v6.786133l3.200195-3.77832c.088867-.103516.133789-.148438.251953-.148438h.607422c.088867,0,.133789.088867.074219.148438l-2.088867,2.473633,2.636719,4.296875c.044922.074219,0,.148438-.088867.148438h-.607422Z"/><path class="cls-6" d="M880.92334,369.659297c-.088867,0-.148438-.05957-.148438-.148438v-4.177734c0-1.408203-.636719-2.119141-1.867188-2.119141-1.081055,0-1.911133.741211-1.911133,1.970703v4.326172c0,.088867-.058594.148438-.148438.148438h-.50293c-.088867,0-.148438-.05957-.148438-.148438v-4.177734c0-1.408203-.62207-2.119141-1.852539-2.119141-1.081055,0-1.925781.741211-1.925781,1.970703v4.326172c0,.088867-.05957.148438-.148438.148438h-.50293c-.088867,0-.148438-.05957-.148438-.148438v-6.770508c0-.088867.05957-.148438.148438-.148438h.50293c.088867,0,.148438.05957.148438.148438v.844727h.014648c.355469-.697266,1.09668-1.141602,2.088867-1.141602,1.09668,0,1.837891.459961,2.193359,1.319336h.014648c.415039-.81543,1.170898-1.319336,2.326172-1.319336,1.600586,0,2.518555.978516,2.518555,2.697266v4.370117c0,.088867-.058594.148438-.147461.148438h-.503906Z"/><path class="cls-6" d="M1042.378418,360.666133h-.029297l-1.822266,1.289062c-.074219.058594-.163086.029297-.163086-.088867v-.623047c0-.103516.029297-.163086.103516-.22168l1.867188-1.348633c.074219-.05957.132812-.088867.22168-.088867h.474609c.088867,0,.147461.05957.147461.148438v9.77832c0,.088867-.058594.148438-.147461.148438h-.503906c-.088867,0-.148438-.05957-.148438-.148438v-8.844727Z"/><path class="cls-6" d="M1046.938965,369.126094c0-.088867.014648-.133789.05957-.192383l3.71875-4.875c.503906-.652344.830078-1.289062.830078-1.970703,0-1.09668-.785156-1.881836-1.926758-1.881836-1.111328,0-1.748047.681641-1.925781,1.733398-.014648.088867-.074219.133789-.177734.119141l-.458984-.119141c-.088867-.014648-.133789-.073242-.119141-.162109.163086-1.230469,1.082031-2.341797,2.697266-2.341797,1.628906,0,2.710938,1.111328,2.710938,2.652344,0,.888672-.384766,1.629883-1.022461,2.459961l-3.318359,4.326172v.014648h4.192383c.088867,0,.148438.05957.148438.148438v.473633c0,.088867-.05957.148438-.148438.148438h-5.111328c-.088867,0-.148438-.05957-.148438-.148438v-.384766Z"/><path class="cls-6" d="M1054.10791,368.370235h.636719c.088867,0,.148438.05957.148438.148438v1.111328c0,.147461-.014648.207031-.074219.325195l-.578125,1.141602c-.043945.088867-.103516.118164-.177734.118164s-.103516-.043945-.103516-.133789v-2.5625c0-.088867.05957-.148438.148438-.148438Z"/><path class="cls-6" d="M1056.715332,367.496211l.473633-.118164c.104492-.030273.163086.029297.193359.118164.147461.888672.799805,1.541016,1.925781,1.541016.830078,0,1.496094-.385742,1.762695-1.15625.104492-.325195.148438-.785156.148438-1.451172,0-.697266-.05957-1.141602-.177734-1.482422-.237305-.754883-.859375-1.125977-1.704102-1.125977-.948242,0-1.584961.563477-1.777344,1.200195-.030273.103516-.05957.148438-.148438.148438h-.489258c-.088867,0-.147461-.05957-.147461-.148438v-5.289062c0-.088867.058594-.148438.147461-.148438h4.755859c.088867,0,.148438.05957.148438.148438v.473633c0,.088867-.05957.148438-.148438.148438h-4.044922c-.058594,0-.088867.029297-.088867.088867v3.481445h.030273c.251953-.429688.917969-.874023,1.836914-.874023,1.185547,0,2.030273.548828,2.371094,1.600586.132812.415039.236328.962891.236328,1.77832,0,.754883-.073242,1.288086-.207031,1.688477-.355469,1.082031-1.289062,1.689453-2.489258,1.689453-1.555664,0-2.547852-.904297-2.710938-2.133789-.015625-.074219.014648-.148438.103516-.177734Z"/><path class="cls-6" d="M1071.452637,369.659297c-.103516,0-.147461-.029297-.22168-.148438l-2.251953-3.65918-1.511719,1.777344v1.881836c0,.088867-.05957.148438-.148438.148438h-.50293c-.088867,0-.148438-.05957-.148438-.148438v-9.77832c0-.088867.05957-.148438.148438-.148438h.50293c.088867,0,.148438.05957.148438.148438v6.786133l3.200195-3.77832c.088867-.103516.133789-.148438.251953-.148438h.607422c.088867,0,.133789.088867.074219.148438l-2.088867,2.473633,2.636719,4.296875c.044922.074219,0,.148438-.088867.148438h-.607422Z"/><path class="cls-6" d="M1082.637207,369.659297c-.088867,0-.148438-.05957-.148438-.148438v-4.177734c0-1.408203-.636719-2.119141-1.867188-2.119141-1.081055,0-1.911133.741211-1.911133,1.970703v4.326172c0,.088867-.058594.148438-.148438.148438h-.50293c-.088867,0-.148438-.05957-.148438-.148438v-4.177734c0-1.408203-.62207-2.119141-1.852539-2.119141-1.081055,0-1.925781.741211-1.925781,1.970703v4.326172c0,.088867-.05957.148438-.148438.148438h-.50293c-.089844,0-.148438-.05957-.148438-.148438v-6.770508c0-.088867.058594-.148438.148438-.148438h.50293c.088867,0,.148438.05957.148438.148438v.844727h.014648c.355469-.697266,1.09668-1.141602,2.089844-1.141602,1.095703,0,1.836914.459961,2.192383,1.319336h.014648c.415039-.81543,1.170898-1.319336,2.326172-1.319336,1.600586,0,2.518555.978516,2.518555,2.697266v4.370117c0,.088867-.058594.148438-.147461.148438h-.503906Z"/><path class="cls-6" d="M1244.093262,360.666133h-.029297l-1.822266,1.289062c-.074219.058594-.163086.029297-.163086-.088867v-.623047c0-.103516.029297-.163086.103516-.22168l1.867188-1.348633c.074219-.05957.132812-.088867.22168-.088867h.474609c.088867,0,.147461.05957.147461.148438v9.77832c0,.088867-.058594.148438-.147461.148438h-.503906c-.088867,0-.148438-.05957-.148438-.148438v-8.844727Z"/><path class="cls-6" d="M1248.876465,367.496211l.473633-.118164c.104492-.030273.163086.029297.193359.118164.147461.888672.799805,1.541016,1.925781,1.541016.830078,0,1.496094-.385742,1.762695-1.15625.104492-.325195.148438-.785156.148438-1.451172,0-.697266-.05957-1.141602-.177734-1.482422-.237305-.754883-.859375-1.125977-1.704102-1.125977-.948242,0-1.584961.563477-1.777344,1.200195-.030273.103516-.05957.148438-.148438.148438h-.489258c-.088867,0-.147461-.05957-.147461-.148438v-5.289062c0-.088867.058594-.148438.147461-.148438h4.755859c.088867,0,.148438.05957.148438.148438v.473633c0,.088867-.05957.148438-.148438.148438h-4.043945c-.05957,0-.089844.029297-.089844.088867v3.481445h.030273c.251953-.429688.917969-.874023,1.836914-.874023,1.185547,0,2.030273.548828,2.371094,1.600586.132812.415039.236328.962891.236328,1.77832,0,.754883-.073242,1.288086-.207031,1.688477-.355469,1.082031-1.289062,1.689453-2.489258,1.689453-1.555664,0-2.547852-.904297-2.710938-2.133789-.015625-.074219.014648-.148438.103516-.177734Z"/><path class="cls-6" d="M1263.614746,369.659297c-.103516,0-.147461-.029297-.22168-.148438l-2.251953-3.65918-1.511719,1.777344v1.881836c0,.088867-.05957.148438-.148438.148438h-.50293c-.088867,0-.148438-.05957-.148438-.148438v-9.77832c0-.088867.05957-.148438.148438-.148438h.50293c.088867,0,.148438.05957.148438.148438v6.786133l3.200195-3.77832c.088867-.103516.133789-.148438.251953-.148438h.607422c.088867,0,.133789.088867.074219.148438l-2.088867,2.473633,2.636719,4.296875c.044922.074219,0,.148438-.088867.148438h-.607422Z"/><path class="cls-6" d="M1274.799316,369.659297c-.088867,0-.148438-.05957-.148438-.148438v-4.177734c0-1.408203-.636719-2.119141-1.867188-2.119141-1.081055,0-1.911133.741211-1.911133,1.970703v4.326172c0,.088867-.058594.148438-.148438.148438h-.50293c-.088867,0-.148438-.05957-.148438-.148438v-4.177734c0-1.408203-.62207-2.119141-1.852539-2.119141-1.081055,0-1.925781.741211-1.925781,1.970703v4.326172c0,.088867-.05957.148438-.148438.148438h-.50293c-.089844,0-.148438-.05957-.148438-.148438v-6.770508c0-.088867.058594-.148438.148438-.148438h.50293c.088867,0,.148438.05957.148438.148438v.844727h.014648c.355469-.697266,1.09668-1.141602,2.089844-1.141602,1.095703,0,1.836914.459961,2.192383,1.319336h.014648c.415039-.81543,1.170898-1.319336,2.326172-1.319336,1.600586,0,2.518555.978516,2.518555,2.697266v4.370117c0,.088867-.058594.148438-.147461.148438h-.503906Z"/><path class="cls-6" d="M1436.255371,360.666133h-.029297l-1.822266,1.289062c-.074219.058594-.163086.029297-.163086-.088867v-.623047c0-.103516.029297-.163086.103516-.22168l1.867188-1.348633c.074219-.05957.132812-.088867.22168-.088867h.474609c.088867,0,.147461.05957.147461.148438v9.77832c0,.088867-.058594.148438-.147461.148438h-.503906c-.088867,0-.148438-.05957-.148438-.148438v-8.844727Z"/><path class="cls-6" d="M1445.513184,360.399531v-.044922h-3.645508c-.058594,0-.088867.029297-.088867.088867v1.37793c0,.088867-.058594.148438-.147461.148438h-.503906c-.088867,0-.148438-.05957-.148438-.148438v-2.088867c0-.088867.05957-.148438.148438-.148438h5.09668c.088867,0,.148438.05957.148438.148438v.547852c0,.05957-.014648.103516-.030273.148438l-3.615234,9.09668c-.043945.104492-.073242.133789-.192383.133789h-.547852c-.088867,0-.119141-.05957-.074219-.163086l3.600586-9.09668Z"/><path class="cls-6" d="M1447.984863,368.370235h.636719c.088867,0,.148438.05957.148438.148438v1.111328c0,.147461-.014648.207031-.074219.325195l-.578125,1.141602c-.043945.088867-.103516.118164-.177734.118164s-.103516-.043945-.103516-.133789v-2.5625c0-.088867.05957-.148438.148438-.148438Z"/><path class="cls-6" d="M1450.592285,367.496211l.473633-.118164c.104492-.030273.163086.029297.193359.118164.147461.888672.799805,1.541016,1.925781,1.541016.830078,0,1.496094-.385742,1.762695-1.15625.104492-.325195.148438-.785156.148438-1.451172,0-.697266-.05957-1.141602-.177734-1.482422-.237305-.754883-.859375-1.125977-1.704102-1.125977-.948242,0-1.584961.563477-1.777344,1.200195-.030273.103516-.05957.148438-.148438.148438h-.489258c-.088867,0-.147461-.05957-.147461-.148438v-5.289062c0-.088867.058594-.148438.147461-.148438h4.755859c.088867,0,.148438.05957.148438.148438v.473633c0,.088867-.05957.148438-.148438.148438h-4.044922c-.058594,0-.088867.029297-.088867.088867v3.481445h.030273c.251953-.429688.917969-.874023,1.836914-.874023,1.185547,0,2.030273.548828,2.371094,1.600586.132812.415039.236328.962891.236328,1.77832,0,.754883-.073242,1.288086-.207031,1.688477-.355469,1.082031-1.289062,1.689453-2.489258,1.689453-1.555664,0-2.547852-.904297-2.710938-2.133789-.015625-.074219.014648-.148438.103516-.177734Z"/><path class="cls-6" d="M1465.32959,369.659297c-.103516,0-.147461-.029297-.22168-.148438l-2.251953-3.65918-1.511719,1.777344v1.881836c0,.088867-.05957.148438-.148438.148438h-.50293c-.088867,0-.148438-.05957-.148438-.148438v-9.77832c0-.088867.05957-.148438.148438-.148438h.50293c.088867,0,.148438.05957.148438.148438v6.786133l3.200195-3.77832c.088867-.103516.133789-.148438.251953-.148438h.607422c.088867,0,.133789.088867.074219.148438l-2.088867,2.473633,2.636719,4.296875c.044922.074219,0,.148438-.088867.148438h-.607422Z"/><path class="cls-6" d="M1476.51416,369.659297c-.088867,0-.148438-.05957-.148438-.148438v-4.177734c0-1.408203-.636719-2.119141-1.867188-2.119141-1.081055,0-1.911133.741211-1.911133,1.970703v4.326172c0,.088867-.058594.148438-.148438.148438h-.50293c-.088867,0-.148438-.05957-.148438-.148438v-4.177734c0-1.408203-.62207-2.119141-1.852539-2.119141-1.081055,0-1.925781.741211-1.925781,1.970703v4.326172c0,.088867-.05957.148438-.148438.148438h-.50293c-.089844,0-.148438-.05957-.148438-.148438v-6.770508c0-.088867.058594-.148438.148438-.148438h.50293c.088867,0,.148438.05957.148438.148438v.844727h.014648c.355469-.697266,1.09668-1.141602,2.089844-1.141602,1.095703,0,1.836914.459961,2.192383,1.319336h.014648c.415039-.81543,1.170898-1.319336,2.326172-1.319336,1.600586,0,2.518555.978516,2.518555,2.697266v4.370117c0,.088867-.058594.148438-.147461.148438h-.503906Z"/><circle class="cls-4" cx="1468.281473" cy="234.297703" r="6.332179"/><circle class="cls-4" cx="1154.647815" cy="151.572988" r="6.332179"/><circle class="cls-4" cx="918.896654" cy="142.442443" r="6.332179"/><circle class="cls-3" cx="816.265895" cy="53.430506" r="6.332179"/><circle class="cls-4" cx="551.794612" cy="160.93907" r="6.332179"/><circle class="cls-3" cx="204.486888" cy="264.593156" r="6.332179"/><circle class="cls-4" cx="79.885597" cy="234.744406" r="6.332179"/></svg>