<?xml version="1.0" encoding="UTF-8"?><svg id="Vrstva_1" xmlns="http://www.w3.org/2000/svg" viewBox="0 0 898.388377 541.753908"><defs><style>.cls-1{stroke-width:3.2313px;}.cls-1,.cls-2,.cls-3,.cls-4,.cls-5{stroke-miterlimit:10;}.cls-1,.cls-2,.cls-3,.cls-5{stroke-linecap:round;}.cls-1,.cls-2,.cls-5{stroke:#d1050c;}.cls-1,.cls-3,.cls-4{fill:none;}.cls-2{fill:#da373d;}.cls-2,.cls-5{stroke-width:1.376025px;}.cls-3{stroke-width:.849423px;}.cls-3,.cls-4{stroke:#ccc;}.cls-6{fill:#ccc;}.cls-4{stroke-width:.776754px;}.cls-5{fill:#fff;}</style></defs><line class="cls-4" x1="215.797023" y1=".424712" x2="215.797023" y2="490.654159"/><line class="cls-4" x1="111.662976" y1=".424712" x2="111.662976" y2="490.654159"/><line class="cls-4" x1="428.312824" y1=".424712" x2="428.312824" y2="490.654159"/><line class="cls-4" x1="534.570724" y1=".424712" x2="534.570724" y2="490.654159"/><line class="cls-4" x1="640.828624" y1=".424712" x2="640.828624" y2="490.654159"/><line class="cls-4" x1="747.086524" y1=".424712" x2="747.086524" y2="490.654159"/><line class="cls-4" x1="853.344425" y1=".424712" x2="853.344425" y2="490.654159"/><line class="cls-4" x1="898" y1=".424712" x2="898" y2="490.654159"/><line class="cls-4" x1="322.054924" y1=".424712" x2="322.054924" y2="490.654159"/><line class="cls-3" x1="112.232838" y1=".424712" x2="897.88801" y2=".424712"/><line class="cls-3" x1="112.20132" y1="38.142938" x2="897.881257" y2="38.142938"/><line class="cls-3" x1="112.169801" y1="75.861162" x2="897.874504" y2="75.861162"/><line class="cls-3" x1="112.138282" y1="113.579387" x2="897.86775" y2="113.579387"/><line class="cls-3" x1="112.106764" y1="151.297612" x2="897.860997" y2="151.297612"/><line class="cls-3" x1="112.075245" y1="189.015836" x2="897.854244" y2="189.015836"/><line class="cls-3" x1="112.043727" y1="226.734061" x2="897.84749" y2="226.734061"/><line class="cls-3" x1="112.012208" y1="264.452285" x2="897.840737" y2="264.452285"/><line class="cls-3" x1="111.98069" y1="302.17051" x2="897.833983" y2="302.17051"/><line class="cls-3" x1="111.949171" y1="339.888734" x2="897.82723" y2="339.888734"/><line class="cls-3" x1="111.917652" y1="377.606959" x2="897.820477" y2="377.606959"/><line class="cls-3" x1="111.886134" y1="415.325183" x2="897.813723" y2="415.325183"/><line class="cls-3" x1="111.854615" y1="453.043408" x2="897.80697" y2="453.043408"/><line class="cls-3" x1="111.823097" y1="490.761634" x2="897.800217" y2="490.761634"/><path class="cls-1" d="M860.271455,330.438739c-4.266576.207861-7.708331,1.449035-10.033751,2.520986-6.337176,2.921732-9.911284,5.672144-9.911459,5.672144-4.111253,3.163737-5.404019,5.205805-7.953614,3.781329-2.375547-1.327134-2.507086-3.800199-5.628659-6.302315l-6.878287-4.867026c-2.545088-.642452-4.576728-2.373926-5.922775-3.771745-2.342668-2.43263-2.847735-4.103304-5.92286-7.54319-2.09689-2.345472-3.68307-3.605816-5.47415-5.028794-1.880788-1.494262-3.842304-3.052619-6.461279-4.40012-2.823106-1.45233-3.323212-1.071651-4.75623-3.143071-1.575917-2.278082-1.712575-3.810981-4.038224-8.171565-2.571085-4.820633-2.756145-3.607613-4.846023-7.54319-2.669003-5.026098-2.727582-7.683661-5.384356-13.200658-.656518-1.363375-2.831743-5.725457-5.653651-8.171865-3.496898-3.031353-3.742163.558588-6.999697-3.143071-1.574464-1.78928-1.602856-2.725253-4.397227-6.285842-2.542693-3.239813-2.536622-2.487141-4.397313-5.028794-2.266728-3.096347-2.477101-4.488475-5.653566-9.428913-2.065677-3.212857-3.098558-4.819136-4.128018-5.657468-1.681532-1.369365-2.57442-.821859-5.92286,0-5.122844,1.257648-4.272286.280642-6.64078,1.257049-3.58558,1.478387-4.303585,3.209862-7.179199,3.143071-1.555308-.035941-2.686962-.09794-4.217726-1.885723-1.819728-2.125032-2.424337-4.611574-4.846023-9.428913-2.360199-4.695138-4.177618-7.091228-5.474064-8.800539-1.149356-1.515227-1.604395-1.876737-6.64078-6.285842-5.587289-4.891318-6.019239-5.314827-7.089448-5.657468-2.214092-.708943-3.134133.216846-6.371571,1.257348-3.373069,1.084231-5.718644,1.141737-10.409795,1.257049-5.383544.132384-5.20323-1.038106-10.858549-1.257049-6.254797-.242005-6.153074,1.202238-13.550727,1.257049-4.49925.033246-4.407532-.501981-11.486718-.628674-4.828963-.086559-4.762173.164432-8.794497,0-5.418649-.221039-6.195832-.701156-10.409838-.628375-2.468977.042531-4.264675.242904-7.71766.628375-4.734893.528338-4.919568.799995-8.973956,1.257348-1.804121.203368-5.474962.348032-12.743099.628674-4.212338.162635-5.684908.200074-7.897119,0-4.357718-.393857-6.544231-1.253155-7.897119-1.886022-.635524-.297415-2.580578-1.243571-5.115147-3.142771-2.712061-2.032184-2.494889-2.454794-5.653608-5.028794-3.949628-3.218548-4.317867-2.581188-5.5639-5.657468-2.033052-5.019509-1.941377-8.91016-3.769058-12.571984-1.90392-3.814575-2.466112-.519352-5.20494-1.885723-1.172061-.584646-2.755632-3.113719-5.922818-8.171865-2.802624-4.475896-4.203915-6.713844-5.653608-10.057587-.690212-1.591902-1.000384-2.461383-5.743359-16.343729-3.913369-11.454208-4.211611-12.353341-5.025439-14.457707-2.05721-5.319619-2.197844-4.86586-5.20494-11.94331-.843502-1.98516-.923248-2.234653-6.461236-16.343729-4.375164-11.14661-4.733055-12.02927-5.5639-15.086081-2.535681-9.328577-2.444819-13.03413-4.128018-16.972403-1.227177-2.871115-2.8689-2.372129-6.102319-1.257049-3.272714,1.128858-4.938297,1.772507-6.371528,5.657468-.428999,1.163002-1.482532,5.384912-3.589599,13.829033-3.090134,12.383891-3.182536,13.435774-4.39727,17.600778-1.982511,6.797407-3.625987,10.473908-4.576728,12.571984-2.231709,4.925163-2.498994,3.852014-5.294648,9.428913-1.66802,3.32757-2.967331,5.91954-4.576771,10.686261-2.958052,8.761003-2.891049,12.806501-5.384356,19.4865-.982853,2.633003-2.450035,4.898506-5.384399,9.428913-2.356864,3.638762-3.552527,5.462186-4.39727,5.657468-1.538546.35552-1.790652-1.478986-5.47415-5.657468-3.375634-3.829251-3.389702-2.544647-5.474107-5.657168-2.435241-3.636366-2.367639-5.317522-4.935731-9.429213-1.774831-2.841463-3.24723-4.199148-6.192027-6.914516-2.285414-2.107361-3.428142-3.161042-4.935688-3.771445-.498183-.201871-2.596313-.995276-5.47415,0-1.743104.602916-3.226064,1.868651-6.19207,4.40012-2.67888,2.286469-4.658269,4.32614-6.550987,6.285842-2.60743,2.699794-3.911145,4.049691-5.025439,5.657468-2.617692,3.776837-2.831957,5.44751-4.84598,7.54319-1.733826,1.803956-1.90563.909915-4.397227,3.143071-1.532004,1.37296-2.562876,2.296952-3.858851,4.40012-2.061144,3.344642-2.422327,5.824894-4.935688,11.314935-.62291,1.36068-2.664,5.714974-5.025439,8.800239-1.714755,2.240344-1.965835,1.678461-5.922818,4.40012-3.862187,2.656665-5.793258,3.984997-7.807368,6.914816-.545987.794304-1.979304,3.253291-4.84598,8.171565-2.224654,3.816672-3.33698,5.725157-3.948559,6.914516-3.215417,6.253495-3.631204,8.931126-6.012568,13.200658-2.09347,3.753175-3.72027,5.176453-5.025439,6.286142-2.882155,2.450301-3.826782,1.294488-7.179199,2.514397-2.04729.744884-3.81776,2.172954-7.358657,5.028794-4.443599,3.583951-6.665388,5.375927-8.794518,8.800239-3.208148,5.15968-3.135031,7.487781-5.833088,10.686261-2.353785,2.790546-2.923033,1.627544-6.551008,5.028794-2.23327,2.093584-3.936779,4.333628-4.93571,5.657468-4.206117,5.574204-4.187517,7.523423-6.999719,10.685962-3.545494,3.987094-3.702226,1.031816-6.909968,5.657468-1.997327,2.8801-2.112476,4.279716-4.756208,8.171865-2.113951,3.112221-3.791955,4.796373-5.29467,6.285842-3.450398,3.420119-3.504231,2.282875-5.653608,5.028794-2.408559,3.077178-2.407725,4.590609-5.115168,8.171865-1.989352,2.631506-3.522896,3.84243-5.025439,5.028794-2.134091,1.68505-3.758945,2.421548-5.384399,3.143071-2.634603,1.169591-2.888762.801792-5.384399,1.885723-3.00235,1.304072-3.193845,2.079207-5.563879,3.143071-2.747615,1.233387-3.009299.424407-7.358679,1.257049-3.596419.688277-5.39464,1.032715-7.717617,2.514397-3.486422,2.223871-3.613737,3.954746-7.268949,6.286142-2.493671,1.590704-4.295034,1.983363-6.730488,2.514397-4.166992.908418-6.250499,1.362776-8.525288-.628674-.149613-.130886-.118399-.110819-5.204919-6.914516-3.710949-4.9638-5.593276-7.447347-6.909968-7.54319-2.316435-.168325-2.200773,2.632105-5.11519,3.142771-3.477208.609206-3.614549-3.382081-6.192048-1.885723-.991084.575361-2.694829,3.736103-6.102319,10.057587-2.495573,4.629845-3.743339,6.944467-5.115168,10.057587-3.120236,7.080745-3.476652,9.751786-5.204919,11.94331-.533287.676296-1.512741,1.706915-4.935688.628674-2.464124-.776333-4.053083-1.970784-8.345829-5.028794-3.702429-2.637496-5.569993-3.96493-6.371528-4.40012-2.389435-1.297183-2.741287-1.068357-7.179188-3.143071-3.844613-1.797367-4.686672-2.486243-5.384399-3.143071-2.612048-2.458688-2.994215-4.270431-5.115179-6.285842-2.690329-2.556328-3.126062-.639157-6.551008-1.885723-.991833-.360911-4.306204-1.741358-8.345818-6.914816-3.143208-4.025431-3.941451-6.781833-6.887798-8.970062-1.676807-1.245368-3.092219-1.575429-4.282719-1.890515-2.48824-.658625-4.551511-.387867-5.995796,0"/><path class="cls-6" d="M189.417011,538.648855c0-.132099.021775-.198874.087824-.285973l5.527836-7.246574c.749045-.969694,1.233166-1.916161,1.233166-2.929404,0-1.630189-1.167117-2.797305-2.862629-2.797305-1.651963,0-2.599157,1.013243-2.863355,2.576657-.021775.132099-.110324.198874-.264198.1771l-.682995-.1771c-.132099-.021775-.198149-.108873-.175648-.240972.241698-1.829063,1.607689-3.481027,4.007971-3.481027,2.422783,0,4.030471,1.651963,4.030471,3.942647,0,1.32099-.572671,2.422783-1.519864,3.656675l-4.93339,6.430754v.021775h6.233331c.132099,0,.219923.08855.219923.220649v.704044c0,.132099-.087824.220649-.219923.220649h-7.598596c-.132099,0-.219923-.08855-.219923-.220649v-.571945Z"/><path class="cls-6" d="M200.07203,537.525288h.947193c.132099,0,.219923.08855.219923.220649v1.651963c0,.219197-.021775.307747-.109599.483395l-.859369,1.696964c-.06605.132099-.153874.175648-.264198.175648s-.153874-.065324-.153874-.198874v-3.809097c0-.132099.087824-.220649.219923-.220649Z"/><path class="cls-6" d="M203.947902,536.226072l.70477-.175648c.153874-.045001.241698.043549.285973.175648.220649,1.32099,1.189617,2.290684,2.863355,2.290684,1.233166,0,2.224634-.573397,2.620931-1.718739.153874-.483395.219923-1.167117.219923-2.157133,0-1.036469-.087824-1.696964-.264198-2.203586-.352022-1.122116-1.277441-1.673738-2.532382-1.673738-1.40954,0-2.356733.837595-2.643432,1.784062-.043549.153874-.087824.220649-.219923.220649h-.72727c-.132099,0-.219923-.08855-.219923-.220649v-7.862069c0-.132099.087824-.220649.219923-.220649h7.0702c.132099,0,.219923.08855.219923.220649v.704044c0,.132099-.087824.220649-.219923.220649h-6.012682c-.087824,0-.132099.043549-.132099.132099v5.175088h.044275c.373797-.63872,1.365265-1.299216,2.73053-1.299216,1.762288,0,3.017229.81582,3.52385,2.379234.198149.616946.352748,1.431315.352748,2.643432,0,1.122116-.110324,1.91471-.308473,2.509881-.528396,1.608414-1.916161,2.511333-3.700224,2.511333-2.312459,0-3.788048-1.344216-4.030471-3.171828-.021775-.110324.0225-.220649.154599-.264198Z"/><path class="cls-6" d="M225.856015,539.441449c-.154599,0-.220649-.043549-.330973-.220649l-3.347476-5.439286-2.246409,2.64198v2.797305c0,.132099-.087824.220649-.219923.220649h-.749045c-.132099,0-.219923-.08855-.219923-.220649v-14.535246c0-.132099.087824-.220649.219923-.220649h.749045c.132099,0,.219923.08855.219923.220649v10.087429l4.757016-5.616385c.132825-.153874.198874-.220649.374522-.220649h.902919c.132099,0,.198149.132099.110324.220649l-3.105053,3.676998,3.920147,6.387205c.06605.110324,0,.220649-.132099.220649h-.902919Z"/><path class="cls-6" d="M242.480167,539.441449c-.132099,0-.219923-.08855-.219923-.220649v-6.210105c0-2.093261-.947193-3.150053-2.774805-3.150053-1.607689,0-2.84158,1.101793-2.84158,2.929404v6.430754c0,.132099-.087824.220649-.219923.220649h-.749045c-.132099,0-.219923-.08855-.219923-.220649v-6.210105c0-2.093261-.925419-3.150053-2.753031-3.150053-1.607689,0-2.863355,1.101793-2.863355,2.929404v6.430754c0,.132099-.087824.220649-.219923.220649h-.749045c-.132099,0-.219923-.08855-.219923-.220649v-10.064203c0-.132099.087824-.220649.219923-.220649h.749045c.132099,0,.219923.08855.219923.220649v1.255666h.0225c.528396-1.036469,1.629463-1.696964,3.105053-1.696964,1.629463,0,2.731256.683721,3.259652,1.961162h.021775c.616946-1.212117,1.739788-1.961162,3.457801-1.961162,2.378508,0,3.744499,1.454541,3.744499,4.009423v6.496078c0,.132099-.08855.220649-.220649.220649h-.749045Z"/><path class="cls-6" d="M11.801087,337.45516v-.045001c-1.167117-.571945-2.003986-1.784062-2.003986-3.347476,0-2.223909,1.585914-3.942647,4.007971-3.942647,2.422783,0,4.008697,1.718739,4.008697,3.942647,0,1.563414-.836869,2.775531-2.003986,3.347476v.045001c1.40954.59372,2.400283,1.959711,2.400283,3.809097,0,2.511333-1.827612,4.273621-4.404994,4.273621-2.576657,0-4.404268-1.762288-4.404268-4.273621,0-1.849386.990743-3.215377,2.400283-3.809097ZM13.805073,344.392536c1.960436,0,3.216103-1.344216,3.216103-3.171828,0-1.849386-1.277441-3.215377-3.216103-3.215377-1.937936,0-3.215377,1.365991-3.215377,3.215377,0,1.827612,1.255666,3.171828,3.215377,3.171828ZM16.624153,334.062683c0-1.606963-1.144616-2.797305-2.81908-2.797305-1.673738,0-2.81908,1.190343-2.81908,2.797305,0,1.58664,1.101793,2.797305,2.81908,2.797305,1.696238,0,2.81908-1.210666,2.81908-2.797305Z"/><path class="cls-6" d="M20.232198,337.829683c0-3.5899.154599-4.492818.330248-5.022666.572671-1.739062,1.960436-2.686981,3.854098-2.686981,1.894387,0,3.282152.947919,3.854823,2.686981.175648.529848.330248,1.432766.330248,5.022666s-.154599,4.492818-.330248,5.021214c-.572671,1.739062-1.960436,2.686981-3.854823,2.686981-1.893661,0-3.281427-.947919-3.854098-2.686981-.175648-.528396-.330248-1.431315-.330248-5.021214ZM24.416543,344.41431c1.321716,0,2.268909-.573397,2.686981-1.827612.154599-.484847.308473-1.299216.308473-4.757016s-.153874-4.273621-.308473-4.758468c-.418072-1.254215-1.365265-1.827612-2.686981-1.827612-1.32099,0-2.268184.573397-2.686255,1.827612-.154599.484847-.308473,1.300667-.308473,4.758468s.153874,4.272169.308473,4.757016c.418072,1.254215,1.365265,1.827612,2.686255,1.827612Z"/><path class="cls-6" d="M30.844393,337.829683c0-3.5899.154599-4.492818.330248-5.022666.572671-1.739062,1.960436-2.686981,3.854098-2.686981,1.894387,0,3.282152.947919,3.854823,2.686981.175648.529848.330248,1.432766.330248,5.022666s-.154599,4.492818-.330248,5.021214c-.572671,1.739062-1.960436,2.686981-3.854823,2.686981-1.893661,0-3.281427-.947919-3.854098-2.686981-.175648-.528396-.330248-1.431315-.330248-5.021214ZM35.028739,344.41431c1.321716,0,2.268909-.573397,2.686981-1.827612.154599-.484847.308473-1.299216.308473-4.757016s-.153874-4.273621-.308473-4.758468c-.418072-1.254215-1.365265-1.827612-2.686981-1.827612-1.32099,0-2.268184.573397-2.686981,1.827612-.153874.484847-.307747,1.300667-.307747,4.758468s.153874,4.272169.307747,4.757016c.418797,1.254215,1.365991,1.827612,2.686981,1.827612Z"/><path class="cls-6" d="M10.413322,412.254123l3.722724-7.158024c.06605-.110324.132099-.153874.285973-.153874h.815094c.153874,0,.176374.110324.132099.198874l-3.369976,6.496078.044275.023226c.374522-.309199,1.079292-.529848,1.937936-.529848,2.422783,0,4.206845,1.762288,4.206845,4.449269,0,2.797305-1.828337,4.559593-4.360719,4.559593-2.554882,0-4.383219-1.762288-4.383219-4.516044,0-1.188891.418797-2.334233.968968-3.369251ZM13.827573,418.994076c1.871887,0,3.171102-1.365991,3.171102-3.347476,0-1.982937-1.299216-3.370702-3.171102-3.370702-1.894387,0-3.193602,1.387765-3.193602,3.370702,0,1.981485,1.299216,3.347476,3.193602,3.347476Z"/><path class="cls-6" d="M20.232198,412.431222c0-3.5899.154599-4.49427.330248-5.022666.572671-1.739062,1.960436-2.686981,3.854098-2.686981,1.894387,0,3.282152.947919,3.854823,2.686981.175648.528396.330248,1.432766.330248,5.022666s-.154599,4.492818-.330248,5.021214c-.572671,1.739062-1.960436,2.686981-3.854823,2.686981-1.893661,0-3.281427-.947919-3.854098-2.686981-.175648-.528396-.330248-1.431315-.330248-5.021214ZM24.416543,419.01585c1.321716,0,2.268909-.573397,2.686981-1.827612.154599-.484847.308473-1.299216.308473-4.757016s-.153874-4.273621-.308473-4.758468c-.418072-1.254215-1.365265-1.827612-2.686981-1.827612-1.32099,0-2.268184.573397-2.686255,1.827612-.154599.484847-.308473,1.300667-.308473,4.758468s.153874,4.272169.308473,4.757016c.418072,1.254215,1.365265,1.827612,2.686255,1.827612Z"/><path class="cls-6" d="M30.844393,412.431222c0-3.5899.154599-4.49427.330248-5.022666.572671-1.739062,1.960436-2.686981,3.854098-2.686981,1.894387,0,3.282152.947919,3.854823,2.686981.175648.528396.330248,1.432766.330248,5.022666s-.154599,4.492818-.330248,5.021214c-.572671,1.739062-1.960436,2.686981-3.854823,2.686981-1.893661,0-3.281427-.947919-3.854098-2.686981-.175648-.528396-.330248-1.431315-.330248-5.021214ZM35.028739,419.01585c1.321716,0,2.268909-.573397,2.686981-1.827612.154599-.484847.308473-1.299216.308473-4.757016s-.153874-4.273621-.308473-4.758468c-.418072-1.254215-1.365265-1.827612-2.686981-1.827612-1.32099,0-2.268184.573397-2.686981,1.827612-.153874.484847-.307747,1.300667-.307747,4.758468s.153874,4.272169.307747,4.757016c.418797,1.254215,1.365991,1.827612,2.686981,1.827612Z"/><path class="cls-6" d="M15.611635,264.020737l-.044275-.0225c-.374522.308473-1.079292.528396-1.937936.528396-2.422783,0-4.206845-1.761562-4.206845-4.448543,0-2.797305,1.828337-4.558868,4.360719-4.558868,2.554882,0,4.383219,1.761562,4.383219,4.514593,0,1.189617-.418797,2.334959-.969694,3.369976l-3.721999,7.158024c-.06605.110324-.132099.153874-.285973.153874h-.815094c-.153874,0-.176374-.110324-.132099-.198874l3.369976-6.496078ZM16.9769,260.01204c0-1.982211-1.299216-3.347476-3.193602-3.347476-1.871887,0-3.171102,1.365265-3.171102,3.347476s1.299216,3.369976,3.171102,3.369976c1.894387,0,3.193602-1.387765,3.193602-3.369976Z"/><path class="cls-6" d="M20.232198,263.227417c0-3.5899.154599-4.492818.330248-5.021214.572671-1.739788,1.960436-2.686981,3.854098-2.686981,1.894387,0,3.282152.947193,3.854823,2.686981.175648.528396.330248,1.431315.330248,5.021214,0,3.590625-.154599,4.493544-.330248,5.02194-.572671,1.739062-1.960436,2.686981-3.854823,2.686981-1.893661,0-3.281427-.947919-3.854098-2.686981-.175648-.528396-.330248-1.431315-.330248-5.02194ZM24.416543,269.812771c1.321716,0,2.268909-.573397,2.686981-1.827612.154599-.484847.308473-1.299216.308473-4.757742,0-3.457801-.153874-4.272895-.308473-4.757016-.418072-1.255666-1.365265-1.828337-2.686981-1.828337-1.32099,0-2.268184.572671-2.686255,1.828337-.154599.484121-.308473,1.299216-.308473,4.757016,0,3.458526.153874,4.272895.308473,4.757742.418072,1.254215,1.365265,1.827612,2.686255,1.827612Z"/><path class="cls-6" d="M30.844393,263.227417c0-3.5899.154599-4.492818.330248-5.021214.572671-1.739788,1.960436-2.686981,3.854098-2.686981,1.894387,0,3.282152.947193,3.854823,2.686981.175648.528396.330248,1.431315.330248,5.021214,0,3.590625-.154599,4.493544-.330248,5.02194-.572671,1.739062-1.960436,2.686981-3.854823,2.686981-1.893661,0-3.281427-.947919-3.854098-2.686981-.175648-.528396-.330248-1.431315-.330248-5.02194ZM35.028739,269.812771c1.321716,0,2.268909-.573397,2.686981-1.827612.154599-.484847.308473-1.299216.308473-4.757742,0-3.457801-.153874-4.272895-.308473-4.757016-.418072-1.255666-1.365265-1.828337-2.686981-1.828337-1.32099,0-2.268184.572671-2.686981,1.828337-.153874.484121-.307747,1.299216-.307747,4.757016,0,3.458526.153874,4.272895.307747,4.757742.418797,1.254215,1.365991,1.827612,2.686981,1.827612Z"/><path class="cls-6" d="M2.994728,182.746746h-.043549l-2.709481,1.916161c-.109599.08855-.241698.044275-.241698-.132099v-.924693c0-.154599.043549-.242423.153874-.330248l2.774805-2.004711c.110324-.087824.198149-.132099.330248-.132099h.70477c.132825,0,.220649.08855.220649.220649v14.535972c0,.132099-.087824.219923-.220649.219923h-.748319c-.132099,0-.220649-.087824-.220649-.219923v-13.148932Z"/><path class="cls-6" d="M9.620002,188.627329c0-3.5899.154599-4.492818.330248-5.021214.572671-1.739788,1.960436-2.686981,3.854098-2.686981,1.894387,0,3.282152.947193,3.854823,2.686981.175648.528396.330248,1.431315.330248,5.021214s-.154599,4.492818-.330248,5.02194c-.572671,1.739788-1.960436,2.686255-3.854823,2.686255-1.893661,0-3.281427-.946468-3.854098-2.686255-.175648-.529122-.330248-1.43204-.330248-5.02194ZM13.804347,195.212683c1.321716,0,2.268909-.572671,2.686981-1.828337.154599-.484121.308473-1.299216.308473-4.757016s-.153874-4.272895-.308473-4.757016c-.418072-1.255666-1.365265-1.828337-2.686981-1.828337-1.32099,0-2.268184.572671-2.686981,1.828337-.153874.484121-.307747,1.299216-.307747,4.757016s.153874,4.272895.307747,4.757016c.418797,1.255666,1.365991,1.828337,2.686981,1.828337Z"/><path class="cls-6" d="M20.232198,188.627329c0-3.5899.154599-4.492818.330248-5.021214.572671-1.739788,1.960436-2.686981,3.854098-2.686981,1.894387,0,3.282152.947193,3.854823,2.686981.175648.528396.330248,1.431315.330248,5.021214s-.154599,4.492818-.330248,5.02194c-.572671,1.739788-1.960436,2.686255-3.854823,2.686255-1.893661,0-3.281427-.946468-3.854098-2.686255-.175648-.529122-.330248-1.43204-.330248-5.02194ZM24.416543,195.212683c1.321716,0,2.268909-.572671,2.686981-1.828337.154599-.484121.308473-1.299216.308473-4.757016s-.153874-4.272895-.308473-4.757016c-.418072-1.255666-1.365265-1.828337-2.686981-1.828337-1.32099,0-2.268184.572671-2.686255,1.828337-.154599.484121-.308473,1.299216-.308473,4.757016s.153874,4.272895.308473,4.757016c.418072,1.255666,1.365265,1.828337,2.686255,1.828337Z"/><path class="cls-6" d="M30.843668,188.627329c0-3.5899.154599-4.492818.330248-5.021214.572671-1.739788,1.960436-2.686981,3.854098-2.686981,1.894387,0,3.282152.947193,3.854823,2.686981.175648.528396.330248,1.431315.330248,5.021214s-.154599,4.492818-.330248,5.02194c-.572671,1.739788-1.960436,2.686255-3.854823,2.686255-1.893661,0-3.281427-.946468-3.854098-2.686255-.175648-.529122-.330248-1.43204-.330248-5.02194ZM35.028013,195.212683c1.321716,0,2.268909-.572671,2.686981-1.828337.154599-.484121.308473-1.299216.308473-4.757016s-.153874-4.272895-.308473-4.757016c-.418072-1.255666-1.365265-1.828337-2.686981-1.828337-1.32099,0-2.268184.572671-2.686255,1.828337-.154599.484121-.308473,1.299216-.308473,4.757016s.153874,4.272895.308473,4.757016c.418072,1.255666,1.365265,1.828337,2.686255,1.828337Z"/><path class="cls-6" d="M2.994728,108.146658h-.043549l-2.709481,1.916161c-.109599.08855-.241698.044275-.241698-.132099v-.924693c0-.154599.043549-.242423.153874-.330248l2.774805-2.004711c.110324-.087824.198149-.132099.330248-.132099h.70477c.132825,0,.220649.08855.220649.220649v14.535972c0,.132099-.087824.219923-.220649.219923h-.748319c-.132099,0-.220649-.087824-.220649-.219923v-13.148932Z"/><path class="cls-6" d="M13.606198,108.146658h-.043549l-2.709481,1.916161c-.109599.08855-.241698.044275-.241698-.132099v-.924693c0-.154599.043549-.242423.153874-.330248l2.774805-2.004711c.110324-.087824.198149-.132099.330248-.132099h.70477c.132825,0,.220649.08855.220649.220649v14.535972c0,.132099-.087824.219923-.220649.219923h-.748319c-.132099,0-.220649-.087824-.220649-.219923v-13.148932Z"/><path class="cls-6" d="M20.232198,114.027241c0-3.5899.154599-4.492818.330248-5.021214.572671-1.739788,1.960436-2.686981,3.854098-2.686981,1.894387,0,3.282152.947193,3.854823,2.686981.175648.528396.330248,1.431315.330248,5.021214s-.154599,4.492818-.330248,5.02194c-.572671,1.739788-1.960436,2.686255-3.854823,2.686255-1.893661,0-3.281427-.946468-3.854098-2.686255-.175648-.529122-.330248-1.43204-.330248-5.02194ZM24.416543,120.612595c1.321716,0,2.268909-.572671,2.686981-1.828337.154599-.484121.308473-1.299216.308473-4.757016s-.153874-4.272895-.308473-4.757016c-.418072-1.255666-1.365265-1.828337-2.686981-1.828337-1.32099,0-2.268184.572671-2.686255,1.828337-.154599.484121-.308473,1.299216-.308473,4.757016s.153874,4.272895.308473,4.757016c.418072,1.255666,1.365265,1.828337,2.686255,1.828337Z"/><path class="cls-6" d="M30.843668,114.027241c0-3.5899.154599-4.492818.330248-5.021214.572671-1.739788,1.960436-2.686981,3.854098-2.686981,1.894387,0,3.282152.947193,3.854823,2.686981.175648.528396.330248,1.431315.330248,5.021214s-.154599,4.492818-.330248,5.02194c-.572671,1.739788-1.960436,2.686255-3.854823,2.686255-1.893661,0-3.281427-.946468-3.854098-2.686255-.175648-.529122-.330248-1.43204-.330248-5.02194ZM35.028013,120.612595c1.321716,0,2.268909-.572671,2.686981-1.828337.154599-.484121.308473-1.299216.308473-4.757016s-.153874-4.272895-.308473-4.757016c-.418072-1.255666-1.365265-1.828337-2.686981-1.828337-1.32099,0-2.268184.572671-2.686255,1.828337-.154599.484121-.308473,1.299216-.308473,4.757016s.153874,4.272895.308473,4.757016c.418072,1.255666,1.365265,1.828337,2.686255,1.828337Z"/><path class="cls-6" d="M2.994728,33.54657h-.043549l-2.709481,1.916161c-.109599.08855-.241698.044275-.241698-.132099v-.924693c0-.154599.043549-.242423.153874-.330248l2.774805-2.004711c.110324-.087824.198149-.132099.330248-.132099h.70477c.132825,0,.220649.08855.220649.220649v14.535972c0,.132099-.087824.219923-.220649.219923h-.748319c-.132099,0-.220649-.087824-.220649-.219923v-13.148932Z"/><path class="cls-6" d="M9.774601,46.122831c0-.132099.021775-.198149.087824-.286698l5.527836-7.245849c.749045-.968968,1.233166-1.916161,1.233166-2.929404,0-1.629463-1.167117-2.79658-2.862629-2.79658-1.651963,0-2.599157,1.012517-2.863355,2.576657-.021775.132099-.110324.198149-.264198.176374l-.682995-.176374c-.132099-.021775-.198149-.110324-.175648-.242423.241698-1.827612,1.607689-3.479575,4.007971-3.479575,2.422783,0,4.030471,1.651963,4.030471,3.941922,0,1.321716-.572671,2.422783-1.519864,3.655949l-4.93339,6.43148v.021775h6.233331c.132099,0,.219923.08855.219923.220649v.70477c0,.132099-.087824.219923-.219923.219923h-7.598596c-.132099,0-.219923-.087824-.219923-.219923v-.572671Z"/><path class="cls-6" d="M20.232198,39.427153c0-3.5899.154599-4.492818.330248-5.021214.572671-1.739788,1.960436-2.686981,3.854098-2.686981,1.894387,0,3.282152.947193,3.854823,2.686981.175648.528396.330248,1.431315.330248,5.021214s-.154599,4.492818-.330248,5.02194c-.572671,1.739788-1.960436,2.686255-3.854823,2.686255-1.893661,0-3.281427-.946468-3.854098-2.686255-.175648-.529122-.330248-1.43204-.330248-5.02194ZM24.416543,46.012507c1.321716,0,2.268909-.572671,2.686981-1.828337.154599-.484121.308473-1.299216.308473-4.757016s-.153874-4.272895-.308473-4.757016c-.418072-1.255666-1.365265-1.828337-2.686981-1.828337-1.32099,0-2.268184.572671-2.686255,1.828337-.154599.484121-.308473,1.299216-.308473,4.757016s.153874,4.272895.308473,4.757016c.418072,1.255666,1.365265,1.828337,2.686255,1.828337Z"/><path class="cls-6" d="M30.843668,39.427153c0-3.5899.154599-4.492818.330248-5.021214.572671-1.739788,1.960436-2.686981,3.854098-2.686981,1.894387,0,3.282152.947193,3.854823,2.686981.175648.528396.330248,1.431315.330248,5.021214s-.154599,4.492818-.330248,5.02194c-.572671,1.739788-1.960436,2.686255-3.854823,2.686255-1.893661,0-3.281427-.946468-3.854098-2.686255-.175648-.529122-.330248-1.43204-.330248-5.02194ZM35.028013,46.012507c1.321716,0,2.268909-.572671,2.686981-1.828337.154599-.484121.308473-1.299216.308473-4.757016s-.153874-4.272895-.308473-4.757016c-.418072-1.255666-1.365265-1.828337-2.686981-1.828337-1.32099,0-2.268184.572671-2.686255,1.828337-.154599.484121-.308473,1.299216-.308473,4.757016s.153874,4.272895.308473,4.757016c.418072,1.255666,1.365265,1.828337,2.686255,1.828337Z"/><path class="cls-6" d="M302.821827,538.317882l.70477-.175648c.153874-.045001.241698.043549.285973.175648.220649,1.32099,1.189617,2.290684,2.863355,2.290684,1.233166,0,2.224634-.573397,2.620931-1.718739.153874-.483395.219923-1.167117.219923-2.157133,0-1.036469-.087824-1.696964-.264198-2.203586-.352022-1.122116-1.277441-1.673738-2.532382-1.673738-1.40954,0-2.356733.837595-2.643432,1.784062-.043549.153874-.087824.220649-.219923.220649h-.726545c-.132825,0-.220649-.08855-.220649-.220649v-7.862069c0-.132099.087824-.220649.220649-.220649h7.069475c.132099,0,.219923.08855.219923.220649v.704044c0,.132099-.087824.220649-.219923.220649h-6.012682c-.087824,0-.132099.043549-.132099.132099v5.175088h.044275c.373797-.63872,1.365265-1.299216,2.73053-1.299216,1.762288,0,3.017229.81582,3.52385,2.379234.198149.616946.352748,1.431315.352748,2.643432,0,1.122116-.110324,1.91471-.308473,2.509881-.528396,1.608414-1.916161,2.511333-3.700224,2.511333-2.312459,0-3.788048-1.344216-4.030471-3.171828-.021775-.110324.0225-.220649.154599-.264198Z"/><path class="cls-6" d="M324.72994,541.533259c-.154599,0-.220649-.043549-.330248-.220649l-3.348202-5.439286-2.246409,2.64198v2.797305c0,.132099-.087824.220649-.219923.220649h-.749045c-.132099,0-.219923-.08855-.219923-.220649v-14.535246c0-.132099.087824-.220649.219923-.220649h.749045c.132099,0,.219923.08855.219923.220649v10.087429l4.757016-5.616385c.132099-.153874.198874-.220649.374522-.220649h.902919c.132099,0,.198149.132099.110324.220649l-3.105053,3.676998,3.920147,6.387205c.06605.110324,0,.220649-.132099.220649h-.902919Z"/><path class="cls-6" d="M341.354819,541.533259c-.132825,0-.220649-.08855-.220649-.220649v-6.210105c0-2.093261-.947193-3.150053-2.774805-3.150053-1.607689,0-2.84158,1.101793-2.84158,2.929404v6.430754c0,.132099-.087824.220649-.219923.220649h-.749045c-.132099,0-.219923-.08855-.219923-.220649v-6.210105c0-2.093261-.925419-3.150053-2.753031-3.150053-1.607689,0-2.863355,1.101793-2.863355,2.929404v6.430754c0,.132099-.087824.220649-.219923.220649h-.749045c-.132099,0-.219923-.08855-.219923-.220649v-10.064203c0-.132099.087824-.220649.219923-.220649h.749045c.132099,0,.219923.08855.219923.220649v1.255666h.0225c.528396-1.036469,1.629463-1.696964,3.105053-1.696964,1.629463,0,2.731256.683721,3.259652,1.961162h.021775c.616946-1.212117,1.739788-1.961162,3.457801-1.961162,2.378508,0,3.744499,1.454541,3.744499,4.009423v6.496078c0,.132099-.08855.220649-.220649.220649h-.748319Z"/><path class="cls-6" d="M407.675427,525.677022v-.066775h-5.417511c-.087824,0-.132099.043549-.132099.132099v2.048261c0,.132099-.08855.220649-.220649.220649h-.748319c-.132099,0-.220649-.08855-.220649-.220649v-3.105053c0-.132099.08855-.220649.220649-.220649h7.576096c.132099,0,.219923.08855.219923.220649v.814369c0,.08855-.021775.153874-.043549.220649l-5.373962,13.522003c-.06605.155325-.110324.198874-.286698.198874h-.814369c-.132099,0-.176374-.08855-.110324-.242423l5.351462-13.522003Z"/><path class="cls-6" d="M411.349522,537.525288h.947193c.132099,0,.219923.08855.219923.220649v1.651963c0,.219197-.021775.307747-.109599.483395l-.859369,1.696964c-.06605.132099-.153874.175648-.264198.175648s-.153874-.065324-.153874-.198874v-3.809097c0-.132099.087824-.220649.219923-.220649Z"/><path class="cls-6" d="M415.225394,536.226072l.70477-.175648c.153874-.045001.241698.043549.285973.175648.220649,1.32099,1.189617,2.290684,2.863355,2.290684,1.233166,0,2.224634-.573397,2.620931-1.718739.153874-.483395.219923-1.167117.219923-2.157133,0-1.036469-.087824-1.696964-.264198-2.203586-.352022-1.122116-1.277441-1.673738-2.532382-1.673738-1.40954,0-2.356733.837595-2.643432,1.784062-.043549.153874-.087824.220649-.219923.220649h-.72727c-.132099,0-.219923-.08855-.219923-.220649v-7.862069c0-.132099.087824-.220649.219923-.220649h7.0702c.132099,0,.219923.08855.219923.220649v.704044c0,.132099-.087824.220649-.219923.220649h-6.012682c-.087824,0-.132099.043549-.132099.132099v5.175088h.044275c.373797-.63872,1.365265-1.299216,2.73053-1.299216,1.762288,0,3.017229.81582,3.52385,2.379234.198149.616946.352748,1.431315.352748,2.643432,0,1.122116-.110324,1.91471-.308473,2.509881-.528396,1.608414-1.916161,2.511333-3.700224,2.511333-2.312459,0-3.788048-1.344216-4.030471-3.171828-.021775-.110324.0225-.220649.154599-.264198Z"/><path class="cls-6" d="M437.133507,539.441449c-.154599,0-.220649-.043549-.330973-.220649l-3.347476-5.439286-2.246409,2.64198v2.797305c0,.132099-.087824.220649-.219923.220649h-.749045c-.132099,0-.219923-.08855-.219923-.220649v-14.535246c0-.132099.087824-.220649.219923-.220649h.749045c.132099,0,.219923.08855.219923.220649v10.087429l4.757016-5.616385c.132825-.153874.198874-.220649.374522-.220649h.902919c.132099,0,.198149.132099.110324.220649l-3.105053,3.676998,3.920147,6.387205c.06605.110324,0,.220649-.132099.220649h-.902919Z"/><path class="cls-6" d="M453.75766,539.441449c-.132099,0-.219923-.08855-.219923-.220649v-6.210105c0-2.093261-.947193-3.150053-2.774805-3.150053-1.607689,0-2.84158,1.101793-2.84158,2.929404v6.430754c0,.132099-.087824.220649-.219923.220649h-.749045c-.132099,0-.219923-.08855-.219923-.220649v-6.210105c0-2.093261-.925419-3.150053-2.753031-3.150053-1.607689,0-2.863355,1.101793-2.863355,2.929404v6.430754c0,.132099-.087824.220649-.219923.220649h-.749045c-.132099,0-.219923-.08855-.219923-.220649v-10.064203c0-.132099.087824-.220649.219923-.220649h.749045c.132099,0,.219923.08855.219923.220649v1.255666h.0225c.528396-1.036469,1.629463-1.696964,3.105053-1.696964,1.629463,0,2.731256.683721,3.259652,1.961162h.021775c.616946-1.212117,1.739788-1.961162,3.457801-1.961162,2.378508,0,3.744499,1.454541,3.744499,4.009423v6.496078c0,.132099-.08855.220649-.220649.220649h-.749045Z"/><path class="cls-6" d="M510.688429,528.165129h-.043549l-2.708756,1.916161c-.110324.087098-.242423.043549-.242423-.132099v-.926145c0-.153874.043549-.242423.153874-.329522l2.775531-2.004711c.110324-.08855.197423-.132099.329522-.132099h.705496c.132099,0,.219197.08855.219197.220649v14.535246c0,.132099-.087098.220649-.219197.220649h-.749045c-.132099,0-.220649-.08855-.220649-.220649v-13.147481Z"/><path class="cls-6" d="M517.313703,534.045713c0-3.5899.153874-4.49427.330973-5.022666.571945-1.739062,1.959711-2.686981,3.854098-2.686981s3.280701.947919,3.854098,2.686981c.175648.528396.329522,1.432766.329522,5.022666s-.153874,4.492818-.329522,5.021214c-.573397,1.739062-1.959711,2.686981-3.854098,2.686981s-3.282152-.947919-3.854098-2.686981c-.1771-.528396-.330973-1.431315-.330973-5.021214ZM521.498773,540.63034c1.32099,0,2.267458-.573397,2.686981-1.827612.153874-.484847.307747-1.299216.307747-4.757016s-.153874-4.273621-.307747-4.758468c-.419523-1.254215-1.365991-1.827612-2.686981-1.827612-1.322442,0-2.268909.573397-2.686981,1.827612-.153874.484847-.309199,1.300667-.309199,4.758468s.155325,4.272169.309199,4.757016c.418072,1.254215,1.364539,1.827612,2.686981,1.827612Z"/><path class="cls-6" d="M539.706663,541.533259c-.153874,0-.219197-.043549-.329522-.220649l-3.347476-5.439286-2.247135,2.64198v2.797305c0,.132099-.08855.220649-.220649.220649h-.747593c-.133551,0-.220649-.08855-.220649-.220649v-14.535246c0-.132099.087098-.220649.220649-.220649h.747593c.132099,0,.220649.08855.220649.220649v10.087429l4.757016-5.616385c.132099-.153874.198874-.220649.374522-.220649h.902919c.132099,0,.198874.132099.110324.220649l-3.105053,3.676998,3.919421,6.387205c.066775.110324,0,.220649-.132099.220649h-.902919Z"/><path class="cls-6" d="M556.332267,541.533259c-.132099,0-.220649-.08855-.220649-.220649v-6.210105c0-2.093261-.946468-3.150053-2.775531-3.150053-1.606963,0-2.840855,1.101793-2.840855,2.929404v6.430754c0,.132099-.087098.220649-.220649.220649h-.747593c-.132099,0-.220649-.08855-.220649-.220649v-6.210105c0-2.093261-.924693-3.150053-2.753756-3.150053-1.606963,0-2.862629,1.101793-2.862629,2.929404v6.430754c0,.132099-.08855.220649-.220649.220649h-.747593c-.132099,0-.220649-.08855-.220649-.220649v-10.064203c0-.132099.08855-.220649.220649-.220649h.747593c.132099,0,.220649.08855.220649.220649v1.255666h.021775c.528396-1.036469,1.630189-1.696964,3.105053-1.696964,1.630189,0,2.731982.683721,3.260378,1.961162h.021775c.616946-1.212117,1.740513-1.961162,3.457801-1.961162,2.379234,0,3.743773,1.454541,3.743773,4.009423v6.496078c0,.132099-.087098.220649-.219197.220649h-.749045Z"/><path class="cls-6" d="M611.772853,526.073319h-.043549l-2.708756,1.916161c-.110324.087098-.242423.043549-.242423-.132099v-.926145c0-.153874.043549-.242423.153874-.329522l2.775531-2.004711c.110324-.08855.197423-.132099.329522-.132099h.705496c.132099,0,.219197.08855.219197.220649v14.535246c0,.132099-.087098.220649-.219197.220649h-.749045c-.132099,0-.220649-.08855-.220649-.220649v-13.147481Z"/><path class="cls-6" d="M618.552,538.648855c0-.132099.021775-.198874.08855-.285973l5.527836-7.246574c.749045-.969694,1.233892-1.916161,1.233892-2.929404,0-1.630189-1.167117-2.797305-2.864081-2.797305-1.651963,0-2.598431,1.013243-2.862629,2.576657-.021775.132099-.110324.198874-.264198.1771l-.68227-.1771c-.132099-.021775-.198874-.108873-.1771-.240972.242423-1.829063,1.608414-3.481027,4.009423-3.481027,2.421331,0,4.029746,1.651963,4.029746,3.942647,0,1.32099-.571945,2.422783-1.519864,3.656675l-4.932664,6.430754v.021775h6.23188c.132099,0,.220649.08855.220649.220649v.704044c0,.132099-.08855.220649-.220649.220649h-7.597871c-.132099,0-.220649-.08855-.220649-.220649v-.571945Z"/><path class="cls-6" d="M629.20847,537.525288h.946468c.132099,0,.220649.08855.220649.220649v1.651963c0,.219197-.021775.307747-.110324.483395l-.859369,1.696964c-.065324.132099-.153874.175648-.264198.175648s-.153874-.065324-.153874-.198874v-3.809097c0-.132099.08855-.220649.220649-.220649Z"/><path class="cls-6" d="M633.084343,536.226072l.704044-.175648c.155325-.045001.242423.043549.287424.175648.219197,1.32099,1.188891,2.290684,2.862629,2.290684,1.233892,0,2.223909-.573397,2.620206-1.718739.155325-.483395.220649-1.167117.220649-2.157133,0-1.036469-.08855-1.696964-.264198-2.203586-.352748-1.122116-1.277441-1.673738-2.533107-1.673738-1.40954,0-2.356008.837595-2.64198,1.784062-.045001.153874-.08855.220649-.220649.220649h-.72727c-.132099,0-.219197-.08855-.219197-.220649v-7.862069c0-.132099.087098-.220649.219197-.220649h7.069475c.132099,0,.220649.08855.220649.220649v.704044c0,.132099-.08855.220649-.220649.220649h-6.012682c-.087098,0-.132099.043549-.132099.132099v5.175088h.045001c.374522-.63872,1.364539-1.299216,2.73053-1.299216,1.762288,0,3.017954.81582,3.524576,2.379234.197423.616946.351296,1.431315.351296,2.643432,0,1.122116-.108873,1.91471-.307747,2.509881-.528396,1.608414-1.916161,2.511333-3.700224,2.511333-2.312459,0-3.787322-1.344216-4.029746-3.171828-.023226-.110324.021775-.220649.153874-.264198Z"/><path class="cls-6" d="M654.991004,539.441449c-.153874,0-.219197-.043549-.329522-.220649l-3.347476-5.439286-2.247135,2.64198v2.797305c0,.132099-.08855.220649-.220649.220649h-.747593c-.132099,0-.220649-.08855-.220649-.220649v-14.535246c0-.132099.08855-.220649.220649-.220649h.747593c.132099,0,.220649.08855.220649.220649v10.087429l4.757016-5.616385c.132099-.153874.198874-.220649.374522-.220649h.902919c.132099,0,.198874.132099.110324.220649l-3.105053,3.676998,3.919421,6.387205c.066775.110324,0,.220649-.132099.220649h-.902919Z"/><path class="cls-6" d="M671.616608,539.441449c-.132099,0-.220649-.08855-.220649-.220649v-6.210105c0-2.093261-.946468-3.150053-2.775531-3.150053-1.606963,0-2.840855,1.101793-2.840855,2.929404v6.430754c0,.132099-.087098.220649-.220649.220649h-.747593c-.132099,0-.220649-.08855-.220649-.220649v-6.210105c0-2.093261-.924693-3.150053-2.753756-3.150053-1.606963,0-2.862629,1.101793-2.862629,2.929404v6.430754c0,.132099-.08855.220649-.220649.220649h-.747593c-.133551,0-.220649-.08855-.220649-.220649v-10.064203c0-.132099.087098-.220649.220649-.220649h.747593c.132099,0,.220649.08855.220649.220649v1.255666h.021775c.528396-1.036469,1.630189-1.696964,3.106504-1.696964,1.628737,0,2.73053.683721,3.258926,1.961162h.021775c.616946-1.212117,1.740513-1.961162,3.457801-1.961162,2.379234,0,3.743773,1.454541,3.743773,4.009423v6.496078c0,.132099-.087098.220649-.219197.220649h-.749045Z"/><path class="cls-6" d="M727.058646,528.165129h-.043549l-2.708756,1.916161c-.110324.087098-.242423.043549-.242423-.132099v-.926145c0-.153874.043549-.242423.153874-.329522l2.775531-2.004711c.110324-.08855.197423-.132099.329522-.132099h.705496c.132099,0,.219197.08855.219197.220649v14.535246c0,.132099-.087098.220649-.219197.220649h-.749045c-.132099,0-.220649-.08855-.220649-.220649v-13.147481Z"/><path class="cls-6" d="M734.168766,538.317882l.704044-.175648c.155325-.045001.242423.043549.287424.175648.219197,1.32099,1.188891,2.290684,2.862629,2.290684,1.233892,0,2.223909-.573397,2.620206-1.718739.155325-.483395.220649-1.167117.220649-2.157133,0-1.036469-.08855-1.696964-.264198-2.203586-.352748-1.122116-1.277441-1.673738-2.533107-1.673738-1.40954,0-2.356008.837595-2.64198,1.784062-.045001.153874-.08855.220649-.220649.220649h-.72727c-.132099,0-.219197-.08855-.219197-.220649v-7.862069c0-.132099.087098-.220649.219197-.220649h7.069475c.132099,0,.220649.08855.220649.220649v.704044c0,.132099-.08855.220649-.220649.220649h-6.011231c-.08855,0-.133551.043549-.133551.132099v5.175088h.045001c.374522-.63872,1.364539-1.299216,2.73053-1.299216,1.762288,0,3.017954.81582,3.524576,2.379234.197423.616946.351296,1.431315.351296,2.643432,0,1.122116-.108873,1.91471-.307747,2.509881-.528396,1.608414-1.916161,2.511333-3.700224,2.511333-2.312459,0-3.787322-1.344216-4.029746-3.171828-.023226-.110324.021775-.220649.153874-.264198Z"/><path class="cls-6" d="M756.076879,541.533259c-.153874,0-.219197-.043549-.329522-.220649l-3.347476-5.439286-2.247135,2.64198v2.797305c0,.132099-.08855.220649-.220649.220649h-.747593c-.132099,0-.220649-.08855-.220649-.220649v-14.535246c0-.132099.08855-.220649.220649-.220649h.747593c.132099,0,.220649.08855.220649.220649v10.087429l4.757016-5.616385c.132099-.153874.198874-.220649.374522-.220649h.902919c.132099,0,.198874.132099.110324.220649l-3.105053,3.676998,3.919421,6.387205c.066775.110324,0,.220649-.132099.220649h-.902919Z"/><path class="cls-6" d="M772.702483,541.533259c-.132099,0-.220649-.08855-.220649-.220649v-6.210105c0-2.093261-.946468-3.150053-2.775531-3.150053-1.606963,0-2.840855,1.101793-2.840855,2.929404v6.430754c0,.132099-.087098.220649-.220649.220649h-.747593c-.132099,0-.220649-.08855-.220649-.220649v-6.210105c0-2.093261-.924693-3.150053-2.753756-3.150053-1.606963,0-2.862629,1.101793-2.862629,2.929404v6.430754c0,.132099-.08855.220649-.220649.220649h-.747593c-.133551,0-.220649-.08855-.220649-.220649v-10.064203c0-.132099.087098-.220649.220649-.220649h.747593c.132099,0,.220649.08855.220649.220649v1.255666h.021775c.528396-1.036469,1.630189-1.696964,3.106504-1.696964,1.628737,0,2.73053.683721,3.258926,1.961162h.021775c.616946-1.212117,1.740513-1.961162,3.457801-1.961162,2.379234,0,3.743773,1.454541,3.743773,4.009423v6.496078c0,.132099-.087098.220649-.219197.220649h-.749045Z"/><path class="cls-6" d="M824.326066,526.073319h-.043549l-2.708756,1.916161c-.110324.087098-.242423.043549-.242423-.132099v-.926145c0-.153874.043549-.242423.153874-.329522l2.775531-2.004711c.110324-.08855.197423-.132099.329522-.132099h.705496c.132099,0,.219197.08855.219197.220649v14.535246c0,.132099-.087098.220649-.219197.220649h-.749045c-.132099,0-.220649-.08855-.220649-.220649v-13.147481Z"/><path class="cls-6" d="M838.08759,525.677022v-.066775h-5.418963c-.087098,0-.132099.043549-.132099.132099v2.048261c0,.132099-.087098.220649-.219197.220649h-.749045c-.132099,0-.220649-.08855-.220649-.220649v-3.105053c0-.132099.08855-.220649.220649-.220649h7.576096c.132099,0,.220649.08855.220649.220649v.814369c0,.08855-.021775.153874-.045001.220649l-5.373962,13.522003c-.065324.155325-.108873.198874-.285973.198874h-.814369c-.132099,0-.1771-.08855-.110324-.242423l5.352187-13.522003Z"/><path class="cls-6" d="M841.761684,537.525288h.946468c.132099,0,.220649.08855.220649.220649v1.651963c0,.219197-.021775.307747-.110324.483395l-.859369,1.696964c-.065324.132099-.153874.175648-.264198.175648s-.153874-.065324-.153874-.198874v-3.809097c0-.132099.08855-.220649.220649-.220649Z"/><path class="cls-6" d="M845.637556,536.226072l.704044-.175648c.155325-.045001.242423.043549.287424.175648.219197,1.32099,1.188891,2.290684,2.862629,2.290684,1.233892,0,2.223909-.573397,2.620206-1.718739.155325-.483395.220649-1.167117.220649-2.157133,0-1.036469-.08855-1.696964-.264198-2.203586-.352748-1.122116-1.277441-1.673738-2.533107-1.673738-1.40954,0-2.356008.837595-2.64198,1.784062-.045001.153874-.08855.220649-.220649.220649h-.72727c-.132099,0-.219197-.08855-.219197-.220649v-7.862069c0-.132099.087098-.220649.219197-.220649h7.069475c.132099,0,.220649.08855.220649.220649v.704044c0,.132099-.08855.220649-.220649.220649h-6.012682c-.087098,0-.132099.043549-.132099.132099v5.175088h.045001c.374522-.63872,1.364539-1.299216,2.73053-1.299216,1.762288,0,3.017954.81582,3.524576,2.379234.197423.616946.351296,1.431315.351296,2.643432,0,1.122116-.108873,1.91471-.307747,2.509881-.528396,1.608414-1.916161,2.511333-3.700224,2.511333-2.312459,0-3.787322-1.344216-4.029746-3.171828-.023226-.110324.021775-.220649.153874-.264198Z"/><path class="cls-6" d="M867.544218,539.441449c-.153874,0-.219197-.043549-.329522-.220649l-3.347476-5.439286-2.247135,2.64198v2.797305c0,.132099-.08855.220649-.220649.220649h-.747593c-.132099,0-.220649-.08855-.220649-.220649v-14.535246c0-.132099.08855-.220649.220649-.220649h.747593c.132099,0,.220649.08855.220649.220649v10.087429l4.757016-5.616385c.132099-.153874.198874-.220649.374522-.220649h.902919c.132099,0,.198874.132099.110324.220649l-3.105053,3.676998,3.919421,6.387205c.066775.110324,0,.220649-.132099.220649h-.902919Z"/><path class="cls-6" d="M884.169822,539.441449c-.132099,0-.220649-.08855-.220649-.220649v-6.210105c0-2.093261-.946468-3.150053-2.775531-3.150053-1.606963,0-2.840855,1.101793-2.840855,2.929404v6.430754c0,.132099-.087098.220649-.220649.220649h-.747593c-.132099,0-.220649-.08855-.220649-.220649v-6.210105c0-2.093261-.924693-3.150053-2.753756-3.150053-1.606963,0-2.862629,1.101793-2.862629,2.929404v6.430754c0,.132099-.08855.220649-.220649.220649h-.747593c-.133551,0-.220649-.08855-.220649-.220649v-10.064203c0-.132099.087098-.220649.220649-.220649h.747593c.132099,0,.220649.08855.220649.220649v1.255666h.021775c.528396-1.036469,1.630189-1.696964,3.106504-1.696964,1.628737,0,2.73053.683721,3.258926,1.961162h.021775c.616946-1.212117,1.740513-1.961162,3.457801-1.961162,2.379234,0,3.743773,1.454541,3.743773,4.009423v6.496078c0,.132099-.087098.220649-.219197.220649h-.749045Z"/><circle class="cls-5" cx="177.837896" cy="373.795192" r="4.706319"/><circle class="cls-2" cx="111.958614" cy="331.245364" r="4.706319"/><circle class="cls-5" cx="508.770631" cy="75.95573" r="4.706319"/><circle class="cls-2" cx="365.249439" cy="226.87427" r="4.706319"/><circle class="cls-2" cx="563.80908" cy="201.417906" r="4.706319"/><circle class="cls-2" cx="691.090902" cy="214.146088" r="4.706319"/><circle class="cls-2" cx="860.375724" cy="329.972546" r="4.706319"/></svg>