<svg xmlns="http://www.w3.org/2000/svg" width="58.361" height="50" viewBox="0 0 58.361 50">
  <g id="Group_7" data-name="Group 7" transform="translate(-1.985 243.848)">
    <path id="Path_109" data-name="Path 109" d="M218.221-194.89H204.465a1.254,1.254,0,0,1-1.161-1.727l1.1-2.687a2.758,2.758,0,0,1,1.2-1.363l2.16-1.223a1.557,1.557,0,0,1,1.793.184l1.227,1.073a.853.853,0,0,0,1.125,0l1.225-1.073a1.56,1.56,0,0,1,1.8-.184l2.16,1.223a2.758,2.758,0,0,1,1.2,1.362l1.1,2.687A1.254,1.254,0,0,1,218.221-194.89Z" transform="translate(-160.145 -32.6)" fill="none" stroke="#c21b17" stroke-linecap="round" stroke-linejoin="round" stroke-width="2"/>
    <path id="Path_110" data-name="Path 110" d="M234.781-239.823a3.026,3.026,0,0,1-3.026,3.025,3.025,3.025,0,0,1-3.024-3.025,3.025,3.025,0,0,1,3.024-3.025A3.026,3.026,0,0,1,234.781-239.823Z" transform="translate(-180.557)" fill="none" stroke="#c21b17" stroke-linecap="round" stroke-linejoin="round" stroke-width="2"/>
    <path id="Path_111" data-name="Path 111" d="M211.54-120.449h12.93v-29.39H211.54Z" transform="translate(-166.807 -74.399)" fill="none" stroke="#c21b17" stroke-linecap="round" stroke-linejoin="round" stroke-width="2"/>
    <path id="Path_112" data-name="Path 112" d="M118.113-122.39H104.355a1.254,1.254,0,0,1-1.161-1.727l1.1-2.686a2.777,2.777,0,0,1,1.2-1.363l2.162-1.223a1.557,1.557,0,0,1,1.793.184l1.225,1.073a.856.856,0,0,0,1.127,0l1.225-1.073a1.56,1.56,0,0,1,1.8-.184l2.16,1.223a2.758,2.758,0,0,1,1.2,1.362l1.1,2.687A1.254,1.254,0,0,1,118.113-122.39Z" transform="translate(-80.068 -90.592)" fill="none" stroke="#c21b17" stroke-linecap="round" stroke-linejoin="round" stroke-width="2"/>
    <path id="Path_113" data-name="Path 113" d="M134.679-167.322a3.024,3.024,0,0,1-3.024,3.025,3.024,3.024,0,0,1-3.024-3.025,3.024,3.024,0,0,1,3.024-3.025A3.024,3.024,0,0,1,134.679-167.322Z" transform="translate(-100.488 -57.992)" fill="none" stroke="#c21b17" stroke-linecap="round" stroke-linejoin="round" stroke-width="2"/>
    <path id="Path_114" data-name="Path 114" d="M111.44-62.461h12.93V-77.34H111.44Z" transform="translate(-86.739 -132.387)" fill="none" stroke="#c21b17" stroke-linecap="round" stroke-linejoin="round" stroke-width="2"/>
    <path id="Path_115" data-name="Path 115" d="M18.014-88.528H4.255a1.254,1.254,0,0,1-1.161-1.727l1.1-2.686A2.757,2.757,0,0,1,5.39-94.3l2.16-1.223a1.56,1.56,0,0,1,1.8.184l1.225,1.073a.856.856,0,0,0,1.127,0l1.225-1.073a1.557,1.557,0,0,1,1.793-.184L16.877-94.3a2.78,2.78,0,0,1,1.2,1.361l1.1,2.688A1.252,1.252,0,0,1,18.014-88.528Z" transform="translate(0 -117.677)" fill="none" stroke="#c21b17" stroke-linecap="round" stroke-linejoin="round" stroke-width="2"/>
    <path id="Path_116" data-name="Path 116" d="M34.571-133.463a3.026,3.026,0,0,1-3.024,3.025,3.026,3.026,0,0,1-3.026-3.025,3.026,3.026,0,0,1,3.026-3.025A3.025,3.025,0,0,1,34.571-133.463Z" transform="translate(-20.412 -85.075)" fill="none" stroke="#c21b17" stroke-linecap="round" stroke-linejoin="round" stroke-width="2"/>
    <path id="Path_117" data-name="Path 117" d="M11.34-35.378H24.27v-8.1H11.34Z" transform="translate(-6.671 -159.47)" fill="none" stroke="#c21b17" stroke-linecap="round" stroke-linejoin="round" stroke-width="2"/>
  </g>
</svg>
