<svg xmlns="http://www.w3.org/2000/svg" width="49" height="49" viewBox="0 0 49 49">
  <g id="icon-karlstejn" transform="translate(0.49 0.402)">
    <path id="Path_94" data-name="Path 94" d="M48,23.777a24.2,24.2,0,0,1-24,24.321,24.182,24.182,0,0,1-24-24.321A24.2,24.2,0,0,1,24.01.1a24.2,24.2,0,0,1,24,23.679" transform="translate(0 0)" fill="#fff" stroke="#c21b17" stroke-width="1" fill-rule="evenodd"/>
    <path id="Path_95" data-name="Path 95" d="M2.055,4.592,2.8,2.044a.116.116,0,0,1,.225,0L3.87,4.585a.116.116,0,0,1-.109.16h-1.6a.116.116,0,0,1-.109-.152m17.206,0,.748-2.548a.121.121,0,0,1,.232,0l.835,2.541a.116.116,0,0,1-.109.16h-1.6a.123.123,0,0,1-.109-.152" transform="translate(12.37 11.635)" fill="#c21b17" fill-rule="evenodd"/>
    <path id="Path_96" data-name="Path 96" d="M21.676,10.341H19.063a.348.348,0,0,1-.334-.261L16.369,1.513a.356.356,0,0,0-.341-.254H8.216a.356.356,0,0,0-.334.254L5.523,10.08a.348.348,0,0,1-.341.261H2.568a.356.356,0,0,0-.348.334l-.254,5.336a.356.356,0,0,0,.348.378H3.948V31.344a.355.355,0,0,0,.356.348H19.949a.348.348,0,0,0,.348-.356V16.382h1.633a.347.347,0,0,0,.348-.363l-.247-5.343a.356.356,0,0,0-.356-.334M10.953,21.333H8.093a.24.24,0,0,1-.24-.24V17.9A.24.24,0,0,1,8,17.674l1.43-.581a.24.24,0,0,1,.189,0l1.43.581a.238.238,0,0,1,.145.218v3.2a.24.24,0,0,1-.24.24m5.372,0h-2.86a.24.24,0,0,1-.247-.24V17.9a.252.252,0,0,1,.145-.225l1.437-.581a.225.225,0,0,1,.181,0l1.43.581a.227.227,0,0,1,.145.218v3.2a.24.24,0,0,1-.232.24" transform="translate(11.842 7.265)" fill="#c21b17" fill-rule="evenodd"/>
  </g>
</svg>
