<?xml version="1.0" encoding="UTF-8"?><svg id="Vrstva_2" xmlns="http://www.w3.org/2000/svg" viewBox="0 0 48 48"><defs><style>.cls-1{fill:rgba(252,252,252,0);}.cls-2,.cls-3{fill:none;}.cls-4{fill:#fff;}.cls-3{stroke:#fff;stroke-width:2px;}</style></defs><g id="Vrstva_1-2"><g id="icon"><g id="Ellipse_12"><circle class="cls-2" cx="24" cy="24" r="24"/><circle class="cls-3" cx="24" cy="24" r="23"/></g><g id="Icon-2"><rect id="Area" class="cls-1" x="13.5" y="13.44" width="21" height="21"/></g></g><g><path class="cls-4" d="M18.97,19.08h-4.02c-.18,0-.32,.14-.32,.32v12.9c0,.18,.14,.32,.32,.32h4.02c.18,0,.32-.14,.32-.32v-12.9c0-.18-.14-.32-.32-.32Z"/><path class="cls-4" d="M16.97,12.66c-1.46,0-2.65,1.19-2.65,2.65s1.19,2.65,2.65,2.65,2.65-1.19,2.65-2.65c0-1.46-1.19-2.65-2.65-2.65Z"/><path class="cls-4" d="M29.18,18.75c-1.61,0-2.8,.69-3.53,1.48v-.84c0-.18-.14-.32-.32-.32h-3.85c-.18,0-.32,.14-.32,.32v12.9c0,.18,.14,.32,.32,.32h4.01c.18,0,.32-.14,.32-.32v-6.38c0-2.15,.58-2.99,2.08-2.99,1.63,0,1.76,1.34,1.76,3.1v6.27c0,.18,.14,.32,.32,.32h4.01c.18,0,.32-.14,.32-.32v-7.08c0-3.2-.61-6.47-5.13-6.47Z"/></g></g></svg>