<svg xmlns="http://www.w3.org/2000/svg" width="49.593" height="71" viewBox="0 0 49.593 71">
  <g id="icon" transform="translate(-1.5 305.322)">
    <path id="Path_97" data-name="Path 97" d="M61.532-146.864a18.382,18.382,0,0,1-18.314,18.447A18.383,18.383,0,0,1,24.9-146.864a18.435,18.435,0,0,1,13.084-17.681,18.11,18.11,0,0,1,5.234-.766,18.079,18.079,0,0,1,5.23.766A18.428,18.428,0,0,1,61.532-146.864Z" transform="translate(-16.922 -107.405)" fill="none" stroke="#fff" stroke-linecap="round" stroke-linejoin="round" stroke-width="3"/>
    <path id="Path_98" data-name="Path 98" d="M54.624-118.518a11.919,11.919,0,0,1-1.214-5.258,11.971,11.971,0,0,1,9.242-11.654" transform="translate(-39.03 -130.397)" fill="none" stroke="#fff" stroke-linecap="round" stroke-linejoin="round" stroke-width="3"/>
    <path id="Path_99" data-name="Path 99" d="M105.531-120.133a11.928,11.928,0,0,1,3.23,8.177A11.966,11.966,0,0,1,96.793-99.99a11.991,11.991,0,0,1-2.723-.312" transform="translate(-70.536 -142.314)" fill="none" stroke="#fff" stroke-linecap="round" stroke-linejoin="round" stroke-width="3"/>
    <path id="Path_100" data-name="Path 100" d="M93.408-187.91v5.9a18.325,18.325,0,0,0-5.267-.766,18.356,18.356,0,0,0-5.271.766v-5.9Z" transform="translate(-61.845 -89.724)" fill="none" stroke="#fff" stroke-linecap="round" stroke-linejoin="round" stroke-width="3"/>
    <path id="Path_101" data-name="Path 101" d="M85.144-212.777v3.949a.963.963,0,0,1-.964.961H68.671a.961.961,0,0,1-.961-.961v-3.949a.953.953,0,0,1,.68-.917.875.875,0,0,1,.282-.044H84.18a.9.9,0,0,1,.284.044A.958.958,0,0,1,85.144-212.777Z" transform="translate(-50.131 -69.731)" fill="none" stroke="#fff" stroke-linecap="round" stroke-linejoin="round" stroke-width="3"/>
    <path id="Path_102" data-name="Path 102" d="M110.176-303.822,94.788-283.3a.9.9,0,0,0-.284-.044H81.07l5.68-7.575,9.676-12.9Z" transform="translate(-60.583 0)" fill="none" stroke="#fff" stroke-linecap="round" stroke-linejoin="round" stroke-width="3"/>
    <path id="Path_103" data-name="Path 103" d="M26.426-290.92l-5.68,7.575H18.67a.875.875,0,0,0-.282.044L3-303.822H16.747Z" transform="translate(0 0)" fill="none" stroke="#fff" stroke-linecap="round" stroke-linejoin="round" stroke-width="3"/>
  </g>
</svg>
