<svg xmlns="http://www.w3.org/2000/svg" width="60.045" height="46.428" viewBox="0 0 60.045 46.428">
  <g id="icon" transform="translate(-2 229.902)">
    <path id="Path_155" data-name="Path 155" d="M91.2-191.255l11.043,6.352a2.285,2.285,0,0,0,3-.653l1.443-2.026a4.488,4.488,0,0,0,.522-.955,4.462,4.462,0,0,0-.657-4.312l-5.271-6.944a9.827,9.827,0,0,1-.947-1.52,1.563,1.563,0,0,1-.671.149H93.615a1.564,1.564,0,0,1-1.116-.463,1.569,1.569,0,0,1-.463-1.116,1.582,1.582,0,0,1,1.579-1.581h5.475l-1.21-3.057H92.16a1.568,1.568,0,0,1-1.118-.463,1.561,1.561,0,0,1-.463-1.115,1.581,1.581,0,0,1,1.581-1.581h4.467l-2.571-6.489a1.1,1.1,0,0,0-1.8-.368l-5.53,5.57a2.459,2.459,0,0,1-3.2.252l-3.4-2.493a3.259,3.259,0,0,1-1.288-3.187l.792-4.608a4.281,4.281,0,0,0-1.235-3.8l-2.812-2.731a1.81,1.81,0,0,0-2.673.162l-10.992,13.65a4.855,4.855,0,0,0,1.361,7.258l16.383,9.425" transform="translate(-46.498)" fill="none" stroke="#c21b17" stroke-linecap="round" stroke-linejoin="round" stroke-width="2"/>
    <path id="Path_156" data-name="Path 156" d="M212.48-133.691a1.561,1.561,0,0,0,.463,1.115,1.568,1.568,0,0,0,1.118.463h6.046a1.579,1.579,0,0,0,1.579-1.578,1.579,1.579,0,0,0-.463-1.118,1.579,1.579,0,0,0-1.116-.463h-6.046A1.581,1.581,0,0,0,212.48-133.691Z" transform="translate(-168.399 -75.267)" fill="none" stroke="#c21b17" stroke-linecap="round" stroke-linejoin="round" stroke-width="2"/>
    <path id="Path_157" data-name="Path 157" d="M219.91-102a1.569,1.569,0,0,0,.463,1.116,1.564,1.564,0,0,0,1.116.463h6.046a1.563,1.563,0,0,0,.671-.149,1.571,1.571,0,0,0,.91-1.43,1.576,1.576,0,0,0-.463-1.118,1.578,1.578,0,0,0-1.118-.463h-6.046A1.582,1.582,0,0,0,219.91-102Z" transform="translate(-174.372 -100.746)" fill="none" stroke="#c21b17" stroke-linecap="round" stroke-linejoin="round" stroke-width="2"/>
    <path id="Path_158" data-name="Path 158" d="M90.979-13.947H73.38" transform="translate(-56.578 -172.799)" fill="none" stroke="#c21b17" stroke-linecap="round" stroke-linejoin="round" stroke-width="2"/>
    <path id="Path_159" data-name="Path 159" d="M49.785-44.177H36.54" transform="translate(-26.962 -148.497)" fill="none" stroke="#c21b17" stroke-linecap="round" stroke-linejoin="round" stroke-width="2"/>
    <path id="Path_160" data-name="Path 160" d="M3-87.467H7.261" transform="translate(0 -113.697)" fill="none" stroke="#c21b17" stroke-linecap="round" stroke-linejoin="round" stroke-width="2"/>
    <path id="Path_161" data-name="Path 161" d="M60.84-69.207H73.024" transform="translate(-46.497 -128.376)" fill="none" stroke="#c21b17" stroke-linecap="round" stroke-linejoin="round" stroke-width="2"/>
    <path id="Path_162" data-name="Path 162" d="M144.23-53.147h15.654" transform="translate(-113.533 -141.287)" fill="none" stroke="#c21b17" stroke-linecap="round" stroke-linejoin="round" stroke-width="2"/>
  </g>
</svg>
