<svg xmlns="http://www.w3.org/2000/svg" width="50.11" height="50.411" viewBox="0 0 50.11 50.411">
  <g id="icon" transform="translate(-1.945 265.072)">
    <path id="Path_104" data-name="Path 104" d="M83.2-132.36l-.139.651-1.431,6.737a23.265,23.265,0,0,0-.1,9.176l.943,4.987h-27.8l.945-4.987a23.266,23.266,0,0,0-.1-9.176l-1.435-6.754-.136-.635A1.091,1.091,0,0,1,54.6-133.6l3.545-1.444a1.084,1.084,0,0,1,1.38.529l.174.355,2.158,4.414a7.5,7.5,0,0,0,4.4,3.829,7.412,7.412,0,0,0,2.319.371,7.412,7.412,0,0,0,2.319-.371,7.455,7.455,0,0,0,2.585-1.468,7.5,7.5,0,0,0,1.812-2.361l2.153-4.4.18-.369A1.086,1.086,0,0,1,79-135.039l3.545,1.444A1.091,1.091,0,0,1,83.2-132.36Z" transform="translate(-41.552 -105.263)" fill="none" stroke="#c21b17" stroke-linecap="round" stroke-linejoin="round" stroke-width="2"/>
    <path id="Path_105" data-name="Path 105" d="M4.213-95.759a4.876,4.876,0,0,1-.9-4.932L7.6-112.124a7.261,7.261,0,0,1,3.927-4.119l1-.432" transform="translate(0 -120.313)" fill="none" stroke="#c21b17" stroke-linecap="round" stroke-linejoin="round" stroke-width="2"/>
    <path id="Path_106" data-name="Path 106" d="M85.452-134.088l1.422-.614a4.094,4.094,0,0,1,3.87.338l1.877,1.234a3.141,3.141,0,0,0,3.45,0l1.877-1.234a4.087,4.087,0,0,1,3.866-.338l1.459.628" transform="translate(-67.345 -105.313)" fill="none" stroke="#c21b17" stroke-linecap="round" stroke-linejoin="round" stroke-width="2"/>
    <path id="Path_107" data-name="Path 107" d="M212.972-116.587l.97.416a7.269,7.269,0,0,1,3.925,4.119l4.287,11.433a4.88,4.88,0,0,1-.9,4.932" transform="translate(-171.465 -120.385)" fill="none" stroke="#c21b17" stroke-linecap="round" stroke-linejoin="round" stroke-width="2"/>
    <path id="Path_108" data-name="Path 108" d="M96.65-253.263a10.809,10.809,0,0,1-10.808,10.809,10.81,10.81,0,0,1-10.81-10.809,10.81,10.81,0,0,1,10.81-10.809A10.809,10.809,0,0,1,96.65-253.263Z" transform="translate(-58.842)" fill="none" stroke="#c21b17" stroke-linecap="round" stroke-linejoin="round" stroke-width="2"/>
  </g>
</svg>
