<svg xmlns="http://www.w3.org/2000/svg" width="26" height="31" viewBox="0 0 26 31">
  <g id="icon" transform="translate(-2 312.024)">
    <path id="Path_134" data-name="Path 134" d="M27-261.942a11.986,11.986,0,0,1-12.178,11.97A12.022,12.022,0,0,1,3-261.9a11.982,11.982,0,0,1,9.107-11.663.808.808,0,0,0,.615-.784v-1.384h4.556v1.384a.8.8,0,0,0,.606.783,11.963,11.963,0,0,1,4.8,2.43,11.992,11.992,0,0,1,2.063,2.21A11.891,11.891,0,0,1,27-261.942Z" transform="translate(0 -32.054)" fill="none" stroke="#c21b17" stroke-linecap="round" stroke-linejoin="round" stroke-width="2"/>
    <path id="Path_135" data-name="Path 135" d="M94.382-310.123v1.437a.9.9,0,0,1-.9.9H87.332a.9.9,0,0,1-.9-.9v-1.437a.9.9,0,0,1,.9-.9H93.48A.9.9,0,0,1,94.382-310.123Z" transform="translate(-75.406)" fill="none" stroke="#c21b17" stroke-linecap="round" stroke-linejoin="round" stroke-width="2"/>
    <path id="Path_136" data-name="Path 136" d="M214.52-243.514l-1.61,1.611a11.609,11.609,0,0,0-2-2.147l1.537-1.536a.608.608,0,0,1,.864,0l1.208,1.207A.61.61,0,0,1,214.52-243.514Z" transform="translate(-188.093 -59.09)" fill="none" stroke="#c21b17" stroke-linecap="round" stroke-linejoin="round" stroke-width="2"/>
    <path id="Path_137" data-name="Path 137" d="M114.221-198.723l-3.382,7.006a2.713,2.713,0,0,1-2.444,1.534,2.714,2.714,0,0,1-2.714-2.714,2.714,2.714,0,0,1,1.535-2.444Z" transform="translate(-92.786 -101.613)" fill="none" stroke="#c21b17" stroke-linecap="round" stroke-linejoin="round" stroke-width="2"/>
  </g>
</svg>
