<svg xmlns="http://www.w3.org/2000/svg" width="50.11" height="50" viewBox="0 0 50.11 50">
  <g id="icon" transform="translate(-1.73 270.505)">
    <path id="Path_143" data-name="Path 143" d="M116.7-119.92l-1.5,2.661,6.418,5.052a5.131,5.131,0,0,1,1.854,3.013l1.405,6.977a2.759,2.759,0,0,1-2.161,3.248,2.713,2.713,0,0,1-.547.056,2.763,2.763,0,0,1-2.7-2.215l-1.376-6.835-6.472-5.094L109-115.116a5.426,5.426,0,0,1-1.874-2.81" transform="translate(-85.349 -122.592)" fill="none" stroke="#c21b17" stroke-linecap="round" stroke-linejoin="round" stroke-width="2"/>
    <path id="Path_144" data-name="Path 144" d="M74.553-205.811l.656-.865a7,7,0,0,1,5.339-2.771l9.122-.325a6.859,6.859,0,0,1,5.859,2.9l5.333,7.534,5.114-1.31a2.757,2.757,0,0,1,3.356,1.988,2.745,2.745,0,0,1,.088.687,2.762,2.762,0,0,1-2.075,2.67l-5.274,1.351a5.214,5.214,0,0,1-1.293.164,5.316,5.316,0,0,1-4.323-2.226l-2.861-4.043-1.874,3.328" transform="translate(-58.581 -48.958)" fill="none" stroke="#c21b17" stroke-linecap="round" stroke-linejoin="round" stroke-width="2"/>
    <path id="Path_145" data-name="Path 145" d="M58.116-166.525l-.962,1.268a2.758,2.758,0,0,1-3.865.53,2.753,2.753,0,0,1-1.091-2.2,2.745,2.745,0,0,1,.561-1.666l1.037-1.367" transform="translate(-40.334 -81.611)" fill="none" stroke="#c21b17" stroke-linecap="round" stroke-linejoin="round" stroke-width="2"/>
    <path id="Path_146" data-name="Path 146" d="M100.676-170.436l4.647-7.832-5.09.182a1.5,1.5,0,0,0-1.142.591l-.783,1.033" transform="translate(-78.136 -74.797)" fill="none" stroke="#c21b17" stroke-linecap="round" stroke-linejoin="round" stroke-width="2"/>
    <path id="Path_147" data-name="Path 147" d="M59.885-87.395l-.828,2.824a5.127,5.127,0,0,1-4.918,3.681H47.757A2.758,2.758,0,0,1,45-83.647a2.756,2.756,0,0,1,.808-1.951,2.749,2.749,0,0,1,1.951-.807h6.087l1.131-5.415" transform="translate(-34.426 -145.643)" fill="none" stroke="#c21b17" stroke-linecap="round" stroke-linejoin="round" stroke-width="2"/>
    <path id="Path_148" data-name="Path 148" d="M185-264.528a4.977,4.977,0,0,1-4.977,4.977,4.977,4.977,0,0,1-4.977-4.977,4.977,4.977,0,0,1,4.977-4.977A4.977,4.977,0,0,1,185-264.528Z" transform="translate(-141.02)" fill="none" stroke="#c21b17" stroke-linecap="round" stroke-linejoin="round" stroke-width="2"/>
    <path id="Path_149" data-name="Path 149" d="M36.11-184.09l-1.155.222a7.645,7.645,0,0,1-6.39-1.681l-3.152-2.677a7.645,7.645,0,0,0-6.15-1.723l-2.552.406" transform="translate(-11.248 -65.145)" fill="none" stroke="#c21b17" stroke-linecap="round" stroke-linejoin="round" stroke-width="2"/>
    <path id="Path_150" data-name="Path 150" d="M33.912-129.932l-1.856-.438a16.291,16.291,0,0,0-10.419.988l-2.372,1.064a16.288,16.288,0,0,1-11.943.55L3-129.247" transform="translate(0 -113.711)" fill="none" stroke="#c21b17" stroke-linecap="round" stroke-linejoin="round" stroke-width="2"/>
  </g>
</svg>
