<svg xmlns="http://www.w3.org/2000/svg" width="63.14" height="107.3" viewBox="0 0 63.14 107.3"><g fill="#fff"><path data-name="Path 40" d="M62.302 57.613l-18.56-25.927h8.088c2.068 0 2.76-1.375 1.548-3.068L33.789 1.269a2.553 2.553 0 00-4.414 0L9.767 28.58c-1.212 1.693-.519 3.077 1.548 3.077h8.116L.842 57.565C-.869 59.949.112 61.9 3.016 61.9l22.907.019c2.635-5.549 4.462-11.665 3.347-16.146-1.174-4.72-7.935-8.673-7.935-16.519 0-6.357 3.568-8.443 7.424-18.069a37.107 37.107 0 002.173-8.443s1.529-4.077 2.279 6.645c.625 8.828-4.779 12.29-2.337 20.56 2.422 8.173 10.822 9.24 14.964 21.03a31.624 31.624 0 011.693 10.953h12.588c2.9.01 3.895-1.943 2.183-4.327z"/><path data-name="Path 41" d="M1.708 71.075a.207.207 0 01.22-.22h5.52c3.145 0 4.626 1.6 4.626 4a3.364 3.364 0 01-1.721 3.183v.048a3.557 3.557 0 011.981 3.389c0 2.981-1.856 4.424-5.106 4.424h-5.3a.207.207 0 01-.22-.224v-14.6zm5.674 6.04a1.985 1.985 0 100-3.962H4.41a.122.122 0 00-.135.135v3.693a.122.122 0 00.135.135h2.972zM4.41 83.597h3.1a2.093 2.093 0 100-4.174h-3.1a.122.122 0 00-.135.135v3.917a.122.122 0 00.135.135z"/><path data-name="Path 42" d="M14.902 71.076a.207.207 0 01.221-.221h9.3a.207.207 0 01.221.221v1.9a.207.207 0 01-.221.221h-6.809a.122.122 0 00-.135.135v3.674a.122.122 0 00.135.135h5.741a.207.207 0 01.221.221v1.9a.207.207 0 01-.221.221h-5.741a.122.122 0 00-.135.135v3.808a.122.122 0 00.135.135h6.808a.207.207 0 01.221.221v1.9a.207.207 0 01-.221.221h-9.3a.207.207 0 01-.221-.221V71.095zm4.193-1.789a.449.449 0 01-.393-.222l-2.135-2.77c-.087-.106-.048-.221.087-.221h1.375a.57.57 0 01.462.221l1.241 1.308h.048l1.241-1.308a.547.547 0 01.462-.221h1.375c.135 0 .173.115.087.221l-2.143 2.77a.439.439 0 01-.394.221h-1.306z"/><path data-name="Path 43" d="M27.182 71.075a.207.207 0 01.221-.221h2.135a.207.207 0 01.221.221v5.924a.122.122 0 00.135.135h5.655a.122.122 0 00.135-.135v-5.924a.207.207 0 01.221-.221h2.135a.207.207 0 01.221.221v14.6a.207.207 0 01-.221.221h-2.136a.207.207 0 01-.221-.221v-6.059a.122.122 0 00-.135-.135h-5.654a.122.122 0 00-.135.135v6.059a.207.207 0 01-.221.221h-2.135a.207.207 0 01-.221-.221v-14.6z"/><path data-name="Path 44" d="M41.395 71.075a.207.207 0 01.221-.221h9.3a.207.207 0 01.221.221v1.9a.207.207 0 01-.221.221h-6.809a.122.122 0 00-.135.135v3.674a.122.122 0 00.135.135h5.738a.207.207 0 01.221.221v1.9a.207.207 0 01-.221.221h-5.738a.122.122 0 00-.135.135v3.808a.122.122 0 00.135.135h6.808a.207.207 0 01.221.221v1.9a.207.207 0 01-.221.221h-9.3a.207.207 0 01-.221-.221V71.095z"/><path data-name="Path 45" d="M53.108 84.01l1.6-1.221a.224.224 0 01.327.067 2.719 2.719 0 001.981.933c1.567 0 2.462-1 2.462-2.962v-9.752a.207.207 0 01.221-.221h2.135a.207.207 0 01.221.221v9.751c0 3.4-1.981 5.308-5.126 5.308a4.764 4.764 0 01-3.866-1.818.216.216 0 01.038-.308z"/><path data-name="Path 46" d="M8.93 92.231a.207.207 0 01.221-.221h2.135a.207.207 0 01.221.221v12.338a.122.122 0 00.135.135h6.808a.207.207 0 01.221.221v1.9a.207.207 0 01-.221.221h-9.3a.207.207 0 01-.221-.221V92.231z"/><path data-name="Path 47" d="M20.854 92.231a.207.207 0 01.221-.221h9.3a.207.207 0 01.221.221v1.9a.207.207 0 01-.221.221h-6.811a.122.122 0 00-.135.135v3.674a.122.122 0 00.135.135h5.741a.207.207 0 01.221.221v1.9a.207.207 0 01-.221.221h-5.741a.122.122 0 00-.135.135v3.808a.122.122 0 00.135.135h6.81a.207.207 0 01.221.221v1.9a.207.207 0 01-.221.221h-9.3a.207.207 0 01-.221-.221V92.251z"/><path data-name="Path 48" d="M32.711 105.301a.242.242 0 01-.048-.327l1.356-1.6a.19.19 0 01.308-.019 6.616 6.616 0 004.039 1.6c1.769 0 2.789-.9 2.789-2.164 0-1.087-.654-1.789-2.7-2.077l-.789-.115c-2.856-.394-4.472-1.789-4.472-4.289 0-2.721 1.962-4.529 5.02-4.529a8.076 8.076 0 014.8 1.5.194.194 0 01.038.308l-1.048 1.635a.214.214 0 01-.309.066 6.21 6.21 0 00-3.558-1.173c-1.51 0-2.337.837-2.337 2.01 0 1.039.721 1.75 2.731 2.039l.789.115c2.856.394 4.433 1.769 4.433 4.356s-1.894 4.664-5.587 4.664a8.287 8.287 0 01-5.453-1.991z"/><path data-name="Path 49" d="M49.473 107.052a.207.207 0 01-.221-.221v-5.924l-4.3-8.665c-.038-.115.019-.221.173-.221h2.2a.321.321 0 01.308.221l2.9 5.837h.071l2.923-5.837a.305.305 0 01.308-.221h2.116c.173 0 .221.115.173.221l-4.3 8.665v5.924a.207.207 0 01-.221.221z"/></g></svg>