<svg xmlns="http://www.w3.org/2000/svg" width="62.67" height="50.5" viewBox="0 0 62.67 50.5"><g fill="none" stroke="#fff" stroke-linecap="round" stroke-linejoin="round" stroke-width="2.5"><path data-name="Path 126" d="M12.59 19.846h5.91a4.88 4.88 0 004-2.126 20.09 20.09 0 0112.635-8.269 19.992 19.992 0 013.879-.376 20.025 20.025 0 013.879.376 20.018 20.018 0 019.976 5.168 20.067 20.067 0 013.759 4.884 19.976 19.976 0 012.471 9.957 20.153 20.153 0 01-19.937 19.79 20.015 20.015 0 01-13.753-5.308 4.94 4.94 0 00-3.345-1.307h-8.545"/><path data-name="Path 127" d="M42.848 5.583v4.121a20.024 20.024 0 00-3.879-.376 19.991 19.991 0 00-3.879.376V5.583c.065.006.133.01.2.01h7.351c.07 0 .138-.004.207-.01z"/><path data-name="Path 128" d="M44.814 3.422a2.16 2.16 0 01-.635 1.535 2.174 2.174 0 01-1.331.626c-.068.006-.135.01-.2.01h-7.355c-.07 0-.137 0-.2-.01a2.17 2.17 0 01-1.967-2.161 2.158 2.158 0 01.637-1.536 2.156 2.156 0 011.533-.636h7.351a2.17 2.17 0 012.167 2.172z"/><path data-name="Path 129" d="M60.795 15.534l-4.164 4.163a20.068 20.068 0 00-3.759-4.884l3.6-3.6a1.552 1.552 0 012.2 0l2.123 2.122a1.555 1.555 0 010 2.199z"/><path data-name="Path 130" d="M50.69 20.043L45.359 27.9a4.6 4.6 0 00-.768 2.526 4.814 4.814 0 01-1.413 3.331 4.821 4.821 0 01-7.054-.256 4.839 4.839 0 01.121-6.441 4.8 4.8 0 013.548-1.535 4.318 4.318 0 002.426-.766l7.857-5.33a.442.442 0 01.614.614z"/><path data-name="Path 131" d="M25.92 34.593H1.25"/><path data-name="Path 132" d="M27.152 27.607h-4.684"/><path data-name="Path 133" d="M16.392 27.607H5.604"/></g></svg>