<svg xmlns="http://www.w3.org/2000/svg" width="50" height="44.23" viewBox="0 0 50 44.23"><g fill="none" stroke="#c21b17" stroke-linecap="round" stroke-linejoin="round" stroke-width="2"><path data-name="Path 138" d="M18.638 9.793a8.811 8.811 0 01-4.17 7.519 5.484 5.484 0 00-2.027 2.233l-1.724 3.506a1 1 0 01-1.8 0L7.2 19.544a5.414 5.414 0 00-2.01-2.222A8.814 8.814 0 011 9.818a8.819 8.819 0 019.032-8.816 8.852 8.852 0 018.606 8.791z"/><path data-name="Path 139" d="M14.486 9.818a4.664 4.664 0 01-4.663 4.663A4.664 4.664 0 015.16 9.818a4.664 4.664 0 014.663-4.663 4.664 4.664 0 014.663 4.663z"/><path data-name="Path 140" d="M49 26.554a8.815 8.815 0 01-4.17 7.52 5.467 5.467 0 00-2.028 2.233l-1.722 3.5a1 1 0 01-1.8 0l-1.722-3.5a5.429 5.429 0 00-2.01-2.223 8.81 8.81 0 01-4.187-7.5 8.819 8.819 0 019.034-8.816A8.854 8.854 0 0149 26.554z"/><path data-name="Path 141" d="M44.843 26.581a4.663 4.663 0 01-4.663 4.663 4.663 4.663 0 01-4.663-4.663 4.663 4.663 0 014.663-4.663 4.663 4.663 0 014.663 4.663z"/><path data-name="Path 142" d="M9.819 26.339h13.13a4.077 4.077 0 014.075 4.077 4.077 4.077 0 01-4.075 4.076h-4.1a4.37 4.37 0 00-4.37 4.371 4.371 4.371 0 004.37 4.371H40.18"/></g></svg>