<svg xmlns="http://www.w3.org/2000/svg" width="110.17" height="107.3" viewBox="0 0 110.17 107.3"><defs><clipPath id="a"><path data-name="Path 17" d="M.031 36.449v22.982H3.7l9.366-2.441 9.367 2.441h3.663V36.449l-13.03-3.383z" transform="translate(-.031 -33.066)" fill="none"/></clipPath></defs><path data-name="Path 9" d="M83.155 55.344a1.627 1.627 0 011.26-1.054l6.09-1.36-.55-5.43-.021-.116a3.531 3.531 0 00-3.429-3.111c-10.882-.878-13.407-2.492-16.052-4.2a.051.051 0 01-.008-.023l-.018.008-.171-.112a11.353 11.353 0 00-5.909-1.836 28.889 28.889 0 00-7.3 1.323c-.94.277-1.82.56-2.673.831a29.635 29.635 0 01-11.3 1.9l-.9-.029-.233.873c-.176.673-1.562 6.139-.225 9.652a2.761 2.761 0 00-1.19 2.179c.047 1.2-.235 1.5-.329 1.593-.573.592-2.466.67-4.065.67h-.6l-.343.472a4.5 4.5 0 01-4.47 1.326c-.6-1.824-.613-3.215-.039-4.047a3.389 3.389 0 012.72-1.087h.344a2.634 2.634 0 002.621-2.637v-9.786A11.039 11.039 0 0037.462 39a4.956 4.956 0 004.217-4.843 4.8 4.8 0 00-.775-2.611 6.864 6.864 0 004.1-6.08 5.4 5.4 0 00-2.793-5 45.661 45.661 0 001.446-4.948l1.909-6.844a6.018 6.018 0 015.694-4.416h33.655A7.075 7.075 0 0178.664 7.2H58.3l-1.068 2.282h18.251a7.046 7.046 0 01-6.515 3.358H55.737l-1.064 2.276h11.809a7.049 7.049 0 01-6.434 3.233h-7.215l-1.064 2.279h7.564a2.431 2.431 0 01.256 1.362 2.7 2.7 0 01-2.742 2.653 4.367 4.367 0 01-1.742-.435c-.334-.142-.668-.282-1-.424l-1.756 1.574c.329.14.655.28.984.417a8.349 8.349 0 003.516 1 4.912 4.912 0 003.538-1.495c1.3.083 3.388.256 5.411.419 2.418.2 4.7.388 5.886.451.59.031 1.145.06 1.676.086 1 .049 1.922.093 2.842.16 4.59 7.458 6.944 8.437 15.842 9.5.64 1.147 1.215 2.362 1.767 3.585v14.615c.052.668.052.893-.039 1.015a7.759 7.759 0 01-2.161 1.174l-7.5 2.829a4.167 4.167 0 01-.956-3.769m-1.621 3.942H66.71l6.352-6.7a4.253 4.253 0 001.155-4.487c-.311-.9-1.15-2.634-2.02-4.408 2.52 1.171 6.344 2.224 14.124 2.852.935.078 1.184.4 1.368 1.249l.342 3.357-4.067.907a3.9 3.9 0 00-2.934 2.463 5.722 5.722 0 00.5 4.769m-26.737 0a4.014 4.014 0 01.489-3.74 2.954 2.954 0 012.552-.941l4.33.8.11.02h.6l3.062-3.3.028-.029a3.66 3.66 0 00.49-4.81l-4.09-6.745a14.753 14.753 0 011.984-.155h.029a9.124 9.124 0 014.269 1.252c.3.639.715 1.479 1.173 2.414.86 1.744 1.933 3.909 2.228 4.787a1.951 1.951 0 01-.64 2.171l-7.837 8.273H54.8zm-1.231-5.238a5.857 5.857 0 00-1.108 5.238H38.5a5.084 5.084 0 003.342-1.28 4.257 4.257 0 00.963-3.178c.031-.081.181-.394.865-.7l1.2-.55-.723-1.108c-1.191-1.834-.67-5.839-.209-8.017h.109a32.439 32.439 0 0011.022-2.018c.842-.272 1.71-.552 2.63-.818l.028-.01c.016-.006.961-.306 2.246-.606l4.55 7.5.039.062c.454.648.511 1.075-.316 2.036l-2.279 2.461-3.738-.7h-.034a5.239 5.239 0 00-4.634 1.692m-24.758-.495c-.972 1.4-1.091 3.321-.36 5.732h-2.352V40.877a10.125 10.125 0 002.6-.757 18.391 18.391 0 01-.311 2.28c-.034.2-.07.4-.106.624l-.226 1.326H29.4a10.1 10.1 0 004.681-.911v7.685a.35.35 0 01-.34.357H33.4a5.416 5.416 0 00-4.587 2.067m-5 3.738l-10.747-2.8-10.748 2.8V38.069l10.748-2.79 10.747 2.79zm-20.121 2l9.367-2.435 9.369 2.435H3.693zM7.44 30.99a2.719 2.719 0 012.76-1.058l.974.169.3-.936a1.351 1.351 0 01.348-.582 1.644 1.644 0 011.2-.365 7.161 7.161 0 014.489 2.5 12.418 12.418 0 011.363 1.813c.075.137.165.28.246.407.112.178.207.326.225.359a8.329 8.329 0 01.694 1.192l1.417-1.989c.011-.018-.007-.081-.049-.165-.107-.228-.357-.622-.5-.855l-.11-.171a.036.036 0 00-.008-.013c-.015-.023-.075-.123-.16-.251-.158-.249-.383-.6-.484-.8l2.973-4.753a8.4 8.4 0 001.679.175h.073c4.191 0 8.529-2.417 8.529-6.465v-.1a20.515 20.515 0 00-.424-3 9.678 9.678 0 01-.213-1.344c0-.446.624-.938 1.518-.938h1.354l-.613-3.515a7.307 7.307 0 003.023-5.878 10.448 10.448 0 013.771 7.222 11.713 11.713 0 01-.362 3.269l-.144.521.023.008a45.912 45.912 0 01-1.583 5.1l-.351.911.854.485c1.528.867 2.471 1.5 2.471 3.515 0 2.31-2.08 4.082-4.09 4.458l-2.748.513 2.324 1.551a2.612 2.612 0 011.189 2.169 2.694 2.694 0 01-2.749 2.632h-.877l-.247.8c-.854 2.78-1.779 4.139-4.76 4.43a15.954 15.954 0 00.233-2.808c0-.27-.023-1.026-.031-1.267l-.134-2.591-1.825 1.855a5.828 5.828 0 01-2.916 1.362v-2.254l-13.033-3.384-4.637 1.207a3.5 3.5 0 01-.982-3.141m14.069-8.369a.334.334 0 01.295-.28l1.964.065c2.394-.086 4.831-1.07 5.1-3.56a3.161 3.161 0 00-2.886-3.329A6.4 6.4 0 0022.92 16.9a4.185 4.185 0 01-1.774.883c-.306 0-.546-.2-.546-.367a.3.3 0 01.013-.084l1.254-1.678-1.083-.728c-.23-.15-.59-.435-.629-.648-.018-.1.127-.28.171-.334a19.583 19.583 0 001.484-1.949c.319-.448.506-.694 1.045-.694a.956.956 0 01.961.946c0 .345.378.616.849.616s.681-.332.972-.616c0 0 1.119-1.026.526-1.511-.676-.554-3.383.576-2.629-1.909l.188-.354c.288-.383 1.583-1.342 4.259-1.342a13.084 13.084 0 011.59.1l.4.052 5.678-3.5a1.287 1.287 0 01.068.2v.034A4.921 4.921 0 0133.2 8.78l-.694.4.448 2.562a3.253 3.253 0 00-2.474 3.023 10.086 10.086 0 00.257 1.782 18.639 18.639 0 01.38 2.645c0 2.663-3.675 4.424-6.786 4.325h-.081a7.825 7.825 0 01-2.6-.544.391.391 0 01-.144-.347m4.709-17.788a6.973 6.973 0 011.638-1.425 7.386 7.386 0 011.947-.881 7.893 7.893 0 013.673-.085l-4.025 2.482c-.5-.05-.995-.078-1.469-.078A11.693 11.693 0 0026.093 5c.039-.055.081-.109.121-.16m61.363-.585h15.185A7.075 7.075 0 0196.511 7.2H85.3a10.154 10.154 0 002.277-2.952m-.762 8.587H75.608a10.406 10.406 0 002.473-3.358h15.252a7.052 7.052 0 01-6.517 3.358M77.9 18.349H66.686a10.4 10.4 0 002.414-3.233h15.23a7.054 7.054 0 01-6.43 3.233m2.572 8.551a14 14 0 018.642 4.748c.466.55.917 1.135 1.359 1.766-5.97-.785-8.05-1.655-11.392-6.724.448.06.9.126 1.391.21m23.834 24.582c.22.352.407.684.59 1 .22.4.44.78.694 1.181-1.728-.109-3.038-1.066-4.248-2.878a2.591 2.591 0 012.963.694m-14.2 7.8l2.329-.878.033-.013c3.309-1.37 3.78-2.225 3.621-4.424v-8.89c2.518 6.39 4.9 10.881 9.774 10.881a9.764 9.764 0 002.138-.246l1.9-.432-1.311-1.443a12.126 12.126 0 01-1.707-2.466 34.494 34.494 0 00-.629-1.077A4.868 4.868 0 00100.2 48.8c-1-1.981-2-4.564-3.21-7.753l-.264-.606c-.21-.474-.417-.956-.632-1.435v-.078h-.033a45.1 45.1 0 00-2.5-4.956 28.747 28.747 0 00-2.7-3.792 16.229 16.229 0 00-10.012-5.522 58.844 58.844 0 00-7.377-.692c-.523-.023-1.074-.052-1.663-.083-1.147-.063-3.523-.259-5.82-.448-1.549-.124-3.138-.254-4.386-.35a4.678 4.678 0 00.132-1.091 6.325 6.325 0 00-.132-1.362H77.9a9.4 9.4 0 009.053-5.514 9.388 9.388 0 008.98-5.632h.583a9.437 9.437 0 009.24-5.9l.736-1.611H51.258A8.259 8.259 0 0043.384 8l-.034.126a11.711 11.711 0 00-4.862-6.152A12.242 12.242 0 0029.165.343a9.733 9.733 0 00-2.572 1.168 9.416 9.416 0 00-2.178 1.925 17.961 17.961 0 00-1.889 3.026 3.6 3.6 0 00-.736.79l-.66 1.241-.037.071a15.6 15.6 0 01-2.5 3.9 2.6 2.6 0 00-.683 2.23 2.912 2.912 0 00.762 1.432l-.016.037a2.5 2.5 0 00-.337 1.254 2.675 2.675 0 002.828 2.559 5.5 5.5 0 003.038-1.176 8.264 8.264 0 011.8-1 .867.867 0 01.834.831c0 1.194-1.541 1.839-2.645 1.917l-2.241.241c-1.616.15-2.383 1.008-2.383 1.772a1.946 1.946 0 00.629 1.458l.166.168.57.508-2.381 3.832a8.857 8.857 0 00-5.44-2.578 3.842 3.842 0 00-2.844.99 3.391 3.391 0 00-.55.673h-.039a4.98 4.98 0 00-4.132 2.138c-.806 1.236-.515 3.373.508 5L.03 36.308v28.7h110.123v-5.722H90.106z" fill="#fff"/><path data-name="Path 10" d="M21.426 41.021l-7.18-1.862v2.352l7.18 1.865z" fill="#b1b2b3"/><path data-name="Path 11" d="M4.695 43.375l7.178-1.865v-2.355L4.695 41.02z" fill="#b1b2b3"/><path data-name="Path 12" d="M4.695 48.105l7.178-1.862v-2.355l-7.178 1.863z" fill="#b1b2b3"/><path data-name="Path 13" d="M21.426 45.75l-7.18-1.862v2.354l7.18 1.863z" fill="#b1b2b3"/><path data-name="Path 14" d="M21.426 50.484l-7.18-1.868v2.358l7.18 1.862z" fill="#b1b2b3"/><path data-name="Path 15" d="M4.695 52.836l7.178-1.865v-2.354l-7.178 1.868z" fill="#b1b2b3"/><g data-name="Group 3" transform="translate(.031 32.925)" clip-path="url(#a)"><path data-name="Path 16" d="M83.124 22.419a1.627 1.627 0 011.26-1.054l6.09-1.36-.55-5.43-.021-.116a3.531 3.531 0 00-3.429-3.111c-10.882-.878-13.407-2.492-16.052-4.2a.06.06 0 01-.008-.024l-.018.008-.171-.112a11.353 11.353 0 00-5.909-1.836 28.889 28.889 0 00-7.3 1.323c-.94.277-1.82.56-2.673.831a29.635 29.635 0 01-11.3 1.9l-.9-.029-.233.873c-.176.673-1.562 6.139-.225 9.652a2.761 2.761 0 00-1.19 2.179c.047 1.2-.235 1.5-.329 1.593-.573.592-2.466.67-4.065.67h-.6l-.343.472a4.5 4.5 0 01-4.47 1.327c-.6-1.824-.613-3.215-.039-4.047a3.389 3.389 0 012.72-1.087h.344a2.634 2.634 0 002.621-2.637V8.418a11.039 11.039 0 001.097-2.343 4.956 4.956 0 004.217-4.843 4.8 4.8 0 00-.775-2.611 6.864 6.864 0 004.1-6.08 5.4 5.4 0 00-2.793-5 45.661 45.661 0 001.446-4.948l1.909-6.844a6.018 6.018 0 015.694-4.416h33.655a7.075 7.075 0 01-6.251 2.942H58.269l-1.068 2.282h18.251a7.046 7.046 0 01-6.515 3.358H55.706l-1.064 2.276h11.809a7.049 7.049 0 01-6.434 3.233h-7.215l-1.064 2.279h7.564a2.431 2.431 0 01.256 1.362 2.7 2.7 0 01-2.742 2.653 4.367 4.367 0 01-1.742-.435c-.334-.142-.668-.282-1-.424l-1.756 1.574c.329.14.655.28.984.417a8.349 8.349 0 003.516 1 4.912 4.912 0 003.538-1.495c1.3.083 3.388.256 5.411.419 2.418.2 4.7.389 5.886.451.59.031 1.145.06 1.676.086 1 .049 1.922.093 2.842.16 4.59 7.458 6.944 8.437 15.842 9.5.64 1.147 1.215 2.362 1.767 3.585v14.615c.052.668.052.893-.039 1.016a7.783 7.783 0 01-2.161 1.173l-7.5 2.829a4.167 4.167 0 01-.956-3.769m-1.621 3.942H66.679l6.352-6.7a4.253 4.253 0 001.155-4.487c-.311-.9-1.15-2.634-2.02-4.408 2.52 1.171 6.344 2.224 14.124 2.852.935.078 1.184.4 1.368 1.249L88 18.225l-4.067.907a3.9 3.9 0 00-2.934 2.463 5.722 5.722 0 00.5 4.769m-26.737 0a4.014 4.014 0 01.489-3.74 2.954 2.954 0 012.552-.941l4.33.8.11.02h.6l3.062-3.3.028-.029a3.66 3.66 0 00.49-4.81l-4.09-6.745a14.753 14.753 0 011.984-.155h.029a9.124 9.124 0 014.269 1.252c.3.639.715 1.479 1.173 2.414.86 1.744 1.933 3.909 2.228 4.787a1.951 1.951 0 01-.64 2.171l-7.837 8.273h-8.77zm-1.231-5.238a5.857 5.857 0 00-1.108 5.238H38.469a5.079 5.079 0 003.342-1.28 4.257 4.257 0 00.963-3.178c.031-.081.181-.393.865-.7l1.2-.55-.723-1.108c-1.191-1.834-.67-5.839-.209-8.017h.109a32.439 32.439 0 0011.022-2.018c.842-.272 1.71-.552 2.63-.818l.028-.01c.016-.006.961-.306 2.246-.606l4.55 7.5.039.062c.454.648.511 1.075-.316 2.036l-2.279 2.461-3.738-.7h-.034a5.239 5.239 0 00-4.634 1.692m-24.758-.495c-.972 1.4-1.091 3.321-.36 5.732H26.06V7.952a10.085 10.085 0 002.6-.757 18.391 18.391 0 01-.311 2.28c-.034.2-.07.4-.106.624l-.226 1.326h1.352a10.1 10.1 0 004.681-.911v7.685a.35.35 0 01-.34.357h-.341a5.416 5.416 0 00-4.587 2.067m-5 3.738l-10.747-2.8-10.748 2.8V5.144l10.748-2.79 10.747 2.79zm-20.121 2l9.367-2.435 9.369 2.435H3.662zM7.409-1.935a2.721 2.721 0 012.76-1.058l.974.169.3-.936a1.351 1.351 0 01.348-.582 1.644 1.644 0 011.2-.365 7.161 7.161 0 014.489 2.5 12.418 12.418 0 011.363 1.813c.075.137.165.28.246.407.112.178.207.327.225.359a8.329 8.329 0 01.694 1.192l1.417-1.989c.011-.018-.007-.081-.049-.165-.107-.228-.357-.622-.5-.855l-.11-.171a.036.036 0 00-.008-.013c-.015-.023-.075-.123-.16-.251-.158-.249-.383-.6-.484-.8l2.973-4.753a8.4 8.4 0 001.679.175h.073c4.191 0 8.529-2.417 8.529-6.465v-.1a20.515 20.515 0 00-.424-3 9.678 9.678 0 01-.213-1.344c0-.446.624-.938 1.518-.938h1.354l-.613-3.515a7.307 7.307 0 003.023-5.878 10.448 10.448 0 013.771 7.222 11.709 11.709 0 01-.362 3.269l-.144.521.023.008a45.912 45.912 0 01-1.583 5.1l-.351.911.854.485c1.528.867 2.471 1.5 2.471 3.515 0 2.31-2.08 4.082-4.09 4.458l-2.748.513 2.324 1.551a2.612 2.612 0 011.189 2.169 2.694 2.694 0 01-2.749 2.632h-.877l-.247.8c-.854 2.78-1.779 4.139-4.76 4.43a15.954 15.954 0 00.233-2.808c0-.27-.023-1.026-.031-1.267l-.134-2.591-1.825 1.855a5.828 5.828 0 01-2.916 1.362V3.383L13.028-.001 8.391 1.206a3.5 3.5 0 01-.982-3.141m14.069-8.369a.334.334 0 01.295-.28l1.964.065c2.394-.086 4.831-1.07 5.1-3.56a3.161 3.161 0 00-2.886-3.329 6.4 6.4 0 00-3.062 1.383 4.185 4.185 0 01-1.774.883c-.306 0-.546-.2-.546-.367a.292.292 0 01.013-.083l1.254-1.679-1.083-.728c-.23-.15-.59-.435-.629-.648-.018-.1.127-.28.171-.334a19.675 19.675 0 001.483-1.944c.319-.449.506-.7 1.045-.7a.956.956 0 01.961.946c0 .345.378.616.849.616s.681-.332.972-.616c0 0 1.119-1.026.526-1.511-.676-.554-3.383.576-2.629-1.909l.188-.354c.288-.383 1.583-1.342 4.259-1.342a13.084 13.084 0 011.59.1l.4.052 5.678-3.5a1.276 1.276 0 01.068.205v.033a4.921 4.921 0 01-2.516 4.76l-.694.4.448 2.562a3.253 3.253 0 00-2.474 3.023 10.086 10.086 0 00.257 1.782 18.639 18.639 0 01.38 2.645c0 2.663-3.675 4.424-6.786 4.325h-.081a7.856 7.856 0 01-2.6-.545.391.391 0 01-.144-.347m4.709-17.787a6.973 6.973 0 011.638-1.425 7.386 7.386 0 011.947-.881 7.906 7.906 0 013.673-.085l-4.025 2.482c-.5-.05-.995-.078-1.469-.078a11.693 11.693 0 00-1.886.149c.039-.055.081-.109.121-.16m61.363-.585h15.185a7.075 7.075 0 01-6.251 2.945H85.269a10.153 10.153 0 002.277-2.952m-.762 8.587H75.577a10.406 10.406 0 002.473-3.358h15.252a7.052 7.052 0 01-6.517 3.358m-8.916 5.514H66.655a10.4 10.4 0 002.414-3.233h15.23a7.054 7.054 0 01-6.43 3.233m2.572 8.551a14 14 0 018.642 4.748c.466.55.917 1.135 1.359 1.766-5.97-.785-8.05-1.655-11.392-6.724.448.06.9.127 1.391.21m23.834 24.582c.22.352.407.684.59 1 .22.4.44.78.694 1.182-1.728-.11-3.038-1.067-4.248-2.879a2.591 2.591 0 012.963.694m-14.2 7.8l2.329-.878.033-.013c3.309-1.37 3.78-2.225 3.621-4.424v-8.89c2.518 6.39 4.9 10.881 9.774 10.881a9.765 9.765 0 002.138-.246l1.9-.432-1.311-1.443a12.126 12.126 0 01-1.707-2.466 34.494 34.494 0 00-.629-1.077 4.868 4.868 0 00-6.053-1.491c-1-1.981-2-4.564-3.21-7.753l-.264-.606c-.21-.474-.417-.956-.632-1.435v-.078h-.033a45 45 0 00-2.5-4.955 28.694 28.694 0 00-2.7-3.793 16.229 16.229 0 00-10.012-5.522 59.032 59.032 0 00-7.377-.692c-.523-.023-1.074-.052-1.663-.083-1.147-.062-3.523-.259-5.82-.448-1.549-.124-3.138-.254-4.386-.35a4.678 4.678 0 00.132-1.091 6.325 6.325 0 00-.132-1.362h16.297a9.4 9.4 0 009.053-5.514 9.388 9.388 0 008.98-5.632h.583a9.437 9.437 0 009.24-5.9l.736-1.611H51.227a8.259 8.259 0 00-7.874 6.025l-.034.126a11.711 11.711 0 00-4.862-6.152 12.242 12.242 0 00-9.323-1.631 9.733 9.733 0 00-2.572 1.168 9.416 9.416 0 00-2.178 1.925 17.961 17.961 0 00-1.889 3.026 3.627 3.627 0 00-.736.79l-.66 1.241-.037.071a15.578 15.578 0 01-2.5 3.9 2.6 2.6 0 00-.683 2.23 2.912 2.912 0 00.762 1.432l-.016.037a2.5 2.5 0 00-.337 1.254 2.675 2.675 0 002.828 2.559 5.5 5.5 0 003.038-1.176 8.264 8.264 0 011.8-1 .867.867 0 01.834.831c0 1.194-1.541 1.839-2.645 1.917l-2.241.241c-1.616.15-2.383 1.008-2.383 1.772a1.946 1.946 0 00.629 1.458l.166.168.57.508-2.381 3.832a8.857 8.857 0 00-5.44-2.578 3.842 3.842 0 00-2.844.99 3.391 3.391 0 00-.55.673H9.63a4.98 4.98 0 00-4.132 2.138c-.806 1.236-.515 3.373.508 5L-.001 3.383v28.7h110.123v-5.722H90.075z" fill="#fff"/></g><path data-name="Path 18" d="M14.246 41.511l7.18 1.865v-2.354l-7.18-1.864z" fill="#fff"/><path data-name="Path 19" d="M4.695 41.02v2.354l7.177-1.865v-2.354z" fill="#fff"/><path data-name="Path 20" d="M4.695 45.751v2.355l7.177-1.863v-2.354z" fill="#fff"/><path data-name="Path 21" d="M14.246 46.243l7.18 1.862v-2.354l-7.18-1.863z" fill="#fff"/><path data-name="Path 22" d="M14.246 50.974l7.18 1.862v-2.351l-7.18-1.868z" fill="#fff"/><path data-name="Path 23" d="M4.695 50.484v2.352l7.177-1.864v-2.355z" fill="#fff"/><g data-name="Group 5" fill="#fff"><path data-name="Path 24" d="M3.421 106.6h1.513v.585H0v-.585h1.6V95.718H0v-.585h4.934v.585H3.421V106.6z"/><path data-name="Path 25" d="M44.534 95.78l1.015-.754v3.541h-.327a3.97 3.97 0 00-.12-1.031 2.665 2.665 0 00-.327-.765 2.4 2.4 0 00-.464-.542 3.171 3.171 0 00-.534-.378 3.43 3.43 0 00-1.444-.4 2.71 2.71 0 00-1.445.324 2.324 2.324 0 00-.757.722 2.356 2.356 0 00-.344 1.049 1.222 1.222 0 00.258.8 2.6 2.6 0 001.342.9l2.287.585a3.891 3.891 0 011.563.738 3.453 3.453 0 01.842 1 2.825 2.825 0 01.335.954 5.159 5.159 0 01.061.61v.085a4.654 4.654 0 01-.258 1.661 3.814 3.814 0 01-.643 1.134 3.061 3.061 0 01-.861.714 4.691 4.691 0 01-.91.387 3.831 3.831 0 01-.775.153 6.105 6.105 0 01-.472.026h-.07a5.062 5.062 0 01-.928-.12 4.562 4.562 0 01-.877-.3 3.308 3.308 0 01-.895-.592l-1.185.86v-4.4h.333a7.11 7.11 0 00.448 2.271 3.98 3.98 0 00.43.68 2.775 2.775 0 00.627.593 3.31 3.31 0 00.877.422 3.872 3.872 0 001.177.162h.053c.067 0 .186-.005.352-.017a3.9 3.9 0 00.576-.093 3.979 3.979 0 00.679-.233 2.329 2.329 0 00.644-.42 2.077 2.077 0 00.481-.688 2.41 2.41 0 00.19-1.006v-.034c0-.069-.012-.2-.034-.4a2.017 2.017 0 00-.216-.654 2.528 2.528 0 00-.533-.7 2.29 2.29 0 00-1-.507l-2.528-.584a3.254 3.254 0 01-1.135-.551 3.462 3.462 0 01-.791-.885 2.646 2.646 0 01-.361-1.452 3.541 3.541 0 011.16-2.709 3.568 3.568 0 011.127-.688 3.392 3.392 0 011.186-.231 3.84 3.84 0 01.808.084 6.3 6.3 0 01.722.232 1.942 1.942 0 01.67.438z"/><path data-name="Path 26" d="M108.222 95.78l1.015-.754v3.541h-.327a3.952 3.952 0 00-.12-1.031 2.611 2.611 0 00-.327-.765 2.458 2.458 0 00-.462-.542 3.264 3.264 0 00-.535-.378 3.43 3.43 0 00-1.444-.4 2.7 2.7 0 00-1.443.324 2.2 2.2 0 00-1.1 1.771 1.228 1.228 0 00.257.8 2.592 2.592 0 001.342.9l2.285.585a3.912 3.912 0 011.566.738 3.506 3.506 0 01.841 1 2.914 2.914 0 01.335.954 4.908 4.908 0 01.061.61v.085a4.653 4.653 0 01-.259 1.661 3.827 3.827 0 01-.642 1.134 3.072 3.072 0 01-.863.714 4.585 4.585 0 01-.91.387 3.816 3.816 0 01-.774.153c-.223.019-.38.026-.474.026h-.065a5.064 5.064 0 01-.931-.12 4.556 4.556 0 01-.876-.3 3.3 3.3 0 01-.894-.592l-1.186.86v-4.4h.325a7.112 7.112 0 00.448 2.271 4.049 4.049 0 00.43.68 2.783 2.783 0 00.629.593 3.28 3.28 0 00.875.422 3.888 3.888 0 001.179.162h.05c.069 0 .185-.005.352-.017a3.87 3.87 0 00.576-.093 3.957 3.957 0 00.677-.233 2.343 2.343 0 00.646-.42 2.026 2.026 0 00.482-.688 2.478 2.478 0 00.19-1.006v-.034a3.679 3.679 0 00-.037-.4 2.023 2.023 0 00-.215-.654 2.516 2.516 0 00-.534-.7 2.279 2.279 0 00-1-.507l-2.527-.584a3.272 3.272 0 01-1.136-.551 3.414 3.414 0 01-.79-.885 2.645 2.645 0 01-.361-1.452 3.541 3.541 0 011.16-2.709 3.563 3.563 0 011.127-.688 3.383 3.383 0 011.186-.231 3.826 3.826 0 01.808.084 6.364 6.364 0 01.722.232 1.936 1.936 0 01.67.438z"/><path data-name="Path 27" d="M56.157 95.158v4.243h-.344a6.188 6.188 0 00-.292-2.148 3.215 3.215 0 00-.636-1.1 1.5 1.5 0 00-.928-.464h-1.324v10.953h1.495v.584h-4.952v-.584h1.515V95.691h-1.6a1.586 1.586 0 00-.962.464 3.146 3.146 0 00-.67 1.1 5.857 5.857 0 00-.31 2.148h-.258v-4.245h9.267z"/><path data-name="Path 28" d="M101.551 95.131v4.24h-.347a6.211 6.211 0 00-.293-2.147 3.211 3.211 0 00-.635-1.1 1.5 1.5 0 00-.929-.464h-1.32v10.951h1.5v.584H94.57v-.584h1.515V95.659h-1.6a1.581 1.581 0 00-.962.464 3.153 3.153 0 00-.671 1.1 5.856 5.856 0 00-.31 2.147h-.257v-4.239h9.266z"/><path data-name="Path 29" d="M68.738 106.626h1.495v.56h-4.917v-.56h1.582v-10.22l-3.852 10.785h-.584l-3.336-10.872v9.612a.606.606 0 00.182.36.91.91 0 00.344.207 1.487 1.487 0 00.386.086c.125.01.229.017.31.017h.12v.585h-3.266v-.585h.1c.067 0 .161-.007.282-.017a1.283 1.283 0 00.361-.086 1.232 1.232 0 00.353-.207.719.719 0 00.239-.36v-9.612a.385.385 0 00-.222-.318 1.843 1.843 0 00-.464-.172 3.063 3.063 0 00-.516-.078c-.172-.01-.309-.019-.415-.019h-.136v-.581h3.835l2.854 9.282 3.253-9.282h3.507v.582h-1.495v10.892z"/><path data-name="Path 30" d="M31.918 100.674l.007-4.956c3.107 0 4.247-.157 4.788 3.654h.328v-4.241h-8.463v.587h1.466v10.908h-1.613v.558h8.72v-4.441h-.439c-.434 3.372-1.287 3.885-3.684 3.885h-1.11v-5.3h.644c1.074.026 1.686.654 1.906 2.5h.394v-5.481c-.007.01-.39 0-.39 0 0 .028-.075 2.357-1.956 2.324h-.6z"/><path data-name="Path 31" d="M74.412 100.674l.007-4.956c3.107 0 4.248-.157 4.789 3.654h.328v-4.241h-8.463v.587h1.466v10.908h-1.614v.558h8.72v-4.441h-.438c-.436 3.372-1.288 3.885-3.685 3.885h-1.11v-5.3h.644c1.074.026 1.686.654 1.906 2.5h.394v-5.481c-.008.01-.39 0-.39 0 0 .028-.076 2.357-1.956 2.324h-.6z"/><path data-name="Path 32" d="M91.548 95.735v-.577h-4.133v.577h.322c.432 0 1.462.033 1.521.938v6.93l-5.746-8.445h-3.131v.577h.521c.615 0 1.48.028 1.519.938v8.878c0 .866-1.294 1.2-1.838 1.2h-.007v.431h4.234v-.431c-.542 0-1.848-.33-1.848-1.2l.016-7.815c2.275 3.251 6.57 9.447 6.608 9.442h.215v-10.5c.061-.905 1.089-.938 1.521-.938h.226z"/><path data-name="Path 33" d="M16.79 95.711v-.579h-4.143v.579h.323c.434 0 1.464.033 1.525.941v6.945l-5.76-8.465H5.594v.579h.521c.618 0 1.486.028 1.525.941v8.9c0 .867-1.3 1.2-1.844 1.2h-.007v.432h4.246v-.432c-.543 0-1.852-.331-1.852-1.2l.016-7.835c2.28 3.258 6.586 9.471 6.625 9.466h.215v-10.53c.061-.908 1.091-.941 1.524-.941h.227z"/><path data-name="Path 34" d="M24.443 95.131v.58h1.5l-2.436 8.473-2.706-8.473h1.587v-.58h-4.976v.569h.381v.011h1.157l3.609 11.514h.432l3.367-11.514h1.539v-.58z"/><g data-name="Group 4"><path data-name="Path 35" d="M20.925 79.153l.008-7.578c4.75 0 6.493-.24 7.321 5.585h.5v-6.483l-12.938.006v.892h2.24v16.68h-2.463v.879h13.334v-6.816h-.67c-.664 5.154-1.969 5.939-5.635 5.939h-1.7v-8.1h.985c1.644.039 2.58 1 2.914 3.828h.612v-8.378c-.012.014-.6 0-.6 0 0 .042-.117 3.6-2.992 3.551h-.912z"/><path data-name="Path 36" d="M15.638 79.486h-7.3v.828h2.5v6c-.422 1.523-2.666 2.159-3.335 2.159-4.663 0-4.329-6.822-4.329-8.647 0-1.67-.167-8.652 4.329-8.652 3.168 0 4.834 3.154 5.5 5.987h.506c0-1.167.019-6.72.007-6.706.012-.044-2.171 1.565-2.179 1.541.048-.01-1-1.492-3.836-1.492C2 70.502-.017 75.997 0 79.825c.025 3.5 1.641 9.477 7.5 9.477a4.478 4.478 0 003.836-2c.008-.023 2.324 1.827 2.332 1.835v-8.82h1.967v-.828z"/><path data-name="Path 37" d="M100.932 82.319c-.663 5.154-1.971 5.926-5.635 5.926h-.223V71.567h2.332v-.9h-7.667v.9h2.332v16.678h-1.852l-6.81-18.075h-1c.022-.01-5.66 16.4-5.67 16.447.01-.049-.43 1.409-1.363 1.589-.862.042-.8-.409-.8-.567v-3.16c0-.83-.063-2.714-.926-3.579a4.919 4.919 0 00-2.58-1.081s4.188-.865 4.188-4.847c0-2.791-1.939-4.177-5.183-4.3h-9.207v.9h2.356v16.677h-2.356v.885h7.551v-.885h-2.355v-8.02h3.141c5.449.449-.935 8.913 6.2 8.905h4.5v-.89c-.25 0-1.9.047-2-1.1a17.533 17.533 0 011.085-3.814h6.127c0-.012 1.906 4.919 1.923 4.919h-2.133v.885H101.6v-6.816h-.668zm-31.86-3.02h-2.994v-7.73h3.828c2.249.34 2.339 2.938 2.339 3.763 0 2-.835 3.967-3.174 3.967zm10.337 3.179l2.661-7.979 2.836 7.975h-5.5z"/><path data-name="Path 38" d="M51.789 71.564c4.752 0 6.506-.228 7.334 5.6h.5v-6.487H40.76v.887h.493c.666 0 2.246.049 2.337 1.44v10.64l-8.826-12.967h-4.806v.887h.8c.946 0 2.276.042 2.336 1.44v13.632c0 1.331-1.992 1.836-2.824 1.836h-.009v.662h6.5v-.662c-.832 0-2.836-.5-2.836-1.836l.022-12c3.495 4.992 10.087 14.508 10.147 14.5h.331V73.004c.091-1.391 1.67-1.44 2.336-1.44h2.167v16.691h-2.47v.879h13.334v-6.816h-.669c-.664 5.154-1.969 5.939-5.636 5.939h-1.7v-8.1h.984c1.645.039 2.58 1 2.914 3.828h.606l-.005-8.378c-.01.014-.6 0-.6 0 0 .042-.117 3.6-2.993 3.551h-.912v-7.594z"/><path data-name="Path 39" d="M109.985 71.565v-.9h-7.525v.9h2.363l.009 16.669h-2.372v.9h7.527v-.9h-2.364V71.565z"/></g></g></svg>