<svg id="Vrstva_1" xmlns="http://www.w3.org/2000/svg" viewBox="0 0 898.39 541.75"><defs><style>.cls-2,.cls-3,.cls-4,.cls-5{stroke-miterlimit:10}.cls-2,.cls-3,.cls-5{stroke-linecap:round}.cls-2,.cls-5{stroke:#d1050c}.cls-3,.cls-4{fill:none}.cls-2{fill:#da373d}.cls-2,.cls-5{stroke-width:1.376025px}.cls-3{stroke-width:.849423px}.cls-3,.cls-4{stroke:#ccc}.cls-6{fill:#ccc}.cls-4{stroke-width:.776754px}.cls-5{fill:#fff}</style></defs><path class="cls-4" d="M215.8.42v490.23M111.66.42v490.23M428.31.42v490.23M534.57.42v490.23M640.83.42v490.23M747.09.42v490.23M853.34.42v490.23M898 .42v490.23M322.05.42v490.23"/><path class="cls-3" d="M112.23.42h785.66M112.2 38.14h785.68M112.17 75.86h785.7M112.14 113.58h785.73M112.11 151.3h785.75M112.08 189.02h785.77M112.04 226.73h785.81M112.01 264.45h785.83M111.98 302.17h785.85M111.95 339.89h785.88M111.92 377.61h785.9M111.89 415.33h785.92M111.85 453.04h785.96M111.82 490.76H897.8"/><path d="M860.271 330.439c-4.266.208-7.708 1.449-10.033 2.52-6.337 2.922-9.912 5.673-9.912 5.673-4.111 3.164-5.404 5.206-7.953 3.781-2.376-1.327-2.507-3.8-5.629-6.302l-6.878-4.867c-2.545-.643-4.577-2.374-5.923-3.772-2.343-2.433-2.848-4.103-5.923-7.543-2.097-2.346-3.683-3.606-5.474-5.029-1.88-1.494-3.842-3.052-6.461-4.4-2.823-1.452-3.324-1.072-4.757-3.143-1.576-2.278-1.712-3.811-4.038-8.172-2.57-4.82-2.756-3.607-4.846-7.543-2.669-5.026-2.727-7.683-5.384-13.2-.657-1.364-2.832-5.726-5.654-8.172-3.497-3.032-3.742.558-7-3.143-1.574-1.79-1.602-2.726-4.397-6.286-2.542-3.24-2.536-2.487-4.397-5.029-2.267-3.096-2.477-4.489-5.654-9.429-2.065-3.213-3.098-4.82-4.128-5.657-1.681-1.37-2.574-.822-5.923 0-5.122 1.257-4.272.28-6.64 1.257-3.586 1.478-4.304 3.21-7.18 3.143-1.555-.036-2.686-.098-4.217-1.886-1.82-2.125-2.425-4.612-4.846-9.429-2.36-4.695-4.178-7.091-5.474-8.8-1.15-1.516-1.605-1.877-6.641-6.286-5.587-4.892-6.02-5.315-7.09-5.658-2.214-.709-3.134.217-6.371 1.258-3.373 1.084-5.719 1.141-10.41 1.257-5.383.132-5.203-1.039-10.858-1.257-6.255-.242-6.154 1.202-13.551 1.257-4.5.033-4.408-.502-11.487-.63-4.829-.086-4.762.165-8.794 0-5.42-.22-6.196-.7-10.41-.627-2.47.042-4.265.242-7.718.628-4.735.528-4.92.8-8.974 1.257-1.804.204-5.475.348-12.743.629-4.212.163-5.685.2-7.897 0-4.358-.394-6.544-1.253-7.897-1.886-.636-.297-2.58-1.244-5.115-3.143-2.712-2.032-2.495-2.455-5.654-5.029-3.95-3.218-4.318-2.58-5.564-5.657-2.033-5.02-1.941-8.91-3.769-12.572-1.904-3.815-2.466-.52-5.205-1.886-1.172-.584-2.755-3.114-5.923-8.172-2.802-4.476-4.204-6.714-5.653-10.057-.69-1.592-1-2.462-5.744-16.344-3.913-11.454-4.211-12.353-5.025-14.458-2.057-5.32-2.198-4.866-5.205-11.943-.844-1.985-.923-2.235-6.461-16.344-4.375-11.146-4.733-12.029-5.564-15.086-2.536-9.328-2.445-13.034-4.128-16.972-1.227-2.871-2.87-2.372-6.103-1.257-3.272 1.129-4.938 1.772-6.371 5.657-.429 1.163-1.483 5.385-3.59 13.83-3.09 12.383-3.182 13.435-4.397 17.6-1.982 6.797-3.626 10.474-4.577 12.572-2.231 4.925-2.499 3.852-5.294 9.429-1.668 3.327-2.968 5.92-4.577 10.686-2.958 8.761-2.891 12.807-5.384 19.487-.983 2.633-2.45 4.898-5.385 9.429-2.357 3.638-3.552 5.462-4.397 5.657-1.539.356-1.79-1.479-5.474-5.657-3.376-3.83-3.39-2.545-5.474-5.658-2.436-3.636-2.368-5.317-4.936-9.429-1.775-2.841-3.247-4.199-6.192-6.914-2.285-2.108-3.428-3.161-4.936-3.772-.498-.202-2.596-.995-5.474 0-1.743.603-3.226 1.869-6.192 4.4-2.679 2.287-4.658 4.326-6.551 6.286-2.607 2.7-3.911 4.05-5.025 5.658-2.618 3.777-2.832 5.447-4.846 7.543-1.734 1.804-1.906.91-4.398 3.143-1.532 1.373-2.563 2.297-3.858 4.4-2.062 3.345-2.423 5.825-4.936 11.315-.623 1.36-2.664 5.715-5.026 8.8-1.714 2.24-1.965 1.679-5.922 4.4-3.863 2.657-5.794 3.985-7.808 6.915-.546.794-1.98 3.253-4.846 8.172-2.224 3.816-3.337 5.725-3.948 6.914-3.216 6.254-3.632 8.931-6.013 13.2-2.093 3.754-3.72 5.177-5.025 6.287-2.882 2.45-3.827 1.295-7.18 2.514-2.047.745-3.817 2.173-7.358 5.03-4.444 3.583-6.666 5.375-8.795 8.8-3.208 5.16-3.135 7.487-5.833 10.686-2.354 2.79-2.923 1.627-6.55 5.029-2.234 2.093-3.938 4.333-4.937 5.657-4.206 5.574-4.187 7.523-7 10.686-3.545 3.987-3.701 1.032-6.91 5.657-1.997 2.88-2.112 4.28-4.755 8.172-2.114 3.113-3.792 4.797-5.295 6.286-3.45 3.42-3.504 2.283-5.654 5.029-2.408 3.077-2.407 4.59-5.115 8.172-1.99 2.631-3.523 3.842-5.025 5.029-2.134 1.685-3.76 2.421-5.385 3.143-2.634 1.17-2.888.801-5.384 1.885-3.002 1.304-3.194 2.08-5.564 3.143-2.748 1.234-3.01.425-7.359 1.257-3.596.689-5.394 1.033-7.717 2.515-3.487 2.224-3.614 3.955-7.27 6.286-2.493 1.59-4.294 1.983-6.73 2.514-4.167.909-6.25 1.363-8.525-.628-.15-.131-.118-.111-5.205-6.915-3.71-4.964-5.593-7.447-6.91-7.543-2.316-.168-2.2 2.632-5.115 3.143-3.477.609-3.615-3.382-6.192-1.886-.991.575-2.695 3.736-6.102 10.058-2.496 4.63-3.744 6.944-5.116 10.057-3.12 7.081-3.476 9.752-5.205 11.944-.533.676-1.512 1.706-4.935.628-2.464-.776-4.053-1.97-8.346-5.029-3.702-2.637-5.57-3.964-6.372-4.4-2.389-1.297-2.74-1.068-7.179-3.143-3.844-1.797-4.686-2.486-5.384-3.143-2.612-2.458-2.994-4.27-5.115-6.286-2.69-2.556-3.126-.639-6.551-1.885-.992-.361-4.307-1.742-8.346-6.915-3.143-4.026-3.942-6.782-6.888-8.97-1.677-1.246-3.092-1.576-4.283-1.89a11.458 11.458 0 00-5.995 0" fill="none" stroke="#d1050c" stroke-linecap="round" stroke-miterlimit="10" stroke-width="3.23"/><path class="cls-6" d="M189.417 538.649c0-.132.022-.199.088-.286l5.528-7.247c.749-.97 1.233-1.916 1.233-2.93 0-1.63-1.167-2.796-2.863-2.796-1.652 0-2.599 1.013-2.863 2.576-.022.132-.11.2-.264.177l-.683-.177c-.132-.022-.198-.109-.176-.24.242-1.83 1.608-3.482 4.008-3.482 2.423 0 4.03 1.652 4.03 3.943 0 1.32-.572 2.423-1.52 3.657l-4.933 6.43v.022h6.234c.132 0 .22.089.22.22v.705c0 .132-.088.22-.22.22h-7.6c-.131 0-.219-.088-.219-.22v-.572zM200.072 537.525h.947c.132 0 .22.089.22.22v1.653c0 .22-.022.308-.11.483l-.859 1.697c-.066.132-.154.176-.264.176s-.154-.065-.154-.199v-3.81c0-.131.088-.22.22-.22zM203.948 536.226l.705-.176c.154-.045.241.044.286.176.22 1.321 1.19 2.29 2.863 2.29 1.233 0 2.225-.573 2.62-1.718.155-.483.22-1.167.22-2.157 0-1.037-.087-1.697-.263-2.204-.352-1.122-1.278-1.673-2.533-1.673-1.41 0-2.356.837-2.643 1.784-.044.153-.088.22-.22.22h-.727c-.132 0-.22-.088-.22-.22v-7.862c0-.133.088-.221.22-.221h7.07c.132 0 .22.088.22.22v.705c0 .132-.088.22-.22.22h-6.013c-.088 0-.132.044-.132.132v5.175h.044c.374-.638 1.366-1.299 2.73-1.299 1.763 0 3.018.816 3.525 2.38.198.616.352 1.43.352 2.643 0 1.122-.11 1.915-.308 2.51-.528 1.608-1.916 2.511-3.7 2.511-2.313 0-3.788-1.344-4.03-3.172-.022-.11.022-.22.154-.264zM225.856 539.441c-.155 0-.22-.043-.331-.22l-3.347-5.44-2.247 2.642v2.798c0 .132-.088.22-.22.22h-.749c-.132 0-.22-.088-.22-.22v-14.535c0-.133.088-.221.22-.221h.75c.131 0 .22.088.22.22v10.088l4.756-5.616c.133-.154.199-.221.375-.221h.903c.132 0 .198.132.11.22l-3.105 3.678 3.92 6.387c.066.11 0 .22-.132.22h-.903zM242.48 539.441c-.132 0-.22-.088-.22-.22v-6.21c0-2.094-.947-3.15-2.775-3.15-1.607 0-2.841 1.101-2.841 2.929v6.43c0 .133-.088.221-.22.221h-.75c-.131 0-.219-.088-.219-.22v-6.21c0-2.094-.925-3.15-2.753-3.15-1.608 0-2.863 1.101-2.863 2.929v6.43c0 .133-.088.221-.22.221h-.75c-.131 0-.22-.088-.22-.22v-10.064c0-.133.089-.221.22-.221h.75c.132 0 .22.088.22.22v1.256h.022c.528-1.036 1.63-1.697 3.105-1.697 1.63 0 2.731.684 3.26 1.961h.022c.617-1.212 1.74-1.96 3.457-1.96 2.379 0 3.745 1.454 3.745 4.009v6.496c0 .132-.089.22-.22.22h-.75zM11.801 337.455v-.045c-1.167-.572-2.004-1.784-2.004-3.347 0-2.224 1.586-3.943 4.008-3.943 2.423 0 4.009 1.719 4.009 3.943 0 1.563-.837 2.775-2.004 3.347v.045c1.41.594 2.4 1.96 2.4 3.81 0 2.51-1.828 4.273-4.405 4.273s-4.404-1.762-4.404-4.274c0-1.85.99-3.215 2.4-3.809zm2.004 6.938c1.96 0 3.216-1.345 3.216-3.172 0-1.85-1.277-3.216-3.216-3.216-1.938 0-3.215 1.366-3.215 3.216 0 1.827 1.255 3.172 3.215 3.172zm2.82-10.33c0-1.607-1.145-2.798-2.82-2.798-1.674 0-2.819 1.19-2.819 2.798 0 1.586 1.102 2.797 2.82 2.797 1.695 0 2.818-1.21 2.818-2.797zM20.232 337.83c0-3.59.155-4.493.33-5.023.573-1.739 1.96-2.687 3.855-2.687 1.894 0 3.282.948 3.854 2.687.176.53.33 1.433.33 5.023s-.154 4.493-.33 5.02c-.572 1.74-1.96 2.688-3.854 2.688-1.894 0-3.282-.948-3.855-2.687-.175-.528-.33-1.431-.33-5.021zm4.185 6.584c1.321 0 2.268-.573 2.687-1.827.154-.485.308-1.3.308-4.757s-.154-4.274-.308-4.759c-.419-1.254-1.366-1.827-2.687-1.827-1.321 0-2.269.573-2.687 1.827-.154.485-.308 1.3-.308 4.759s.154 4.272.308 4.757c.418 1.254 1.366 1.827 2.687 1.827zM30.844 337.83c0-3.59.155-4.493.33-5.023.573-1.739 1.961-2.687 3.855-2.687s3.282.948 3.855 2.687c.175.53.33 1.433.33 5.023s-.155 4.493-.33 5.02c-.573 1.74-1.96 2.688-3.855 2.688-1.894 0-3.282-.948-3.854-2.687-.176-.528-.33-1.431-.33-5.021zm4.185 6.584c1.321 0 2.269-.573 2.687-1.827.154-.485.308-1.3.308-4.757s-.154-4.274-.308-4.759c-.418-1.254-1.366-1.827-2.687-1.827-1.321 0-2.268.573-2.687 1.827-.154.485-.308 1.3-.308 4.759s.154 4.272.308 4.757c.419 1.254 1.366 1.827 2.687 1.827zM10.413 412.254l3.723-7.158c.066-.11.132-.154.286-.154h.815c.154 0 .176.11.132.2L12 411.636l.045.023c.374-.309 1.079-.53 1.937-.53 2.423 0 4.207 1.763 4.207 4.45 0 2.797-1.828 4.56-4.36 4.56-2.555 0-4.384-1.763-4.384-4.517 0-1.189.42-2.334.97-3.369zm3.415 6.74c1.871 0 3.17-1.366 3.17-3.347 0-1.983-1.299-3.371-3.17-3.371-1.895 0-3.194 1.388-3.194 3.37 0 1.982 1.3 3.348 3.194 3.348zM20.232 412.431c0-3.59.155-4.494.33-5.022.573-1.74 1.96-2.687 3.855-2.687 1.894 0 3.282.947 3.854 2.687.176.528.33 1.432.33 5.022s-.154 4.493-.33 5.021c-.572 1.74-1.96 2.687-3.854 2.687-1.894 0-3.282-.948-3.855-2.687-.175-.528-.33-1.43-.33-5.02zm4.185 6.585c1.321 0 2.268-.574 2.687-1.828.154-.485.308-1.299.308-4.757s-.154-4.273-.308-4.758c-.419-1.254-1.366-1.828-2.687-1.828-1.321 0-2.269.574-2.687 1.828-.154.485-.308 1.3-.308 4.758s.154 4.272.308 4.757c.418 1.254 1.366 1.828 2.687 1.828zM30.844 412.431c0-3.59.155-4.494.33-5.022.573-1.74 1.961-2.687 3.855-2.687s3.282.947 3.855 2.687c.175.528.33 1.432.33 5.022s-.155 4.493-.33 5.021c-.573 1.74-1.96 2.687-3.855 2.687-1.894 0-3.282-.948-3.854-2.687-.176-.528-.33-1.43-.33-5.02zm4.185 6.585c1.321 0 2.269-.574 2.687-1.828.154-.485.308-1.299.308-4.757s-.154-4.273-.308-4.758c-.418-1.254-1.366-1.828-2.687-1.828-1.321 0-2.268.574-2.687 1.828-.154.485-.308 1.3-.308 4.758s.154 4.272.308 4.757c.419 1.254 1.366 1.828 2.687 1.828zM15.612 264.02l-.045-.022c-.374.309-1.079.529-1.938.529-2.422 0-4.206-1.762-4.206-4.449 0-2.797 1.828-4.559 4.36-4.559 2.555 0 4.384 1.762 4.384 4.515 0 1.19-.42 2.335-.97 3.37l-3.722 7.158c-.066.11-.132.154-.286.154h-.815c-.154 0-.177-.11-.132-.2l3.37-6.495zm1.365-4.008c0-1.982-1.3-3.347-3.194-3.347-1.872 0-3.17 1.365-3.17 3.347s1.298 3.37 3.17 3.37c1.895 0 3.194-1.388 3.194-3.37zM20.232 263.227c0-3.59.155-4.492.33-5.02.573-1.74 1.96-2.688 3.855-2.688 1.894 0 3.282.947 3.854 2.687.176.529.33 1.432.33 5.021 0 3.591-.154 4.494-.33 5.022-.572 1.74-1.96 2.687-3.854 2.687-1.894 0-3.282-.948-3.855-2.687-.175-.528-.33-1.431-.33-5.022zm4.185 6.586c1.321 0 2.268-.574 2.687-1.828.154-.485.308-1.3.308-4.758 0-3.457-.154-4.272-.308-4.757-.419-1.255-1.366-1.828-2.687-1.828-1.321 0-2.269.573-2.687 1.828-.154.485-.308 1.3-.308 4.757 0 3.459.154 4.273.308 4.758.418 1.254 1.366 1.828 2.687 1.828zM30.844 263.227c0-3.59.155-4.492.33-5.02.573-1.74 1.961-2.688 3.855-2.688s3.282.947 3.855 2.687c.175.529.33 1.432.33 5.021 0 3.591-.155 4.494-.33 5.022-.573 1.74-1.96 2.687-3.855 2.687-1.894 0-3.282-.948-3.854-2.687-.176-.528-.33-1.431-.33-5.022zm4.185 6.586c1.321 0 2.269-.574 2.687-1.828.154-.485.308-1.3.308-4.758 0-3.457-.154-4.272-.308-4.757-.418-1.255-1.366-1.828-2.687-1.828-1.321 0-2.268.573-2.687 1.828-.154.485-.308 1.3-.308 4.757 0 3.459.154 4.273.308 4.758.419 1.254 1.366 1.828 2.687 1.828zM2.995 182.747H2.95l-2.71 1.916c-.109.088-.241.044-.241-.132v-.925c0-.154.044-.242.154-.33l2.775-2.005c.11-.088.198-.132.33-.132h.705c.133 0 .22.089.22.22v14.537c0 .132-.087.22-.22.22h-.749c-.132 0-.22-.088-.22-.22v-13.15zM9.62 188.627c0-3.59.155-4.492.33-5.02.573-1.74 1.96-2.688 3.854-2.688 1.895 0 3.282.947 3.855 2.687.176.529.33 1.431.33 5.021s-.154 4.493-.33 5.022c-.572 1.74-1.96 2.687-3.855 2.687-1.893 0-3.281-.947-3.854-2.687-.175-.529-.33-1.432-.33-5.022zm4.184 6.586c1.322 0 2.27-.573 2.687-1.829.155-.484.309-1.299.309-4.757s-.154-4.273-.309-4.757c-.418-1.255-1.365-1.828-2.687-1.828-1.32 0-2.268.573-2.687 1.828-.154.484-.307 1.3-.307 4.757s.153 4.273.307 4.757c.42 1.256 1.366 1.829 2.687 1.829zM20.232 188.627c0-3.59.155-4.492.33-5.02.573-1.74 1.96-2.688 3.855-2.688 1.894 0 3.282.947 3.854 2.687.176.529.33 1.431.33 5.021s-.154 4.493-.33 5.022c-.572 1.74-1.96 2.687-3.854 2.687-1.894 0-3.282-.947-3.855-2.687-.175-.529-.33-1.432-.33-5.022zm4.185 6.586c1.321 0 2.268-.573 2.687-1.829.154-.484.308-1.299.308-4.757s-.154-4.273-.308-4.757c-.419-1.255-1.366-1.828-2.687-1.828-1.321 0-2.269.573-2.687 1.828-.154.484-.308 1.3-.308 4.757s.154 4.273.308 4.757c.418 1.256 1.366 1.829 2.687 1.829zM30.844 188.627c0-3.59.154-4.492.33-5.02.573-1.74 1.96-2.688 3.854-2.688 1.894 0 3.282.947 3.855 2.687.175.529.33 1.431.33 5.021s-.155 4.493-.33 5.022c-.573 1.74-1.96 2.687-3.855 2.687-1.894 0-3.281-.947-3.854-2.687-.176-.529-.33-1.432-.33-5.022zm4.184 6.586c1.322 0 2.269-.573 2.687-1.829.155-.484.308-1.299.308-4.757s-.153-4.273-.308-4.757c-.418-1.255-1.365-1.828-2.687-1.828-1.321 0-2.268.573-2.686 1.828-.155.484-.309 1.3-.309 4.757s.154 4.273.309 4.757c.418 1.256 1.365 1.829 2.686 1.829zM2.995 108.147H2.95l-2.71 1.916c-.109.088-.241.044-.241-.132v-.925c0-.155.044-.242.154-.33l2.775-2.005c.11-.088.198-.132.33-.132h.705c.133 0 .22.089.22.22v14.537c0 .132-.087.22-.22.22h-.749c-.132 0-.22-.088-.22-.22v-13.15zM13.606 108.147h-.043l-2.71 1.916c-.11.088-.242.044-.242-.132v-.925c0-.155.044-.242.154-.33l2.775-2.005c.11-.088.198-.132.33-.132h.705c.133 0 .22.089.22.22v14.537c0 .132-.087.22-.22.22h-.748c-.132 0-.22-.088-.22-.22v-13.15zM20.232 114.027c0-3.59.155-4.493.33-5.021.573-1.74 1.96-2.687 3.855-2.687 1.894 0 3.282.947 3.854 2.687.176.528.33 1.431.33 5.021s-.154 4.493-.33 5.022c-.572 1.74-1.96 2.686-3.854 2.686-1.894 0-3.282-.946-3.855-2.686-.175-.529-.33-1.432-.33-5.022zm4.185 6.586c1.321 0 2.268-.573 2.687-1.829.154-.484.308-1.299.308-4.757s-.154-4.273-.308-4.757c-.419-1.255-1.366-1.828-2.687-1.828-1.321 0-2.269.573-2.687 1.828-.154.484-.308 1.3-.308 4.757s.154 4.273.308 4.757c.418 1.256 1.366 1.829 2.687 1.829zM30.844 114.027c0-3.59.154-4.493.33-5.021.573-1.74 1.96-2.687 3.854-2.687 1.894 0 3.282.947 3.855 2.687.175.528.33 1.431.33 5.021s-.155 4.493-.33 5.022c-.573 1.74-1.96 2.686-3.855 2.686-1.894 0-3.281-.946-3.854-2.686-.176-.529-.33-1.432-.33-5.022zm4.184 6.586c1.322 0 2.269-.573 2.687-1.829.155-.484.308-1.299.308-4.757s-.153-4.273-.308-4.757c-.418-1.255-1.365-1.828-2.687-1.828-1.321 0-2.268.573-2.686 1.828-.155.484-.309 1.3-.309 4.757s.154 4.273.309 4.757c.418 1.256 1.365 1.829 2.686 1.829zM2.995 33.547H2.95l-2.71 1.916C.133 35.55 0 35.507 0 35.33v-.925c0-.155.044-.242.154-.33l2.775-2.005c.11-.088.198-.132.33-.132h.705c.133 0 .22.088.22.22v14.537c0 .132-.087.22-.22.22h-.749c-.132 0-.22-.088-.22-.22v-13.15zM9.775 46.123c0-.132.021-.198.087-.287l5.528-7.246c.75-.969 1.233-1.916 1.233-2.93 0-1.629-1.167-2.796-2.862-2.796-1.652 0-2.6 1.013-2.864 2.577-.021.132-.11.198-.264.176l-.683-.176c-.132-.022-.198-.11-.175-.242.241-1.828 1.607-3.48 4.008-3.48 2.422 0 4.03 1.652 4.03 3.942 0 1.322-.573 2.423-1.52 3.656l-4.933 6.431v.022h6.233c.132 0 .22.089.22.22v.706c0 .132-.088.22-.22.22H9.995c-.133 0-.22-.088-.22-.22v-.573zM20.232 39.427c0-3.59.155-4.493.33-5.021.573-1.74 1.96-2.687 3.855-2.687 1.894 0 3.282.947 3.854 2.687.176.528.33 1.431.33 5.021s-.154 4.493-.33 5.022c-.572 1.74-1.96 2.686-3.854 2.686-1.894 0-3.282-.946-3.855-2.686-.175-.529-.33-1.432-.33-5.022zm4.185 6.586c1.321 0 2.268-.573 2.687-1.829.154-.484.308-1.299.308-4.757s-.154-4.273-.308-4.757c-.419-1.256-1.366-1.828-2.687-1.828-1.321 0-2.269.572-2.687 1.828-.154.484-.308 1.3-.308 4.757s.154 4.273.308 4.757c.418 1.256 1.366 1.829 2.687 1.829zM30.844 39.427c0-3.59.154-4.493.33-5.021.573-1.74 1.96-2.687 3.854-2.687 1.894 0 3.282.947 3.855 2.687.175.528.33 1.431.33 5.021s-.155 4.493-.33 5.022c-.573 1.74-1.96 2.686-3.855 2.686-1.894 0-3.281-.946-3.854-2.686-.176-.529-.33-1.432-.33-5.022zm4.184 6.586c1.322 0 2.269-.573 2.687-1.829.155-.484.308-1.299.308-4.757s-.153-4.273-.308-4.757c-.418-1.256-1.365-1.828-2.687-1.828-1.321 0-2.268.572-2.686 1.828-.155.484-.309 1.3-.309 4.757s.154 4.273.309 4.757c.418 1.256 1.365 1.829 2.686 1.829zM302.822 538.318l.705-.176c.153-.045.241.044.286.176.22 1.32 1.19 2.29 2.863 2.29 1.233 0 2.225-.573 2.62-1.718.155-.484.22-1.167.22-2.157 0-1.037-.087-1.697-.263-2.204-.352-1.122-1.278-1.674-2.533-1.674-1.41 0-2.357.838-2.643 1.784-.044.154-.088.221-.22.221h-.727c-.133 0-.22-.088-.22-.22v-7.863c0-.132.087-.22.22-.22h7.07c.132 0 .22.088.22.22v.704c0 .133-.088.221-.22.221h-6.013c-.088 0-.132.044-.132.132v5.175h.044c.374-.638 1.366-1.299 2.73-1.299 1.763 0 3.018.816 3.525 2.38.198.616.352 1.43.352 2.643 0 1.122-.11 1.914-.308 2.51-.528 1.608-1.916 2.51-3.7 2.51-2.313 0-3.788-1.343-4.03-3.17-.023-.111.022-.222.154-.265zM324.73 541.533c-.155 0-.22-.043-.33-.22l-3.349-5.44-2.246 2.642v2.798c0 .132-.088.22-.22.22h-.749c-.132 0-.22-.088-.22-.22v-14.536c0-.132.088-.22.22-.22h.75c.131 0 .22.088.22.22v10.088l4.756-5.617c.132-.153.199-.22.375-.22h.903c.132 0 .198.132.11.22l-3.105 3.677 3.92 6.388c.066.11 0 .22-.132.22h-.903zM341.355 541.533c-.133 0-.22-.088-.22-.22v-6.21c0-2.094-.948-3.15-2.776-3.15-1.607 0-2.841 1.101-2.841 2.929v6.43c0 .133-.088.221-.22.221h-.75c-.131 0-.22-.088-.22-.22v-6.21c0-2.094-.925-3.15-2.752-3.15-1.608 0-2.863 1.101-2.863 2.929v6.43c0 .133-.088.221-.22.221h-.75c-.132 0-.22-.088-.22-.22v-10.065c0-.132.088-.22.22-.22h.75c.132 0 .22.088.22.22v1.256h.022c.528-1.036 1.63-1.697 3.105-1.697 1.63 0 2.731.684 3.26 1.961h.021c.617-1.212 1.74-1.96 3.458-1.96 2.379 0 3.745 1.454 3.745 4.009v6.496c0 .132-.089.22-.22.22h-.75zM407.675 525.677v-.067h-5.417c-.088 0-.132.044-.132.132v2.049c0 .132-.089.22-.22.22h-.75c-.131 0-.22-.088-.22-.22v-3.105c0-.133.089-.221.22-.221h7.577c.132 0 .22.088.22.22v.815c0 .088-.022.154-.044.22l-5.374 13.523c-.066.155-.11.198-.286.198h-.815c-.132 0-.176-.088-.11-.242l5.351-13.522zM411.35 537.525h.947c.132 0 .22.089.22.22v1.653c0 .22-.022.308-.11.483l-.86 1.697c-.065.132-.153.176-.264.176s-.153-.065-.153-.199v-3.81c0-.131.087-.22.22-.22zM415.225 536.226l.705-.176c.154-.045.242.044.286.176.22 1.321 1.19 2.29 2.863 2.29 1.234 0 2.225-.573 2.621-1.718.154-.483.22-1.167.22-2.157 0-1.037-.087-1.697-.264-2.204-.352-1.122-1.277-1.673-2.532-1.673-1.41 0-2.357.837-2.644 1.784-.043.153-.087.22-.22.22h-.727c-.132 0-.22-.088-.22-.22v-7.862c0-.133.088-.221.22-.221h7.07c.132 0 .22.088.22.22v.705c0 .132-.088.22-.22.22h-6.012c-.088 0-.132.044-.132.132v5.175h.044c.374-.638 1.365-1.299 2.73-1.299 1.763 0 3.018.816 3.524 2.38.198.616.353 1.43.353 2.643 0 1.122-.11 1.915-.309 2.51-.528 1.608-1.916 2.511-3.7 2.511-2.312 0-3.788-1.344-4.03-3.172-.022-.11.022-.22.154-.264zM437.134 539.441c-.155 0-.221-.043-.331-.22l-3.348-5.44-2.246 2.642v2.798c0 .132-.088.22-.22.22h-.75c-.131 0-.22-.088-.22-.22v-14.535c0-.133.089-.221.22-.221h.75c.132 0 .22.088.22.22v10.088l4.757-5.616c.132-.154.199-.221.374-.221h.903c.132 0 .198.132.11.22l-3.105 3.678 3.92 6.387c.067.11 0 .22-.132.22h-.902zM453.758 539.441c-.132 0-.22-.088-.22-.22v-6.21c0-2.094-.947-3.15-2.775-3.15-1.608 0-2.842 1.101-2.842 2.929v6.43c0 .133-.087.221-.22.221h-.749c-.132 0-.22-.088-.22-.22v-6.21c0-2.094-.925-3.15-2.753-3.15-1.607 0-2.863 1.101-2.863 2.929v6.43c0 .133-.088.221-.22.221h-.749c-.132 0-.22-.088-.22-.22v-10.064c0-.133.088-.221.22-.221h.75c.131 0 .22.088.22.22v1.256h.022c.528-1.036 1.629-1.697 3.105-1.697 1.63 0 2.73.684 3.26 1.961h.021c.617-1.212 1.74-1.96 3.458-1.96 2.378 0 3.744 1.454 3.744 4.009v6.496c0 .132-.088.22-.22.22h-.75zM510.688 528.165h-.043l-2.709 1.916c-.11.087-.242.044-.242-.132v-.926c0-.154.043-.242.154-.33l2.775-2.004c.11-.089.198-.132.33-.132h.705c.132 0 .22.088.22.22v14.536c0 .132-.088.22-.22.22h-.749c-.132 0-.22-.088-.22-.22v-13.148zM517.314 534.046c0-3.59.154-4.495.33-5.023.573-1.739 1.96-2.687 3.855-2.687s3.28.948 3.854 2.687c.176.528.33 1.433.33 5.023s-.154 4.493-.33 5.02c-.574 1.74-1.96 2.688-3.854 2.688s-3.282-.948-3.854-2.687c-.177-.528-.331-1.431-.331-5.021zm4.185 6.584c1.32 0 2.267-.573 2.687-1.827.154-.485.308-1.3.308-4.757s-.154-4.274-.308-4.759c-.42-1.254-1.366-1.827-2.687-1.827-1.323 0-2.27.573-2.687 1.827-.154.485-.31 1.3-.31 4.759s.156 4.272.31 4.757c.418 1.254 1.364 1.827 2.687 1.827zM539.707 541.533c-.154 0-.22-.043-.33-.22l-3.347-5.44-2.247 2.642v2.798c0 .132-.089.22-.221.22h-.748c-.133 0-.22-.088-.22-.22v-14.536c0-.132.087-.22.22-.22h.748c.132 0 .22.088.22.22v10.088l4.758-5.617c.132-.153.198-.22.374-.22h.903c.132 0 .199.132.11.22l-3.105 3.677 3.92 6.388c.066.11 0 .22-.132.22h-.903zM556.332 541.533c-.132 0-.22-.088-.22-.22v-6.21c0-2.094-.947-3.15-2.776-3.15-1.607 0-2.84 1.101-2.84 2.929v6.43c0 .133-.088.221-.221.221h-.748c-.132 0-.22-.088-.22-.22v-6.21c0-2.094-.925-3.15-2.754-3.15-1.607 0-2.863 1.101-2.863 2.929v6.43c0 .133-.089.221-.22.221h-.748c-.132 0-.22-.088-.22-.22v-10.065c0-.132.088-.22.22-.22h.747c.132 0 .221.088.221.22v1.256h.022c.528-1.036 1.63-1.697 3.105-1.697 1.63 0 2.732.684 3.26 1.961h.022c.617-1.212 1.74-1.96 3.458-1.96 2.379 0 3.744 1.454 3.744 4.009v6.496c0 .132-.088.22-.22.22h-.749zM611.773 526.073h-.044l-2.708 1.916c-.11.088-.243.044-.243-.132v-.926c0-.154.044-.242.154-.33l2.776-2.004c.11-.089.197-.132.33-.132h.705c.132 0 .219.088.219.22v14.536c0 .132-.087.22-.22.22h-.748c-.133 0-.221-.088-.221-.22v-13.148zM618.552 538.649a.4.4 0 01.089-.286l5.527-7.247c.75-.97 1.234-1.916 1.234-2.93 0-1.63-1.167-2.796-2.864-2.796-1.652 0-2.598 1.013-2.862 2.576-.022.132-.11.2-.265.177l-.682-.177c-.132-.022-.199-.109-.177-.24.242-1.83 1.608-3.482 4.01-3.482 2.42 0 4.03 1.652 4.03 3.943 0 1.32-.573 2.423-1.52 3.657l-4.933 6.43v.022h6.232c.132 0 .22.089.22.22v.705c0 .132-.088.22-.22.22h-7.598c-.132 0-.221-.088-.221-.22v-.572zM629.208 537.525h.947c.132 0 .22.089.22.22v1.653a.87.87 0 01-.11.483l-.86 1.697c-.064.132-.153.176-.263.176s-.154-.065-.154-.199v-3.81c0-.131.088-.22.22-.22zM633.084 536.226l.704-.176c.156-.045.243.044.288.176.219 1.321 1.189 2.29 2.862 2.29 1.234 0 2.224-.573 2.62-1.718.156-.483.221-1.167.221-2.157 0-1.037-.088-1.697-.264-2.204-.353-1.122-1.277-1.673-2.533-1.673-1.41 0-2.356.837-2.642 1.784-.045.153-.089.22-.22.22h-.728c-.132 0-.22-.088-.22-.22v-7.862c0-.133.088-.221.22-.221h7.07c.132 0 .22.088.22.22v.705c0 .132-.088.22-.22.22h-6.013c-.087 0-.132.044-.132.132v5.175h.045c.374-.638 1.364-1.299 2.73-1.299 1.763 0 3.018.816 3.525 2.38.197.616.351 1.43.351 2.643 0 1.122-.109 1.915-.308 2.51-.528 1.608-1.916 2.511-3.7 2.511-2.312 0-3.787-1.344-4.03-3.172a.217.217 0 01.154-.264zM654.991 539.441c-.154 0-.22-.043-.33-.22l-3.347-5.44-2.247 2.642v2.798c0 .132-.089.22-.22.22h-.748c-.132 0-.221-.088-.221-.22v-14.535c0-.133.089-.221.22-.221h.748c.132 0 .22.088.22.22v10.088l4.758-5.616c.132-.154.199-.221.374-.221h.903c.132 0 .2.132.11.22l-3.104 3.678 3.919 6.387c.067.11 0 .22-.132.22h-.903zM671.617 539.441c-.132 0-.221-.088-.221-.22v-6.21c0-2.094-.947-3.15-2.776-3.15-1.607 0-2.84 1.101-2.84 2.929v6.43c0 .133-.088.221-.221.221h-.748c-.132 0-.22-.088-.22-.22v-6.21c0-2.094-.925-3.15-2.754-3.15-1.607 0-2.863 1.101-2.863 2.929v6.43c0 .133-.088.221-.22.221h-.748c-.133 0-.22-.088-.22-.22v-10.064c0-.133.087-.221.22-.221h.748c.132 0 .22.088.22.22v1.256h.022c.528-1.036 1.63-1.697 3.107-1.697 1.628 0 2.73.684 3.259 1.961h.021c.617-1.212 1.74-1.96 3.458-1.96 2.38 0 3.744 1.454 3.744 4.009v6.496c0 .132-.087.22-.22.22h-.748zM727.059 528.165h-.044l-2.709 1.916c-.11.087-.242.044-.242-.132v-.926c0-.154.043-.242.154-.33l2.775-2.004c.11-.089.198-.132.33-.132h.705c.132 0 .22.088.22.22v14.536c0 .132-.088.22-.22.22h-.749c-.132 0-.22-.088-.22-.22v-13.148zM734.169 538.318l.704-.176c.155-.045.242.044.287.176.22 1.32 1.19 2.29 2.863 2.29 1.234 0 2.224-.573 2.62-1.718.155-.484.22-1.167.22-2.157 0-1.037-.088-1.697-.263-2.204-.353-1.122-1.278-1.674-2.534-1.674-1.41 0-2.356.838-2.642 1.784-.045.154-.088.221-.22.221h-.727c-.133 0-.22-.088-.22-.22v-7.863c0-.132.087-.22.22-.22h7.069c.132 0 .22.088.22.22v.704c0 .133-.088.221-.22.221h-6.011c-.089 0-.134.044-.134.132v5.175h.045c.375-.638 1.365-1.299 2.73-1.299 1.763 0 3.019.816 3.525 2.38.198.616.352 1.43.352 2.643 0 1.122-.11 1.914-.308 2.51-.529 1.608-1.916 2.51-3.7 2.51-2.313 0-3.788-1.343-4.03-3.17a.217.217 0 01.154-.265zM756.077 541.533c-.154 0-.22-.043-.33-.22l-3.347-5.44-2.247 2.642v2.798c0 .132-.089.22-.22.22h-.748c-.133 0-.221-.088-.221-.22v-14.536c0-.132.088-.22.22-.22h.748c.132 0 .22.088.22.22v10.088l4.758-5.617c.132-.153.199-.22.374-.22h.903c.132 0 .2.132.11.22l-3.105 3.677 3.92 6.388c.067.11 0 .22-.132.22h-.903zM772.702 541.533c-.132 0-.22-.088-.22-.22v-6.21c0-2.094-.947-3.15-2.776-3.15-1.607 0-2.84 1.101-2.84 2.929v6.43c0 .133-.088.221-.221.221h-.748c-.132 0-.22-.088-.22-.22v-6.21c0-2.094-.925-3.15-2.754-3.15-1.607 0-2.863 1.101-2.863 2.929v6.43c0 .133-.088.221-.22.221h-.748c-.134 0-.22-.088-.22-.22v-10.065c0-.132.086-.22.22-.22h.748c.132 0 .22.088.22.22v1.256h.022c.528-1.036 1.63-1.697 3.106-1.697 1.63 0 2.731.684 3.26 1.961h.021c.617-1.212 1.74-1.96 3.458-1.96 2.38 0 3.744 1.454 3.744 4.009v6.496c0 .132-.087.22-.22.22h-.749zM824.326 526.073h-.043l-2.71 1.916c-.11.088-.242.044-.242-.132v-.926c0-.154.044-.242.154-.33l2.776-2.004c.11-.089.197-.132.33-.132h.705c.132 0 .219.088.219.22v14.536c0 .132-.087.22-.22.22h-.748c-.132 0-.22-.088-.22-.22v-13.148zM838.088 525.677v-.067h-5.42c-.086 0-.131.044-.131.132v2.049c0 .132-.088.22-.22.22h-.749c-.132 0-.22-.088-.22-.22v-3.105c0-.133.088-.221.22-.221h7.576c.132 0 .221.088.221.22v.815a.627.627 0 01-.045.22l-5.374 13.523c-.065.155-.109.198-.286.198h-.814c-.132 0-.177-.088-.11-.242l5.352-13.522zM841.762 537.525h.946c.132 0 .22.089.22.22v1.653a.87.87 0 01-.11.483l-.859 1.697c-.065.132-.154.176-.264.176s-.154-.065-.154-.199v-3.81c0-.131.089-.22.22-.22zM845.638 536.226l.704-.176c.155-.045.242.044.287.176.22 1.321 1.189 2.29 2.863 2.29 1.234 0 2.224-.573 2.62-1.718.155-.483.22-1.167.22-2.157 0-1.037-.088-1.697-.264-2.204-.352-1.122-1.277-1.673-2.533-1.673-1.41 0-2.356.837-2.642 1.784-.045.153-.088.22-.22.22h-.728c-.132 0-.219-.088-.219-.22v-7.862c0-.133.087-.221.22-.221h7.069c.132 0 .22.088.22.22v.705c0 .132-.088.22-.22.22h-6.013c-.087 0-.132.044-.132.132v5.175h.045c.375-.638 1.365-1.299 2.73-1.299 1.763 0 3.018.816 3.525 2.38.198.616.351 1.43.351 2.643 0 1.122-.108 1.915-.307 2.51-.529 1.608-1.917 2.511-3.7 2.511-2.313 0-3.788-1.344-4.03-3.172a.217.217 0 01.154-.264zM867.544 539.441c-.154 0-.219-.043-.33-.22l-3.347-5.44-2.247 2.642v2.798c0 .132-.088.22-.22.22h-.748c-.132 0-.22-.088-.22-.22v-14.535c0-.133.088-.221.22-.221h.747c.133 0 .221.088.221.22v10.088l4.757-5.616c.132-.154.199-.221.375-.221h.903c.132 0 .198.132.11.22l-3.105 3.678 3.92 6.387c.066.11 0 .22-.133.22h-.903zM884.17 539.441c-.132 0-.22-.088-.22-.22v-6.21c0-2.094-.947-3.15-2.776-3.15-1.607 0-2.841 1.101-2.841 2.929v6.43c0 .133-.087.221-.22.221h-.748c-.133 0-.221-.088-.221-.22v-6.21c0-2.094-.925-3.15-2.754-3.15-1.607 0-2.862 1.101-2.862 2.929v6.43c0 .133-.089.221-.221.221h-.748c-.133 0-.22-.088-.22-.22v-10.064c0-.133.087-.221.22-.221h.748c.132 0 .22.088.22.22v1.256h.022c.529-1.036 1.63-1.697 3.107-1.697 1.629 0 2.73.684 3.259 1.961h.021c.617-1.212 1.741-1.96 3.458-1.96 2.38 0 3.744 1.454 3.744 4.009v6.496c0 .132-.087.22-.22.22h-.748z"/><circle class="cls-5" cx="177.84" cy="373.8" r="4.71"/><circle class="cls-2" cx="111.96" cy="331.25" r="4.71"/><circle class="cls-5" cx="508.77" cy="75.96" r="4.71"/><circle class="cls-2" cx="365.25" cy="226.87" r="4.71"/><circle class="cls-2" cx="563.81" cy="201.42" r="4.71"/><circle class="cls-2" cx="691.09" cy="214.15" r="4.71"/><circle class="cls-2" cx="860.38" cy="329.97" r="4.71"/></svg>