<svg id="Vrstva_1" xmlns="http://www.w3.org/2000/svg" viewBox="0 0 1538.65 371.21"><defs><style>.cls-2,.cls-3,.cls-4{stroke-linecap:round}.cls-2,.cls-3,.cls-4,.cls-5{stroke-miterlimit:10}.cls-2,.cls-5{fill:none}.cls-3,.cls-4{stroke:#d1050c}.cls-2{stroke-width:.973363px}.cls-2,.cls-5{stroke:#ccc}.cls-6{fill:#ccc}.cls-3,.cls-4{fill:#fff;stroke-width:1.851391px}.cls-4{fill:#da373d}.cls-5{stroke-width:.89009px}</style></defs><path class="cls-5" d="M273.81.49v347.32M80.81.49v347.32M667.69.49v347.32M864.63.49v347.32M1061.57.49v347.32M1258.5.49v347.32M1455.44.49v347.32M1538.21.49v347.32M470.75.49v347.32"/><path class="cls-2" d="M81.87.49H1538M81.81 27.21h1456.18M81.75 53.93h1456.22M81.69 80.66h1456.27M81.63 107.38h1456.32M81.58 134.1h1456.36M81.52 160.82h1456.4M81.46 187.55h1456.45M81.4 214.27h1456.5M81.34 240.99h1456.55M81.28 267.72h1456.59M81.22 294.44h1456.64M81.17 321.16h1456.68M81.11 347.88h1456.73"/><path d="M1468.281 234.298a119.778 119.778 0 00-18.596 1.786c-11.745 2.07-18.37 4.018-18.37 4.018-7.62 2.242-10.016 3.689-14.741 2.68-4.403-.94-4.647-2.693-10.432-4.466l-12.749-3.448a40.153 40.153 0 01-10.977-2.672c-4.342-1.724-5.278-2.907-10.977-5.344-3.887-1.662-6.826-2.555-10.146-3.563-3.486-1.059-7.121-2.163-11.975-3.118-5.233-1.029-6.16-.759-8.816-2.226-2.92-1.614-3.174-2.7-7.484-5.79-4.765-3.415-5.108-2.556-8.982-5.344-4.946-3.561-5.055-5.444-9.979-9.353-1.217-.966-5.248-4.056-10.478-5.79-6.482-2.147-6.936.396-12.974-2.226-2.918-1.268-2.97-1.931-8.15-4.454-4.712-2.295-4.7-1.762-8.15-3.562-4.2-2.194-4.59-3.18-10.478-6.68-3.828-2.277-5.743-3.415-7.65-4.009-3.117-.97-4.772-.582-10.978 0-9.495.891-7.918.199-12.308.89-6.646 1.048-7.976 2.275-13.306 2.227-2.883-.025-4.98-.069-7.817-1.336-3.373-1.505-4.493-3.267-8.982-6.68-4.374-3.326-7.743-5.024-10.145-6.235-2.13-1.073-2.974-1.33-12.308-4.453-10.356-3.466-11.156-3.766-13.14-4.009-4.104-.502-5.809.154-11.809.891-6.252.768-10.599.81-19.293.89-9.978.095-9.644-.735-20.126-.89-11.592-.171-11.404.852-25.115.89-8.339.024-8.169-.355-21.29-.445-8.95-.06-8.825.117-16.299 0-10.043-.156-11.483-.496-19.293-.445-4.576.03-7.905.172-14.304.445-8.776.375-9.118.567-16.633.891-3.343.144-10.147.247-23.618.446-7.807.115-10.536.141-14.636 0-8.077-.28-12.13-.888-14.637-1.337-1.178-.21-4.783-.88-9.48-2.226-5.027-1.44-4.624-1.74-10.478-3.563-7.32-2.28-8.003-1.829-10.313-4.008-3.768-3.557-3.598-6.313-6.985-8.907-3.529-2.703-4.57-.368-9.647-1.336-2.172-.415-5.107-2.206-10.977-5.79-5.195-3.171-7.792-4.757-10.479-7.126-1.279-1.128-1.854-1.744-10.644-11.58-7.254-8.114-7.806-8.751-9.315-10.242-3.812-3.77-4.073-3.448-9.646-8.462-1.564-1.406-1.712-1.583-11.976-11.58-8.109-7.897-8.772-8.522-10.312-10.688-4.7-6.609-4.531-9.234-7.65-12.024-2.275-2.034-5.318-1.681-11.31-.89-6.066.799-9.153 1.255-11.81 4.007-.795.824-2.747 3.815-6.653 9.798-5.727 8.774-5.898 9.52-8.15 12.47-3.674 4.816-6.72 7.42-8.482 8.907-4.136 3.49-4.632 2.73-9.813 6.68-3.092 2.358-5.5 4.194-8.483 7.571-5.482 6.207-5.358 9.074-9.98 13.806-1.82 1.866-4.54 3.47-9.979 6.68-4.368 2.579-6.584 3.87-8.15 4.009-2.851.252-3.318-1.048-10.145-4.008-6.257-2.713-6.283-1.803-10.146-4.008-4.513-2.577-4.388-3.768-9.148-6.68-3.29-2.014-6.018-2.976-11.476-4.9-4.236-1.493-6.354-2.24-9.148-2.672-.923-.143-4.812-.705-10.146 0-3.23.427-5.979 1.324-11.476 3.118-4.965 1.62-8.634 3.065-12.142 4.453-4.832 1.913-7.249 2.87-9.314 4.008-4.851 2.676-5.249 3.86-8.981 5.345-3.214 1.278-3.532.644-8.15 2.226-2.84.973-4.75 1.628-7.152 3.118-3.82 2.37-4.49 4.127-9.148 8.016-1.154.964-4.937 4.05-9.314 6.235-3.178 1.588-3.644 1.19-10.977 3.118-7.159 1.882-10.738 2.823-14.47 4.899-1.013.563-3.669 2.305-8.982 5.79-4.123 2.703-6.185 4.055-7.318 4.898-5.96 4.43-6.73 6.328-11.144 9.353-3.88 2.659-6.895 3.667-9.314 4.453-5.342 1.736-7.093.917-13.306 1.782-3.795.527-7.076 1.54-13.639 3.562-8.235 2.54-12.353 3.81-16.3 6.235-5.945 3.656-5.81 5.305-10.81 7.571-4.363 1.978-5.418 1.154-12.142 3.563-4.14 1.484-7.297 3.07-9.148 4.009-7.796 3.949-7.761 5.33-12.973 7.57-6.571 2.825-6.862.731-12.807 4.009-3.702 2.04-3.915 3.032-8.815 5.79-3.918 2.204-7.028 3.398-9.813 4.453-6.395 2.423-6.495 1.617-10.479 3.563-4.464 2.18-4.462 3.252-9.48 5.79-3.687 1.864-6.53 2.722-9.314 3.562-3.956 1.194-6.967 1.716-9.98 2.227-4.883.829-5.354.568-9.98 1.336-5.564.924-5.919 1.473-10.311 2.227-5.093.874-5.578.3-13.639.89-6.666.488-9.998.732-14.304 1.782-6.461 1.575-6.697 2.802-13.472 4.453-4.622 1.127-7.96 1.406-12.474 1.782-7.723.644-11.585.965-15.801-.446-.277-.092-.22-.078-9.647-4.898-6.878-3.517-10.366-5.277-12.807-5.345-4.293-.119-4.079 1.865-9.48 2.227-6.445.432-6.7-2.396-11.477-1.336-1.836.408-4.994 2.647-11.31 7.126-4.625 3.28-6.938 4.92-9.48 7.125-5.783 5.017-6.444 6.91-9.647 8.462-.988.48-2.804 1.21-9.148.445-4.567-.55-7.512-1.396-15.468-3.562-6.862-1.869-10.323-2.81-11.809-3.118-4.428-.919-5.08-.757-13.306-2.227-7.125-1.273-8.686-1.761-9.98-2.226-4.84-1.742-5.549-3.026-9.48-4.454-4.986-1.811-5.793-.453-12.141-1.336-1.839-.256-7.981-1.234-15.468-4.899-5.826-2.852-7.305-4.805-12.766-6.355-3.108-.883-5.731-1.116-7.938-1.34a54.716 54.716 0 00-11.112 0" stroke="#d1050c" fill="none" stroke-miterlimit="10" stroke-linecap="round" stroke-width="3.7"/><path class="cls-6" d="M255.619 369.126c0-.089.014-.134.059-.192l3.718-4.875c.504-.653.83-1.29.83-1.971 0-1.097-.785-1.882-1.926-1.882-1.111 0-1.748.682-1.926 1.734-.015.088-.074.133-.178.119l-.46-.12c-.088-.014-.132-.073-.117-.162.162-1.23 1.081-2.341 2.696-2.341 1.63 0 2.711 1.111 2.711 2.652 0 .889-.385 1.63-1.022 2.46l-3.319 4.326v.015h4.193c.09 0 .148.06.148.148v.474c0 .089-.059.148-.148.148h-5.111c-.09 0-.148-.06-.148-.148v-.385zM262.787 368.37h.637c.089 0 .148.06.148.149v1.111a.59.59 0 01-.074.325l-.578 1.142c-.045.089-.104.118-.178.118s-.103-.044-.103-.134v-2.562c0-.09.059-.149.148-.149zM265.394 367.496l.474-.118c.104-.03.163.03.193.118.148.889.8 1.541 1.926 1.541.83 0 1.496-.386 1.763-1.156.104-.325.148-.785.148-1.451 0-.697-.06-1.142-.178-1.483-.237-.754-.86-1.126-1.703-1.126-.949 0-1.586.564-1.779 1.2-.029.104-.059.149-.148.149h-.489c-.089 0-.148-.06-.148-.148v-5.29c0-.088.06-.148.148-.148h4.756c.09 0 .148.06.148.149v.473c0 .089-.059.149-.148.149h-4.044c-.06 0-.09.029-.09.088v3.482h.03c.252-.43.919-.874 1.837-.874 1.186 0 2.03.549 2.37 1.6.134.416.238.963.238 1.779 0 .755-.074 1.288-.207 1.688-.356 1.082-1.29 1.69-2.49 1.69-1.555 0-2.548-.905-2.711-2.134-.015-.074.015-.148.104-.178zM280.132 369.66c-.104 0-.148-.03-.222-.15l-2.252-3.658-1.512 1.777v1.882c0 .089-.059.148-.147.148h-.504c-.09 0-.148-.06-.148-.148v-9.778c0-.09.059-.149.148-.149h.504c.088 0 .147.06.147.149v6.786l3.2-3.779c.09-.103.134-.148.253-.148h.607c.089 0 .133.089.074.148l-2.089 2.474 2.638 4.297c.044.074 0 .148-.09.148h-.607zM291.316 369.66c-.089 0-.148-.06-.148-.15v-4.177c0-1.408-.637-2.119-1.867-2.119-1.081 0-1.911.741-1.911 1.97v4.327c0 .089-.06.148-.148.148h-.504c-.09 0-.148-.06-.148-.148v-4.178c0-1.408-.623-2.119-1.852-2.119-1.082 0-1.926.741-1.926 1.97v4.327c0 .089-.06.148-.148.148h-.504c-.09 0-.148-.06-.148-.148v-6.77c0-.09.059-.15.148-.15h.504c.088 0 .148.06.148.15v.844h.015c.355-.697 1.096-1.142 2.089-1.142 1.096 0 1.837.46 2.192 1.32h.015c.415-.816 1.17-1.32 2.326-1.32 1.6 0 2.52.979 2.52 2.698v4.37c0 .089-.06.148-.15.148h-.503zM7.939 240.154v-.03c-.785-.385-1.348-1.2-1.348-2.252 0-1.496 1.067-2.652 2.696-2.652 1.63 0 2.697 1.156 2.697 2.652 0 1.052-.563 1.867-1.348 2.252v.03c.948.4 1.614 1.319 1.614 2.563 0 1.69-1.229 2.875-2.963 2.875-1.733 0-2.963-1.186-2.963-2.875 0-1.244.667-2.163 1.615-2.563zm1.348 4.667c1.319 0 2.164-.904 2.164-2.133 0-1.245-.86-2.163-2.164-2.163-1.304 0-2.163.918-2.163 2.163 0 1.23.845 2.133 2.163 2.133zm1.897-6.949c0-1.08-.77-1.882-1.897-1.882-1.126 0-1.896.801-1.896 1.882 0 1.068.74 1.882 1.896 1.882 1.141 0 1.897-.814 1.897-1.882zM13.61 240.406c0-2.415.105-3.022.223-3.379.385-1.17 1.319-1.807 2.593-1.807s2.208.638 2.593 1.807c.118.357.222.964.222 3.38s-.104 3.022-.222 3.377c-.385 1.17-1.319 1.808-2.593 1.808s-2.208-.638-2.593-1.808c-.118-.355-.222-.963-.222-3.378zm2.816 4.43c.889 0 1.526-.386 1.807-1.23.104-.326.208-.873.208-3.2s-.104-2.875-.208-3.2c-.28-.845-.918-1.23-1.807-1.23-.889 0-1.526.385-1.807 1.23-.104.325-.208.874-.208 3.2s.104 2.874.208 3.2c.28.844.918 1.23 1.807 1.23zM20.75 240.406c0-2.415.104-3.022.222-3.379.385-1.17 1.319-1.807 2.593-1.807s2.208.638 2.593 1.807c.118.357.222.964.222 3.38s-.104 3.022-.222 3.377c-.385 1.17-1.319 1.808-2.593 1.808s-2.208-.638-2.593-1.808c-.118-.355-.222-.963-.222-3.378zm2.815 4.43c.89 0 1.526-.386 1.808-1.23.104-.326.207-.873.207-3.2s-.103-2.875-.207-3.2c-.282-.845-.919-1.23-1.808-1.23s-1.526.385-1.808 1.23c-.103.325-.207.874-.207 3.2s.104 2.874.207 3.2c.282.844.92 1.23 1.808 1.23zM7.005 293.728l2.505-4.816c.044-.074.089-.103.192-.103h.548c.104 0 .12.074.09.133l-2.268 4.37.03.016c.252-.208.726-.356 1.304-.356 1.63 0 2.83 1.185 2.83 2.993 0 1.882-1.23 3.067-2.934 3.067-1.719 0-2.948-1.185-2.948-3.038 0-.8.281-1.57.651-2.266zm2.297 4.534c1.26 0 2.134-.92 2.134-2.252 0-1.334-.874-2.268-2.134-2.268-1.274 0-2.148.934-2.148 2.268 0 1.333.874 2.252 2.148 2.252zM13.61 293.847c0-2.415.105-3.024.223-3.38.385-1.169 1.319-1.807 2.593-1.807s2.208.638 2.593 1.808c.118.355.222.964.222 3.379s-.104 3.022-.222 3.378c-.385 1.17-1.319 1.807-2.593 1.807s-2.208-.637-2.593-1.807c-.118-.356-.222-.963-.222-3.378zm2.816 4.43c.889 0 1.526-.386 1.807-1.23.104-.326.208-.874.208-3.2s-.104-2.875-.208-3.201c-.28-.844-.918-1.23-1.807-1.23-.889 0-1.526.386-1.807 1.23-.104.326-.208.875-.208 3.2s.104 2.875.208 3.201c.28.844.918 1.23 1.807 1.23zM20.75 293.847c0-2.415.104-3.024.222-3.38.385-1.169 1.319-1.807 2.593-1.807s2.208.638 2.593 1.808c.118.355.222.964.222 3.379s-.104 3.022-.222 3.378c-.385 1.17-1.319 1.807-2.593 1.807s-2.208-.637-2.593-1.807c-.118-.356-.222-.963-.222-3.378zm2.815 4.43c.89 0 1.526-.386 1.808-1.23.104-.326.207-.874.207-3.2s-.103-2.875-.207-3.201c-.282-.844-.919-1.23-1.808-1.23s-1.526.386-1.808 1.23c-.103.326-.207.875-.207 3.2s.104 2.875.207 3.201c.282.844.92 1.23 1.808 1.23zM10.502 187.5l-.03-.016c-.251.208-.725.355-1.303.355-1.63 0-2.83-1.185-2.83-2.992 0-1.882 1.23-3.067 2.933-3.067 1.72 0 2.95 1.185 2.95 3.037 0 .8-.283 1.57-.653 2.267L9.065 191.9c-.044.074-.089.103-.192.103h-.549c-.103 0-.118-.074-.089-.134l2.267-4.37zm.919-2.698c0-1.333-.874-2.252-2.149-2.252-1.259 0-2.133.919-2.133 2.252s.874 2.267 2.133 2.267c1.275 0 2.149-.933 2.149-2.267zM13.61 186.965c0-2.415.105-3.022.223-3.377.385-1.17 1.319-1.808 2.593-1.808s2.208.637 2.593 1.808c.118.355.222.962.222 3.377 0 2.416-.104 3.023-.222 3.379-.385 1.17-1.319 1.807-2.593 1.807s-2.208-.637-2.593-1.807c-.118-.356-.222-.963-.222-3.379zm2.816 4.43c.889 0 1.526-.385 1.807-1.229.104-.326.208-.874.208-3.2 0-2.327-.104-2.875-.208-3.2-.28-.845-.918-1.23-1.807-1.23-.889 0-1.526.385-1.807 1.23-.104.325-.208.873-.208 3.2 0 2.326.104 2.874.208 3.2.28.844.918 1.23 1.807 1.23zM20.75 186.965c0-2.415.104-3.022.222-3.377.385-1.17 1.319-1.808 2.593-1.808s2.208.637 2.593 1.808c.118.355.222.962.222 3.377 0 2.416-.104 3.023-.222 3.379-.385 1.17-1.319 1.807-2.593 1.807s-2.208-.637-2.593-1.807c-.118-.356-.222-.963-.222-3.379zm2.815 4.43c.89 0 1.526-.385 1.808-1.229.104-.326.207-.874.207-3.2 0-2.327-.103-2.875-.207-3.2-.282-.845-.919-1.23-1.808-1.23s-1.526.385-1.808 1.23c-.103.325-.207.873-.207 3.2 0 2.326.104 2.874.207 3.2.282.844.92 1.23 1.808 1.23zM2.015 129.57h-.03l-1.822 1.289c-.074.06-.163.03-.163-.089v-.622c0-.104.03-.163.104-.222l1.866-1.349c.074-.059.134-.089.222-.089h.475c.089 0 .148.06.148.149v9.779c0 .089-.06.148-.148.148h-.504c-.089 0-.148-.06-.148-.148v-8.846zM6.472 133.526c0-2.415.104-3.022.222-3.378.385-1.17 1.319-1.808 2.593-1.808s2.208.638 2.593 1.808c.118.356.222.963.222 3.378s-.104 3.022-.222 3.378c-.385 1.17-1.319 1.808-2.593 1.808s-2.208-.637-2.593-1.808c-.118-.356-.222-.963-.222-3.378zm2.815 4.43c.889 0 1.526-.385 1.807-1.23.104-.325.208-.874.208-3.2s-.104-2.875-.208-3.2c-.281-.845-.918-1.23-1.807-1.23-.89 0-1.526.385-1.808 1.23-.104.325-.207.874-.207 3.2s.103 2.875.207 3.2c.282.845.919 1.23 1.808 1.23zM13.61 133.526c0-2.415.105-3.022.223-3.378.385-1.17 1.319-1.808 2.593-1.808s2.208.638 2.593 1.808c.118.356.222.963.222 3.378s-.104 3.022-.222 3.378c-.385 1.17-1.319 1.808-2.593 1.808s-2.208-.637-2.593-1.808c-.118-.356-.222-.963-.222-3.378zm2.816 4.43c.889 0 1.526-.385 1.807-1.23.104-.325.208-.874.208-3.2s-.104-2.875-.208-3.2c-.28-.845-.918-1.23-1.807-1.23-.889 0-1.526.385-1.807 1.23-.104.325-.208.874-.208 3.2s.104 2.875.208 3.2c.28.845.918 1.23 1.807 1.23zM20.75 133.526c0-2.415.104-3.022.222-3.378.385-1.17 1.319-1.808 2.592-1.808 1.275 0 2.208.638 2.594 1.808.118.356.222.963.222 3.378s-.104 3.022-.222 3.378c-.386 1.17-1.32 1.808-2.594 1.808-1.273 0-2.207-.637-2.592-1.808-.118-.356-.222-.963-.222-3.378zm2.814 4.43c.89 0 1.527-.385 1.808-1.23.104-.325.208-.874.208-3.2s-.104-2.875-.208-3.2c-.281-.845-.918-1.23-1.808-1.23-.888 0-1.525.385-1.807 1.23-.104.325-.207.874-.207 3.2s.103 2.875.207 3.2c.282.845.919 1.23 1.807 1.23zM2.015 76.13h-.03L.163 77.419c-.074.06-.163.03-.163-.09v-.621c0-.104.03-.163.104-.223l1.866-1.348c.074-.06.134-.089.222-.089h.475c.089 0 .148.06.148.148v9.78c0 .088-.06.147-.148.147h-.504c-.089 0-.148-.059-.148-.148V76.13zM9.153 76.13h-.029l-1.823 1.289c-.073.06-.162.03-.162-.09v-.621c0-.104.029-.163.103-.223l1.867-1.348c.074-.06.133-.089.222-.089h.474c.09 0 .149.06.149.148v9.78c0 .088-.06.147-.149.147h-.503c-.09 0-.149-.059-.149-.148V76.13zM13.61 80.086c0-2.415.105-3.023.223-3.378.385-1.17 1.319-1.808 2.593-1.808s2.208.637 2.593 1.808c.118.355.222.963.222 3.378s-.104 3.022-.222 3.378c-.385 1.17-1.319 1.807-2.593 1.807s-2.208-.637-2.593-1.807c-.118-.356-.222-.963-.222-3.378zm2.816 4.43c.889 0 1.526-.386 1.807-1.23.104-.326.208-.874.208-3.2s-.104-2.875-.208-3.2c-.28-.845-.918-1.23-1.807-1.23-.889 0-1.526.385-1.807 1.23-.104.325-.208.873-.208 3.2s.104 2.874.208 3.2c.28.844.918 1.23 1.807 1.23zM20.75 80.086c0-2.415.104-3.023.222-3.378.385-1.17 1.319-1.808 2.592-1.808 1.275 0 2.208.637 2.594 1.808.118.355.222.963.222 3.378s-.104 3.022-.222 3.378c-.386 1.17-1.32 1.807-2.594 1.807-1.273 0-2.207-.637-2.592-1.807-.118-.356-.222-.963-.222-3.378zm2.814 4.43c.89 0 1.527-.386 1.808-1.23.104-.326.208-.874.208-3.2s-.104-2.875-.208-3.2c-.281-.845-.918-1.23-1.808-1.23-.888 0-1.525.385-1.807 1.23-.104.325-.207.873-.207 3.2s.103 2.874.207 3.2c.282.844.919 1.23 1.807 1.23zM2.015 22.69h-.03L.163 23.98c-.074.059-.163.029-.163-.09v-.622c0-.104.03-.163.104-.222l1.866-1.349c.074-.059.134-.088.222-.088h.475c.089 0 .148.06.148.148v9.779c0 .089-.06.148-.148.148h-.504c-.089 0-.148-.06-.148-.148V22.69zM6.576 31.15c0-.088.014-.133.059-.192l3.719-4.875c.503-.652.83-1.289.83-1.97 0-1.097-.786-1.882-1.927-1.882-1.111 0-1.748.681-1.926 1.733-.015.09-.074.134-.178.12l-.46-.12c-.088-.014-.132-.074-.117-.163.162-1.23 1.081-2.34 2.696-2.34 1.63 0 2.711 1.11 2.711 2.651 0 .89-.385 1.63-1.022 2.46l-3.319 4.327v.014h4.193c.09 0 .148.06.148.149v.474c0 .089-.059.148-.148.148H6.724c-.09 0-.148-.06-.148-.148v-.385zM13.61 26.646c0-2.415.105-3.022.223-3.378.385-1.17 1.319-1.807 2.593-1.807s2.208.637 2.593 1.807c.118.356.222.963.222 3.378s-.104 3.023-.222 3.379c-.385 1.17-1.319 1.807-2.593 1.807s-2.208-.637-2.593-1.807c-.118-.356-.222-.964-.222-3.379zm2.816 4.43c.889 0 1.526-.385 1.807-1.23.104-.325.208-.874.208-3.2s-.104-2.874-.208-3.2c-.28-.845-.918-1.23-1.807-1.23-.889 0-1.526.385-1.807 1.23-.104.326-.208.874-.208 3.2s.104 2.875.208 3.2c.28.845.918 1.23 1.807 1.23zM20.75 26.646c0-2.415.104-3.022.222-3.378.385-1.17 1.319-1.807 2.592-1.807 1.275 0 2.208.637 2.594 1.807.118.356.222.963.222 3.378s-.104 3.023-.222 3.379c-.386 1.17-1.32 1.807-2.594 1.807-1.273 0-2.207-.637-2.592-1.807-.118-.356-.222-.964-.222-3.379zm2.814 4.43c.89 0 1.527-.385 1.808-1.23.104-.325.208-.874.208-3.2s-.104-2.874-.208-3.2c-.281-.845-.918-1.23-1.808-1.23-.888 0-1.525.385-1.807 1.23-.104.326-.207.874-.207 3.2s.103 2.875.207 3.2c.282.845.919 1.23 1.807 1.23zM459.493 367.496l.474-.118c.104-.03.163.03.193.118.148.889.8 1.541 1.926 1.541.83 0 1.497-.386 1.763-1.156.104-.325.148-.785.148-1.451 0-.697-.059-1.142-.178-1.483-.236-.754-.859-1.126-1.703-1.126-.949 0-1.586.564-1.779 1.2-.029.104-.059.149-.148.149h-.488c-.09 0-.149-.06-.149-.148v-5.29c0-.088.06-.148.149-.148h4.756c.088 0 .147.06.147.149v.473c0 .089-.059.149-.147.149h-4.045c-.06 0-.09.029-.09.088v3.482h.03c.252-.43.919-.874 1.837-.874 1.186 0 2.03.549 2.371 1.6.133.416.237.963.237 1.779 0 .755-.074 1.288-.207 1.688-.356 1.082-1.29 1.69-2.49 1.69-1.555 0-2.548-.905-2.71-2.134-.015-.074.014-.148.103-.178zM474.231 369.66c-.104 0-.148-.03-.222-.15l-2.252-3.658-1.511 1.777v1.882c0 .089-.06.148-.148.148h-.504c-.09 0-.148-.06-.148-.148v-9.778c0-.09.059-.149.148-.149h.504c.089 0 .148.06.148.149v6.786l3.2-3.779c.089-.103.134-.148.252-.148h.607c.089 0 .133.089.074.148l-2.088 2.474 2.637 4.297c.044.074 0 .148-.09.148h-.607zM485.416 369.66c-.09 0-.149-.06-.149-.15v-4.177c0-1.408-.637-2.119-1.867-2.119-1.081 0-1.911.741-1.911 1.97v4.327c0 .089-.06.148-.148.148h-.504c-.089 0-.148-.06-.148-.148v-4.178c0-1.408-.623-2.119-1.852-2.119-1.082 0-1.926.741-1.926 1.97v4.327c0 .089-.06.148-.148.148h-.504c-.09 0-.148-.06-.148-.148v-6.77c0-.09.059-.15.148-.15h.504c.089 0 .148.06.148.15v.844h.015c.355-.697 1.096-1.142 2.089-1.142 1.096 0 1.837.46 2.193 1.32h.014c.415-.816 1.17-1.32 2.326-1.32 1.6 0 2.52.979 2.52 2.698v4.37c0 .089-.06.148-.15.148h-.502zM654.19 360.4v-.045h-3.645c-.059 0-.088.029-.088.088v1.378c0 .09-.06.149-.149.149h-.503c-.09 0-.149-.06-.149-.149v-2.088c0-.09.06-.149.149-.149h5.096c.09 0 .148.06.148.149v.547c0 .06-.014.104-.029.149l-3.615 9.097c-.045.104-.074.133-.193.133h-.548c-.089 0-.119-.06-.074-.163l3.6-9.096zM656.662 368.37h.637c.089 0 .148.06.148.149v1.111a.59.59 0 01-.074.325l-.578 1.142c-.045.089-.104.118-.178.118s-.103-.044-.103-.134v-2.562c0-.09.059-.149.148-.149zM659.269 367.496l.474-.118c.104-.03.163.03.193.118.148.889.8 1.541 1.926 1.541.83 0 1.496-.386 1.763-1.156.104-.325.148-.785.148-1.451 0-.697-.06-1.142-.178-1.483-.237-.754-.86-1.126-1.703-1.126-.949 0-1.586.564-1.779 1.2-.029.104-.059.149-.148.149h-.489c-.089 0-.148-.06-.148-.148v-5.29c0-.088.06-.148.148-.148h4.756c.09 0 .148.06.148.149v.473c0 .089-.059.149-.148.149h-4.044c-.06 0-.09.029-.09.088v3.482h.03c.252-.43.919-.874 1.837-.874 1.186 0 2.03.549 2.37 1.6.134.416.238.963.238 1.779 0 .755-.074 1.288-.207 1.688-.356 1.082-1.29 1.69-2.49 1.69-1.555 0-2.548-.905-2.711-2.134-.015-.074.015-.148.104-.178zM674.007 369.66c-.104 0-.148-.03-.222-.15l-2.252-3.658-1.512 1.777v1.882c0 .089-.059.148-.147.148h-.504c-.09 0-.148-.06-.148-.148v-9.778c0-.09.059-.149.148-.149h.504c.088 0 .147.06.147.149v6.786l3.2-3.779c.09-.103.134-.148.253-.148h.607c.089 0 .133.089.074.148l-2.089 2.474 2.638 4.297c.044.074 0 .148-.09.148h-.607zM685.19 369.66c-.088 0-.147-.06-.147-.15v-4.177c0-1.408-.637-2.119-1.867-2.119-1.081 0-1.911.741-1.911 1.97v4.327c0 .089-.06.148-.148.148h-.504c-.09 0-.148-.06-.148-.148v-4.178c0-1.408-.623-2.119-1.852-2.119-1.082 0-1.926.741-1.926 1.97v4.327c0 .089-.06.148-.148.148h-.504c-.09 0-.148-.06-.148-.148v-6.77c0-.09.059-.15.148-.15h.504c.088 0 .148.06.148.15v.844h.015c.355-.697 1.096-1.142 2.089-1.142 1.096 0 1.837.46 2.192 1.32h.015c.415-.816 1.17-1.32 2.326-1.32 1.6 0 2.52.979 2.52 2.698v4.37c0 .089-.06.148-.15.148h-.503zM850.217 360.666h-.029l-1.822 1.29c-.074.058-.163.028-.163-.09v-.623c0-.103.029-.163.103-.221l1.867-1.349c.075-.06.133-.089.222-.089h.475c.088 0 .147.06.147.149v9.778c0 .089-.059.148-.147.148h-.504c-.09 0-.149-.06-.149-.148v-8.845zM854.674 364.622c0-2.415.104-3.023.223-3.379.385-1.17 1.318-1.807 2.593-1.807s2.207.637 2.593 1.807c.118.356.221.964.221 3.38s-.103 3.022-.221 3.377c-.386 1.17-1.319 1.808-2.593 1.808s-2.208-.638-2.593-1.808c-.12-.355-.223-.963-.223-3.378zm2.816 4.43c.888 0 1.525-.386 1.807-1.23.104-.326.207-.874.207-3.2s-.103-2.875-.207-3.201c-.282-.844-.919-1.23-1.807-1.23-.89 0-1.527.386-1.808 1.23-.103.326-.208.875-.208 3.201s.105 2.874.208 3.2c.281.844.918 1.23 1.808 1.23zM869.739 369.66c-.104 0-.148-.03-.222-.15l-2.252-3.658-1.512 1.777v1.882c0 .089-.06.148-.148.148h-.503c-.09 0-.148-.06-.148-.148v-9.778c0-.09.058-.149.148-.149h.503c.089 0 .148.06.148.149v6.786l3.2-3.779c.09-.103.134-.148.253-.148h.607c.089 0 .134.089.074.148l-2.089 2.474 2.637 4.297c.045.074 0 .148-.089.148h-.607zM880.923 369.66c-.089 0-.148-.06-.148-.15v-4.177c0-1.408-.637-2.119-1.867-2.119-1.081 0-1.911.741-1.911 1.97v4.327c0 .089-.059.148-.149.148h-.503c-.089 0-.148-.06-.148-.148v-4.178c0-1.408-.622-2.119-1.853-2.119-1.08 0-1.926.741-1.926 1.97v4.327c0 .089-.06.148-.148.148h-.503c-.089 0-.148-.06-.148-.148v-6.77c0-.09.06-.15.148-.15h.503c.089 0 .148.06.148.15v.844h.015c.356-.697 1.097-1.142 2.089-1.142 1.097 0 1.838.46 2.193 1.32h.015c.415-.816 1.17-1.32 2.326-1.32 1.6 0 2.519.979 2.519 2.698v4.37c0 .089-.059.148-.148.148h-.504zM1042.378 360.666h-.029l-1.822 1.29c-.074.058-.163.028-.163-.09v-.623c0-.103.03-.163.103-.221l1.867-1.349c.075-.06.133-.089.222-.089h.475c.089 0 .147.06.147.149v9.778c0 .089-.058.148-.147.148h-.504c-.089 0-.149-.06-.149-.148v-8.845zM1046.939 369.126a.27.27 0 01.06-.192l3.718-4.875c.504-.653.83-1.29.83-1.971 0-1.097-.785-1.882-1.926-1.882-1.112 0-1.748.682-1.926 1.734-.015.088-.074.133-.178.119l-.459-.12c-.089-.014-.134-.073-.119-.162.163-1.23 1.082-2.341 2.697-2.341 1.63 0 2.711 1.111 2.711 2.652 0 .889-.385 1.63-1.022 2.46l-3.319 4.326v.015h4.193c.089 0 .148.06.148.148v.474c0 .089-.06.148-.148.148h-5.112c-.088 0-.148-.06-.148-.148v-.385zM1054.108 368.37h.637c.088 0 .148.06.148.149v1.111a.586.586 0 01-.074.325l-.578 1.142c-.044.089-.104.118-.178.118s-.104-.044-.104-.134v-2.562c0-.09.06-.149.149-.149zM1056.715 367.496l.474-.118c.104-.03.163.03.193.118.148.889.8 1.541 1.926 1.541.83 0 1.496-.386 1.763-1.156.104-.325.148-.785.148-1.451 0-.697-.06-1.142-.177-1.483-.238-.754-.86-1.126-1.705-1.126-.948 0-1.585.564-1.777 1.2-.03.104-.06.149-.148.149h-.49c-.089 0-.147-.06-.147-.148v-5.29c0-.088.058-.148.147-.148h4.756c.09 0 .149.06.149.149v.473c0 .089-.06.149-.149.149h-4.045c-.058 0-.089.029-.089.088v3.482h.03c.253-.43.919-.874 1.838-.874 1.185 0 2.03.549 2.37 1.6.134.416.237.963.237 1.779 0 .755-.073 1.288-.207 1.688-.355 1.082-1.29 1.69-2.49 1.69-1.555 0-2.547-.905-2.71-2.134a.146.146 0 01.103-.178zM1071.453 369.66c-.104 0-.148-.03-.222-.15l-2.252-3.658-1.512 1.777v1.882c0 .089-.06.148-.148.148h-.503c-.089 0-.149-.06-.149-.148v-9.778c0-.09.06-.149.149-.149h.503c.089 0 .148.06.148.149v6.786l3.2-3.779c.09-.103.134-.148.252-.148h.608c.089 0 .134.089.074.148l-2.089 2.474 2.637 4.297c.045.074 0 .148-.089.148h-.607zM1082.637 369.66c-.089 0-.148-.06-.148-.15v-4.177c0-1.408-.637-2.119-1.867-2.119-1.081 0-1.912.741-1.912 1.97v4.327c0 .089-.058.148-.148.148h-.503c-.089 0-.148-.06-.148-.148v-4.178c0-1.408-.622-2.119-1.853-2.119-1.081 0-1.926.741-1.926 1.97v4.327c0 .089-.06.148-.148.148h-.503c-.09 0-.148-.06-.148-.148v-6.77c0-.09.058-.15.148-.15h.503c.089 0 .148.06.148.15v.844h.015c.355-.697 1.097-1.142 2.09-1.142 1.096 0 1.837.46 2.192 1.32h.015c.415-.816 1.17-1.32 2.326-1.32 1.6 0 2.519.979 2.519 2.698v4.37c0 .089-.059.148-.148.148h-.504zM1244.093 360.666h-.029l-1.822 1.29c-.075.058-.163.028-.163-.09v-.623c0-.103.029-.163.103-.221l1.867-1.349c.075-.06.133-.089.222-.089h.475c.088 0 .147.06.147.149v9.778c0 .089-.059.148-.147.148h-.504c-.09 0-.149-.06-.149-.148v-8.845zM1248.876 367.496l.474-.118c.105-.03.163.03.193.118.148.889.8 1.541 1.926 1.541.83 0 1.496-.386 1.763-1.156.104-.325.148-.785.148-1.451 0-.697-.06-1.142-.177-1.483-.238-.754-.86-1.126-1.704-1.126-.949 0-1.585.564-1.778 1.2-.03.104-.06.149-.148.149h-.49c-.088 0-.147-.06-.147-.148v-5.29c0-.088.059-.148.147-.148h4.756c.09 0 .149.06.149.149v.473c0 .089-.06.149-.149.149h-4.044c-.06 0-.09.029-.09.088v3.482h.03c.253-.43.919-.874 1.838-.874 1.185 0 2.03.549 2.37 1.6.134.416.237.963.237 1.779 0 .755-.073 1.288-.207 1.688-.355 1.082-1.289 1.69-2.49 1.69-1.555 0-2.547-.905-2.71-2.134a.146.146 0 01.103-.178zM1263.615 369.66c-.104 0-.148-.03-.222-.15l-2.252-3.658-1.512 1.777v1.882c0 .089-.06.148-.148.148h-.503c-.089 0-.148-.06-.148-.148v-9.778c0-.09.06-.149.148-.149h.503c.089 0 .148.06.148.149v6.786l3.2-3.779c.09-.103.134-.148.253-.148h.607c.089 0 .134.089.074.148l-2.089 2.474 2.637 4.297c.045.074 0 .148-.089.148h-.607zM1274.8 369.66c-.09 0-.15-.06-.15-.15v-4.177c0-1.408-.636-2.119-1.866-2.119-1.081 0-1.911.741-1.911 1.97v4.327c0 .089-.059.148-.149.148h-.503c-.089 0-.148-.06-.148-.148v-4.178c0-1.408-.622-2.119-1.853-2.119-1.08 0-1.926.741-1.926 1.97v4.327c0 .089-.06.148-.148.148h-.503c-.09 0-.148-.06-.148-.148v-6.77c0-.09.058-.15.148-.15h.503c.089 0 .148.06.148.15v.844h.015c.356-.697 1.097-1.142 2.09-1.142 1.096 0 1.837.46 2.192 1.32h.015c.415-.816 1.17-1.32 2.326-1.32 1.6 0 2.519.979 2.519 2.698v4.37c0 .089-.059.148-.148.148h-.504zM1436.255 360.666h-.029l-1.822 1.29c-.074.058-.163.028-.163-.09v-.623c0-.103.029-.163.103-.221l1.867-1.349c.075-.06.133-.089.222-.089h.475c.089 0 .147.06.147.149v9.778c0 .089-.058.148-.147.148h-.504c-.09 0-.149-.06-.149-.148v-8.845zM1445.513 360.4v-.045h-3.645c-.059 0-.09.029-.09.088v1.378c0 .09-.058.149-.147.149h-.504c-.088 0-.148-.06-.148-.149v-2.088c0-.09.06-.149.148-.149h5.097c.089 0 .149.06.149.149v.547c0 .06-.015.104-.03.149l-3.616 9.097c-.044.104-.073.133-.192.133h-.548c-.089 0-.12-.06-.074-.163l3.6-9.096zM1447.985 368.37h.637c.088 0 .148.06.148.149v1.111a.586.586 0 01-.074.325l-.578 1.142c-.044.089-.104.118-.178.118s-.104-.044-.104-.134v-2.562c0-.09.06-.149.149-.149zM1450.592 367.496l.474-.118c.104-.03.163.03.193.118.148.889.8 1.541 1.926 1.541.83 0 1.496-.386 1.763-1.156.104-.325.148-.785.148-1.451 0-.697-.06-1.142-.178-1.483-.237-.754-.859-1.126-1.704-1.126-.948 0-1.585.564-1.777 1.2-.03.104-.06.149-.148.149h-.49c-.089 0-.147-.06-.147-.148v-5.29c0-.088.058-.148.147-.148h4.756c.089 0 .149.06.149.149v.473c0 .089-.06.149-.149.149h-4.045c-.058 0-.089.029-.089.088v3.482h.03c.253-.43.919-.874 1.838-.874 1.185 0 2.03.549 2.37 1.6.133.416.237.963.237 1.779 0 .755-.073 1.288-.207 1.688-.356 1.082-1.29 1.69-2.49 1.69-1.555 0-2.547-.905-2.71-2.134a.146.146 0 01.103-.178zM1465.33 369.66c-.104 0-.148-.03-.222-.15l-2.252-3.658-1.512 1.777v1.882c0 .089-.06.148-.148.148h-.503c-.089 0-.149-.06-.149-.148v-9.778c0-.09.06-.149.149-.149h.503c.089 0 .148.06.148.149v6.786l3.2-3.779c.09-.103.134-.148.252-.148h.608c.089 0 .134.089.074.148l-2.089 2.474 2.637 4.297c.045.074 0 .148-.089.148h-.607zM1476.514 369.66c-.089 0-.148-.06-.148-.15v-4.177c0-1.408-.637-2.119-1.867-2.119-1.082 0-1.912.741-1.912 1.97v4.327c0 .089-.058.148-.148.148h-.503c-.089 0-.148-.06-.148-.148v-4.178c0-1.408-.622-2.119-1.853-2.119-1.081 0-1.926.741-1.926 1.97v4.327c0 .089-.06.148-.148.148h-.503c-.09 0-.149-.06-.149-.148v-6.77c0-.09.06-.15.149-.15h.503c.089 0 .148.06.148.15v.844h.015c.355-.697 1.097-1.142 2.09-1.142 1.095 0 1.837.46 2.192 1.32h.015c.415-.816 1.17-1.32 2.326-1.32 1.6 0 2.519.979 2.519 2.698v4.37c0 .089-.06.148-.148.148h-.504z"/><circle class="cls-4" cx="1468.28" cy="234.3" r="6.33"/><circle class="cls-4" cx="1154.65" cy="151.57" r="6.33"/><circle class="cls-4" cx="918.9" cy="142.44" r="6.33"/><circle class="cls-3" cx="816.27" cy="53.43" r="6.33"/><circle class="cls-4" cx="551.79" cy="160.94" r="6.33"/><circle class="cls-3" cx="204.49" cy="264.59" r="6.33"/><circle class="cls-4" cx="79.89" cy="234.74" r="6.33"/></svg>