<svg xmlns="http://www.w3.org/2000/svg" width="58.36" height="50" viewBox="0 0 58.36 50"><g data-name="Group 7" fill="none" stroke="#c21b17" stroke-linecap="round" stroke-linejoin="round" stroke-width="2"><path data-name="Path 109" d="M56.091 16.358H42.335a1.254 1.254 0 01-1.161-1.727l1.1-2.687a2.758 2.758 0 011.2-1.363l2.16-1.223a1.557 1.557 0 011.793.184l1.227 1.073a.853.853 0 001.125 0l1.225-1.073a1.56 1.56 0 011.8-.184l2.16 1.223a2.758 2.758 0 011.2 1.362l1.1 2.687a1.254 1.254 0 01-1.173 1.728z"/><path data-name="Path 110" d="M52.239 4.025a3.026 3.026 0 01-3.026 3.025 3.025 3.025 0 01-3.024-3.025A3.025 3.025 0 0149.213 1a3.026 3.026 0 013.026 3.025z"/><path data-name="Path 111" d="M42.748 49h12.93V19.61h-12.93z"/><path data-name="Path 112" d="M36.06 30.866H22.302a1.254 1.254 0 01-1.161-1.727l1.1-2.686a2.777 2.777 0 011.2-1.363l2.162-1.223a1.557 1.557 0 011.793.184l1.225 1.073a.856.856 0 001.127 0l1.225-1.073a1.56 1.56 0 011.8-.184l2.16 1.223a2.758 2.758 0 011.2 1.362l1.1 2.687a1.254 1.254 0 01-1.173 1.727z"/><path data-name="Path 113" d="M32.206 18.534a3.024 3.024 0 01-3.024 3.025 3.024 3.024 0 01-3.024-3.025 3.024 3.024 0 013.024-3.025 3.024 3.024 0 013.024 3.025z"/><path data-name="Path 114" d="M22.716 49h12.93V34.121h-12.93z"/><path data-name="Path 115" d="M16.029 37.643H2.27a1.254 1.254 0 01-1.161-1.727l1.1-2.686a2.757 2.757 0 011.196-1.359l2.16-1.223a1.56 1.56 0 011.8.184l1.225 1.073a.856.856 0 001.127 0l1.225-1.073a1.557 1.557 0 011.793-.184l2.157 1.223a2.78 2.78 0 011.2 1.361l1.1 2.688a1.252 1.252 0 01-1.163 1.723z"/><path data-name="Path 116" d="M12.174 25.31a3.026 3.026 0 01-3.024 3.025 3.026 3.026 0 01-3.026-3.025 3.026 3.026 0 013.026-3.025 3.025 3.025 0 013.024 3.025z"/><path data-name="Path 117" d="M2.684 49h12.93v-8.1H2.684z"/></g></svg>