<svg xmlns="http://www.w3.org/2000/svg" width="49" height="49" viewBox="0 0 49 49"><g fill-rule="evenodd"><path data-name="Path 94" d="M48.49 24.179a24.2 24.2 0 01-24 24.321 24.182 24.182 0 01-24-24.321A24.2 24.2 0 0124.5.502a24.2 24.2 0 0124 23.679" fill="#fff" stroke="#c21b17"/><path data-name="Path 95" d="M14.915 16.629l.745-2.548a.116.116 0 01.225 0l.845 2.541a.116.116 0 01-.109.16h-1.6a.116.116 0 01-.109-.152m17.206 0l.748-2.548a.121.121 0 01.232 0l.835 2.541a.116.116 0 01-.109.16h-1.6a.123.123 0 01-.109-.152" fill="#c21b17"/><path data-name="Path 96" d="M34.008 18.008h-2.613a.348.348 0 01-.334-.261l-2.36-8.567a.356.356 0 00-.341-.254h-7.812a.356.356 0 00-.334.254l-2.359 8.567a.348.348 0 01-.341.261H14.9a.356.356 0 00-.348.334l-.254 5.336a.356.356 0 00.348.378h1.634v14.955a.355.355 0 00.356.348h15.645a.348.348 0 00.348-.356V24.049h1.633a.347.347 0 00.348-.363l-.247-5.343a.356.356 0 00-.356-.334M23.285 29h-2.86a.24.24 0 01-.24-.24v-3.193a.24.24 0 01.147-.226l1.43-.581a.24.24 0 01.189 0l1.43.581a.238.238 0 01.145.218v3.2a.24.24 0 01-.24.24m5.372 0h-2.86a.24.24 0 01-.247-.24v-3.192a.252.252 0 01.145-.225l1.437-.581a.225.225 0 01.181 0l1.43.581a.227.227 0 01.145.218v3.2a.24.24 0 01-.232.24" fill="#c21b17"/></g></svg>