<svg xmlns="http://www.w3.org/2000/svg" width="49.59" height="71" viewBox="0 0 49.59 71"><g fill="none" stroke="#fff" stroke-linecap="round" stroke-linejoin="round" stroke-width="3"><path data-name="Path 97" d="M43.11 51.053A18.382 18.382 0 0124.796 69.5 18.383 18.383 0 016.478 51.053a18.435 18.435 0 0113.084-17.681 18.11 18.11 0 015.234-.766 18.079 18.079 0 015.23.766A18.428 18.428 0 0143.11 51.053z"/><path data-name="Path 98" d="M14.094 56.407a11.919 11.919 0 01-1.214-5.258 11.971 11.971 0 019.242-11.654"/><path data-name="Path 99" d="M33.495 42.875a11.928 11.928 0 013.23 8.177 11.966 11.966 0 01-11.968 11.966 11.991 11.991 0 01-2.723-.312"/><path data-name="Path 100" d="M30.063 27.688v5.9a18.325 18.325 0 00-5.267-.766 18.356 18.356 0 00-5.271.766v-5.9z"/><path data-name="Path 101" d="M33.513 22.814v3.949a.963.963 0 01-.964.961H17.04a.961.961 0 01-.961-.961v-3.949a.953.953 0 01.68-.917.875.875 0 01.282-.044h15.508a.9.9 0 01.284.044.958.958 0 01.68.917z"/><path data-name="Path 102" d="M48.093 1.5L32.705 22.022a.9.9 0 00-.284-.044H18.987l5.68-7.575 9.676-12.9z"/><path data-name="Path 103" d="M24.926 14.402l-5.68 7.575H17.17a.875.875 0 00-.282.044L1.5 1.5h13.747z"/></g></svg>