<svg xmlns="http://www.w3.org/2000/svg" width="60.05" height="46.43" viewBox="0 0 60.05 46.43"><g fill="none" stroke="#c21b17" stroke-linecap="round" stroke-linejoin="round" stroke-width="2"><path data-name="Path 155" d="M42.702 38.647l11.043 6.352a2.285 2.285 0 003-.653l1.443-2.026a4.488 4.488 0 00.522-.955 4.462 4.462 0 00-.657-4.312l-5.271-6.944a9.827 9.827 0 01-.947-1.52 1.563 1.563 0 01-.671.149h-6.047a1.564 1.564 0 01-1.116-.463 1.569 1.569 0 01-.463-1.116 1.582 1.582 0 011.579-1.581h5.475l-1.21-3.057h-5.72a1.568 1.568 0 01-1.118-.463 1.561 1.561 0 01-.463-1.115 1.581 1.581 0 011.581-1.581h4.467l-2.571-6.489a1.1 1.1 0 00-1.8-.368l-5.53 5.57a2.459 2.459 0 01-3.2.252l-3.4-2.493a3.259 3.259 0 01-1.288-3.187l.792-4.608a4.281 4.281 0 00-1.235-3.8l-2.812-2.731a1.81 1.81 0 00-2.673.162L13.42 15.32a4.855 4.855 0 001.361 7.258l16.383 9.425"/><path data-name="Path 156" d="M42.081 20.944a1.561 1.561 0 00.463 1.115 1.568 1.568 0 001.118.463h6.046a1.579 1.579 0 001.579-1.578 1.579 1.579 0 00-.463-1.118 1.579 1.579 0 00-1.116-.463h-6.046a1.581 1.581 0 00-1.581 1.581z"/><path data-name="Path 157" d="M43.538 27.156a1.569 1.569 0 00.463 1.116 1.564 1.564 0 001.116.463h6.046a1.563 1.563 0 00.671-.149 1.571 1.571 0 00.91-1.43 1.576 1.576 0 00-.463-1.118 1.578 1.578 0 00-1.118-.463h-6.046a1.582 1.582 0 00-1.579 1.581z"/><path data-name="Path 158" d="M32.401 43.156H14.802"/><path data-name="Path 159" d="M20.823 37.228H7.578"/><path data-name="Path 160" d="M1 28.738h4.261"/><path data-name="Path 161" d="M12.343 32.319h12.184"/><path data-name="Path 162" d="M28.697 35.468h15.654"/></g></svg>