<svg xmlns="http://www.w3.org/2000/svg" width="50.11" height="50.41" viewBox="0 0 50.11 50.41"><g fill="none" stroke="#c21b17" stroke-linecap="round" stroke-linejoin="round" stroke-width="2"><path data-name="Path 104" d="M39.703 27.449l-.139.651-1.431 6.737a23.265 23.265 0 00-.1 9.176L38.976 49h-27.8l.945-4.987a23.266 23.266 0 00-.1-9.176l-1.435-6.754-.136-.635a1.091 1.091 0 01.653-1.239l3.545-1.444a1.084 1.084 0 011.38.529l.174.355 2.158 4.414a7.5 7.5 0 004.4 3.829 7.412 7.412 0 002.319.371 7.412 7.412 0 002.319-.371 7.455 7.455 0 002.585-1.468 7.5 7.5 0 001.812-2.361l2.153-4.4.18-.369a1.086 1.086 0 011.375-.524l3.545 1.444a1.091 1.091 0 01.655 1.235z"/><path data-name="Path 105" d="M2.268 49a4.876 4.876 0 01-.9-4.932l4.287-11.433a7.261 7.261 0 013.927-4.119l1-.432"/><path data-name="Path 106" d="M16.162 25.671l1.422-.614a4.094 4.094 0 013.87.338l1.877 1.234a3.141 3.141 0 003.45 0l1.877-1.234a4.087 4.087 0 013.866-.338l1.459.628"/><path data-name="Path 107" d="M39.562 28.1l.97.416a7.269 7.269 0 013.925 4.119l4.287 11.433a4.88 4.88 0 01-.9 4.932"/><path data-name="Path 108" d="M35.863 11.809a10.809 10.809 0 01-10.808 10.809 10.81 10.81 0 01-10.81-10.809A10.81 10.81 0 0125.055 1a10.809 10.809 0 0110.808 10.809z"/></g></svg>