<svg xmlns="http://www.w3.org/2000/svg" width="26" height="31" viewBox="0 0 26 31"><g fill="none" stroke="#c21b17" stroke-linecap="round" stroke-linejoin="round" stroke-width="2"><path data-name="Path 134" d="M25 18.028a11.986 11.986 0 01-12.178 11.97A12.022 12.022 0 011 18.07a11.982 11.982 0 019.107-11.663.808.808 0 00.615-.784V4.239h4.556v1.384a.8.8 0 00.606.783 11.963 11.963 0 014.8 2.43 11.992 11.992 0 012.063 2.21A11.891 11.891 0 0125 18.028z"/><path data-name="Path 135" d="M16.976 1.901v1.437a.9.9 0 01-.9.9h-6.15a.9.9 0 01-.9-.9V1.901a.9.9 0 01.9-.9h6.148a.9.9 0 01.902.9z"/><path data-name="Path 136" d="M24.427 9.42l-1.61 1.611a11.609 11.609 0 00-2-2.147l1.537-1.536a.608.608 0 01.864 0l1.208 1.207a.61.61 0 01.001.865z"/><path data-name="Path 137" d="M19.435 11.688l-3.382 7.006a2.713 2.713 0 01-2.444 1.534 2.714 2.714 0 01-2.714-2.714 2.714 2.714 0 011.535-2.444z"/></g></svg>