<svg xmlns="http://www.w3.org/2000/svg" width="41.5" height="50" viewBox="0 0 41.5 50"><g fill="none" stroke="#c21b17" stroke-linecap="round" stroke-linejoin="round" stroke-width="2"><path data-name="Path 151" d="M40.5 29.243a19.753 19.753 0 01-20.043 19.754A19.814 19.814 0 011 29.312a19.764 19.764 0 0114.99-19.247A1.333 1.333 0 0017 8.77V6.486h7.5V8.77a1.326 1.326 0 001 1.292 19.668 19.668 0 017.9 4.01 19.768 19.768 0 013.4 3.646 19.66 19.66 0 013.7 11.525z"/><path data-name="Path 152" d="M27.487 2.524v2.434a1.526 1.526 0 01-1.527 1.526H15.544a1.527 1.527 0 01-1.527-1.526V2.524A1.527 1.527 0 0115.544.998h10.414a1.526 1.526 0 011.529 1.526z"/><path data-name="Path 153" d="M39.528 14.988l-2.727 2.728a19.664 19.664 0 00-3.386-3.636l2.6-2.6a1.03 1.03 0 011.463 0l2.046 2.045a1.032 1.032 0 01.004 1.463z"/><path data-name="Path 154" d="M31.489 18.519l-5.728 11.866a4.6 4.6 0 01-4.14 2.6 4.6 4.6 0 01-4.6-4.6 4.6 4.6 0 012.6-4.139z"/></g></svg>