<svg xmlns="http://www.w3.org/2000/svg" width="50.11" height="50" viewBox="0 0 50.11 50"><g fill="none" stroke="#c21b17" stroke-linecap="round" stroke-linejoin="round" stroke-width="2"><path data-name="Path 143" d="M29.621 27.993l-1.5 2.661 6.418 5.052a5.131 5.131 0 011.854 3.013l1.405 6.977a2.759 2.759 0 01-2.161 3.248 2.713 2.713 0 01-.547.056 2.763 2.763 0 01-2.7-2.215l-1.376-6.835-6.472-5.094-2.621-2.059a5.426 5.426 0 01-1.874-2.81"/><path data-name="Path 144" d="M14.242 15.736l.656-.865a7 7 0 015.339-2.771l9.122-.325a6.859 6.859 0 015.859 2.9l5.333 7.534 5.114-1.31a2.757 2.757 0 013.356 1.988 2.745 2.745 0 01.088.687 2.762 2.762 0 01-2.075 2.67l-5.274 1.351a5.214 5.214 0 01-1.293.164 5.316 5.316 0 01-4.323-2.226l-2.861-4.043-1.874 3.328"/><path data-name="Path 145" d="M16.052 22.369l-.962 1.268a2.758 2.758 0 01-3.865.53 2.753 2.753 0 01-1.091-2.2 2.745 2.745 0 01.561-1.666l1.037-1.367"/><path data-name="Path 146" d="M20.81 25.272l4.647-7.832-5.09.182a1.5 1.5 0 00-1.142.591l-.783 1.033"/><path data-name="Path 147" d="M23.729 37.467l-.828 2.824a5.127 5.127 0 01-4.918 3.681h-6.382a2.758 2.758 0 01-2.757-2.757 2.756 2.756 0 01.808-1.951 2.749 2.749 0 011.951-.807h6.087l1.131-5.415"/><path data-name="Path 148" d="M42.25 5.977a4.977 4.977 0 01-4.977 4.977 4.977 4.977 0 01-4.977-4.977A4.977 4.977 0 0137.273 1a4.977 4.977 0 014.977 4.977z"/><path data-name="Path 149" d="M23.132 21.27l-1.155.222a7.645 7.645 0 01-6.39-1.681l-3.152-2.677a7.645 7.645 0 00-6.15-1.723l-2.552.406"/><path data-name="Path 150" d="M32.182 26.862l-1.856-.438a16.291 16.291 0 00-10.419.988l-2.372 1.064a16.288 16.288 0 01-11.943.55L1.27 27.547"/></g></svg>